<svg width="28" height="28" viewBox="0 0 28 28" fill="none" xmlns="http://www.w3.org/2000/svg">
<path d="M14.4065 4.48242H12.6022V14.5247L19.1208 17.6228L19.8953 15.9933L14.4065 13.3846V4.48242Z" fill="#23336C"/>
<path d="M13.5317 0C6.05839 0 0 6.05839 0 13.5317C0 21.0051 6.05839 27.0635 13.5317 27.0635C21.0051 27.0635 27.0635 21.0051 27.0635 13.5317C27.0635 6.05839 21.0051 0 13.5317 0ZM13.5317 25.2593C7.05483 25.2593 1.80423 20.0087 1.80423 13.5317C1.80423 7.05483 7.05483 1.80423 13.5317 1.80423C20.0087 1.80423 25.2593 7.05483 25.2593 13.5317C25.2593 20.0087 20.0087 25.2593 13.5317 25.2593Z" fill="#23336C"/>
</svg>
