<svg width="565" height="465" viewBox="0 0 565 465" fill="none" xmlns="http://www.w3.org/2000/svg">
<path d="M911.758 222.556L757.144 199.482L925.201 157.946L911.758 222.556ZM1007.22 127.488L852.602 80.4148L683.72 134.239L710.089 153.332L828.045 116.256L871.076 130.808L725.366 168.763L735.582 178.475L893.107 136.922L965.539 157.024L1007.22 127.488ZM1337.33 480.582C1344.69 481.553 1352.92 481.437 1361.25 480.377C1362.74 480.186 1364.21 479.998 1365.66 479.813C1364.49 475.577 1362.83 472.005 1364.62 470.056C1363.76 469.498 1362.95 468.975 1362.1 468.424L1310.94 449.186L1337.33 480.582ZM1115.39 513.486L1014.54 513.306L1358.72 779.804L1273.33 791.672L1178.92 718.597C1206 708.336 1176.23 703.28 1171.07 695.97L1176.01 716.344L1092.02 651.339C1092.34 651.444 1092.65 651.55 1092.96 651.656L1073.04 614.904C1071.22 620.51 1069.4 626.13 1067.4 632.288L833.282 451.088L823.096 502.191C815.219 496.405 805.855 492.411 789.046 497.421L821.783 508.776L819.661 519.421L1188.46 804.082L1103.6 816.31L806.499 586.583L792.944 655.006L1017.68 828.356L933.341 840.404L780.371 722.26L767.405 790.503L794.701 811.775L765.276 823.185C773.57 823.737 781.862 824.319 790.161 824.837C799.525 825.423 805.5 824.812 808.585 822.593L846.901 852.451L763.605 865.037L674.548 877.984L727.722 603.573L661.321 552.189L595.574 890.841L264.362 634.867L296.49 468.846C304.228 473.518 313.349 479.025 322.501 484.549L298.709 457.38L342.94 228.825L740.492 535.469L753.653 467.766L687.252 416.382L700.61 348.544L750.508 387.955L1054.35 387.431L1040.73 377.361H966.275L945.059 336.271H984.348L992.009 352.186H1111.45L1116.14 344.998L986.536 169.137L1025.24 133.619L945.484 -40.2015C949.605 -39.4906 953.725 -38.7812 957.828 -38.0733L943.963 -43.5134L939.931 -52.3036L921.547 -52.3095L917.938 -53.7254C904.918 -71.858 879.295 -79.2912 851.216 -84.6446L849.207 -122.599C811.525 -112.675 832.779 -89.0699 815.474 -74.4151C817.902 -72.6027 820.328 -70.7903 822.756 -68.9779C832.486 -69.6153 842.216 -70.2527 851.946 -70.8902L851.473 -79.8052L917.938 -53.7254C918.27 -53.2642 918.578 -52.7839 918.894 -52.3095L585.883 -52.4153L717.898 50.3532H314.784L634.016 297.026L620.592 365.134L290.03 109.021L260.263 263.795C250.235 257.337 240.112 250.817 229.738 244.138L225.188 268.637C229.281 269.587 233.371 270.538 237.455 271.486L258.228 274.38L198.615 584.336L0.331299 427.71L99.8668 -88.5632L1039.29 -217.817L1005.9 -52.5974L1537.36 -52.0584L1388.58 724.779L1115.39 513.486ZM364.485 -73.1197C375.672 -67.2772 386.857 -61.4346 400.611 -54.2512C415.492 -63.4468 427.305 -70.7462 439.117 -78.0443L418.307 -72.9904C401.866 -74.7117 385.428 -76.4331 368.987 -78.1544C367.487 -76.4757 365.985 -74.7969 364.485 -73.1197ZM224.024 58.1726L158.017 6.38303L78.6487 413.684L145.05 464.933L224.024 58.1726ZM551.311 -0.898849L484.91 -52.3066H182.005L247.989 -0.898849H551.311ZM614.571 -84.6579C610.674 -86.7831 607.114 -88.7247 603.554 -90.6663L601.75 -77.9047C605.368 -79.8096 608.986 -81.716 614.571 -84.6579ZM784.096 -74.6236C770.216 -83.9646 757.915 -92.2437 745.613 -100.521L766.889 -73.3414C772.081 -73.7277 777.269 -74.114 784.096 -74.6236ZM797.627 -116.336C797.452 -118.745 792.054 -121.042 789.038 -123.391L795.383 -97.205C796.286 -103.585 798.092 -109.986 797.627 -116.336ZM877.705 -146.466L800.094 -156.24C796.205 -158.603 792.54 -161.451 789.143 -164.88C788.358 -165.673 776.052 -161.825 769.114 -160.141L800.094 -156.24C821.44 -143.271 849.586 -145.004 877.705 -146.466ZM1181.47 497.935C1172.51 493.082 1165.05 489.042 1157.58 485L1173.88 511.848C1176.67 506.737 1179.46 501.623 1181.47 497.935ZM1411.51 242.838L1410.84 240.077C1410.6 241.04 1410.89 241.955 1411.51 242.838L1417.19 266.262C1448.02 255.46 1416.81 250.336 1411.51 242.838ZM1451.58 203.233C1439.3 198.03 1428.68 193.532 1418.06 189.032L1457.44 230.299C1455.32 220.525 1453.21 210.749 1451.58 203.233ZM1375 -3.83772L1420.93 40.8624C1420.55 33.9404 1421.05 26.7129 1420.05 20.0112C1424.81 19.1241 1429.58 18.2355 1434.35 17.3484C1414.56 10.2868 1394.78 3.2253 1375 -3.83772ZM1369.63 140.72L1422.98 159.223C1406.07 151.998 1400 131.668 1369.63 140.72ZM1362.11 468.423C1332.69 449.334 1308.89 433.892 1285.15 418.482L1310.95 449.186C1305.31 468.435 1318.45 478.091 1337.33 480.584L1350.07 495.739L1304.76 478.698L1331.14 510.096C1338.5 511.067 1346.73 510.951 1355.06 509.89C1356.55 509.699 1358.02 509.511 1359.47 509.326C1358.3 505.091 1356.64 501.519 1358.43 499.57C1358.01 499.294 1357.6 499.028 1357.19 498.762C1367.97 492.862 1367.3 485.698 1365.67 479.814C1373.24 478.846 1380.27 477.988 1386.79 477.705L1425.44 492.239C1415.17 479.68 1402.44 477.025 1386.79 477.705L1362.11 468.423ZM1332.49 332.786L1353.1 381.061C1371.91 360.655 1341.64 348.494 1332.49 332.786ZM1283.31 360.393C1283.73 362.022 1284.44 363.604 1285.34 365.153L1283.31 360.393ZM1220.82 233.855C1225.04 236.6 1229.27 239.347 1235.98 243.703C1240.54 235.418 1244.02 229.085 1247.51 222.753L1220.82 233.855ZM1170.1 277.684C1153.93 262.959 1141.68 251.804 1129.43 240.648L1170.22 287.237C1170.29 292.645 1170.38 299.483 1170.49 307.348C1179.44 312.75 1193.36 321.158 1207.29 329.565L1170.22 287.237C1170.17 283.192 1170.12 279.946 1170.1 277.684ZM1110.75 51.2771C1119.68 54.2747 1129.57 57.5954 1139.47 60.9177L1119.54 24.1662C1116.82 32.5804 1114.09 40.9946 1110.75 51.2771ZM1139.82 202.691C1160.48 203.983 1164.8 199.534 1157.46 184.549L1114.93 201.038C1123.23 201.591 1131.52 202.171 1139.82 202.691ZM464.085 399.658L395.72 347.059L343.464 618.682L409.472 669.752L464.085 399.658ZM552.524 717.727L595.121 500.943L528.033 448.817L476.53 721.542L541.883 771.892L550.049 730.332C554.813 733.368 561.039 735.292 568.064 736.218L552.524 717.727ZM1057.5 461.966L1026.82 440.736L919.983 440.298L948.272 461.877L1057.5 461.966Z" fill="white" fill-opacity="0.3"/>
</svg>
