<svg width="86" height="57" viewBox="0 0 86 57" fill="none" xmlns="http://www.w3.org/2000/svg">
<path d="M14.4614 50.5794C15.6189 50.5794 16.5572 49.6213 16.5572 48.4393C16.5572 47.2574 15.6189 46.2992 14.4614 46.2992C13.3039 46.2992 12.3656 47.2574 12.3656 48.4393C12.3656 49.6213 13.3039 50.5794 14.4614 50.5794Z" fill="#23336C"/>
<path d="M35.42 50.5794C36.5775 50.5794 37.5158 49.6213 37.5158 48.4393C37.5158 47.2574 36.5775 46.2992 35.42 46.2992C34.2625 46.2992 33.3242 47.2574 33.3242 48.4393C33.3242 49.6213 34.2625 50.5794 35.42 50.5794Z" fill="#23336C"/>
<path d="M70.3507 50.5794C71.5082 50.5794 72.4465 49.6213 72.4465 48.4393C72.4465 47.2574 71.5082 46.2992 70.3507 46.2992C69.1932 46.2992 68.2549 47.2574 68.2549 48.4393C68.2549 49.6213 69.1932 50.5794 70.3507 50.5794Z" fill="#23336C"/>
<path d="M80.6904 16.9788C79.5028 13.6259 76.2891 11.343 72.7961 11.343H58.1251V39.8788H52.8155V26.1103L56.588 17.1216L49.3923 9.55965L34.1623 2.99648L12.0862 0L5.23961 16.408L0 20.4743L1.67668 22.7572L6.35733 19.1189L9.92026 21.9724V29.7484C9.92026 31.8885 8.73261 33.886 6.84637 34.8848L2.93405 36.8823V42.7321H8.24358C6.91629 44.2302 6.07785 46.2278 6.07785 48.4393C6.07785 53.1477 9.85034 57 14.4613 57C18.5831 57 22.0761 53.9325 22.705 49.8661H27.1761C27.8747 53.9323 31.298 57 35.4199 57C39.5417 57 43.0348 53.9325 43.6636 49.8661H46.7375V52.7196H59.5223V49.8661H62.1071C62.8057 53.9323 66.229 57 70.3509 57C74.4728 57 77.9658 53.9325 78.5946 49.8661H81.1097C83.8344 49.8661 86.0001 47.6545 86.0001 44.8722V32.1025L80.6904 16.9788ZM78.2452 18.4769L82.6466 30.8899L73.7742 29.1064C72.7961 28.8924 72.0975 28.0362 72.0975 27.0375V18.4769H78.2452ZM13.8326 3.0675L31.787 5.49301L24.3118 23.4706L26.8966 24.6119L34.5115 6.20639L46.7373 11.4854L39.1224 29.891L41.7073 31.0323L49.0427 13.2688L53.3042 17.6918L45.829 35.6694L37.9346 35.598L23.613 29.3914L8.10393 16.836L13.8326 3.0675ZM5.72865 38.5946L8.10393 37.3819C10.9683 35.9551 12.7148 32.9588 12.7148 29.7485V24.1841L22.1462 31.8175L37.3762 38.3806L47.6459 38.452L50.0211 32.7448V39.8074H5.72865V38.5946ZM20.749 42.7323H29.2721C28.2241 43.945 27.5255 45.3718 27.246 47.0127H22.7749C22.4955 45.3718 21.7269 43.945 20.749 42.7323ZM14.4614 54.1465C11.3876 54.1465 8.87245 51.5782 8.87245 48.4393C8.87245 45.3004 11.3876 42.7321 14.4614 42.7321C17.5353 42.7321 20.0504 45.3004 20.0504 48.4393C20.0504 51.5782 17.5353 54.1465 14.4614 54.1465ZM35.4199 54.1465C32.346 54.1465 29.8309 51.5782 29.8309 48.4393C29.8309 45.3004 32.346 42.7321 35.4199 42.7321C38.4938 42.7321 41.0089 45.3004 41.0089 48.4393C41.0089 51.5782 38.5637 54.1465 35.4199 54.1465ZM56.7279 49.8662H49.5321V47.0127H56.7279V49.8662ZM46.7375 44.159V47.0125H43.6636C43.3841 45.3718 42.6855 43.9449 41.6376 42.7321H58.1249H60.2207H64.133C63.085 43.9449 62.3864 45.3716 62.1069 47.0125H59.5223V44.159H46.7375ZM70.3509 54.1465C67.277 54.1465 64.7619 51.5782 64.7619 48.4393C64.7619 45.3004 67.277 42.7321 70.3509 42.7321C73.4248 42.7321 75.9399 45.3004 75.9399 48.4393C75.9399 51.5782 73.4947 54.1465 70.3509 54.1465ZM81.1795 47.0125H78.6644C78.0357 43.0889 74.752 40.0214 70.7001 39.8786H60.9195V14.1965H72.7959C74.1931 14.1965 75.4507 14.7673 76.4986 15.6233H69.3029V26.9662C69.3029 29.3204 70.9796 31.3893 73.2152 31.8887L83.2753 33.9576V44.8724C83.2753 46.0852 82.3671 47.0125 81.1795 47.0125Z" fill="#23336C"/>
<circle cx="31.5" cy="19.5" r="19.5" fill="#23336C" fill-opacity="0.1"/>
</svg>
