<svg width="260" height="269" viewBox="0 0 260 269" fill="none" xmlns="http://www.w3.org/2000/svg">
<path d="M-159.126 128.696L-88.0415 115.353L-165.307 91.3344L-159.126 128.696ZM-203.014 73.7215L-131.929 46.5004L-54.2838 77.6249L-66.4075 88.6658L-120.639 67.226L-140.423 75.6409L-73.4313 97.5895L-78.1279 103.205L-150.552 79.1766L-183.853 90.801L-203.014 73.7215ZM-354.789 277.904C-358.172 278.465 -361.954 278.398 -365.785 277.785C-366.471 277.675 -367.146 277.566 -367.813 277.459C-367.273 275.009 -366.51 272.944 -367.335 271.817C-366.939 271.494 -366.568 271.192 -366.178 270.873L-342.656 259.748L-354.789 277.904ZM-252.747 296.931L-206.382 296.827L-364.624 450.934L-325.365 457.797L-281.956 415.54C-294.408 409.607 -280.722 406.682 -278.348 402.455L-280.618 414.237L-242.004 376.647C-242.149 376.708 -242.293 376.769 -242.438 376.83L-233.278 355.578C-232.442 358.82 -231.605 362.069 -230.687 365.63L-123.046 260.848L-118.364 290.4C-114.742 287.053 -110.437 284.744 -102.709 287.641L-117.76 294.207L-116.784 300.363L-286.345 464.973L-247.327 472.044L-110.733 339.201L-104.501 378.767L-207.827 479.01L-169.05 485.977L-98.7203 417.658L-92.7588 457.121L-105.308 469.421L-91.7802 476.02C-95.5935 476.339 -99.4059 476.675 -103.221 476.975C-107.526 477.314 -110.274 476.961 -111.692 475.677L-129.308 492.943L-91.012 500.221L-50.0671 507.708L-74.5142 349.026L-43.9856 319.312L-13.7579 515.143L138.52 367.122L123.749 271.117C120.191 273.819 115.998 277.004 111.79 280.198L122.729 264.487L102.393 132.321L-80.3853 309.643L-86.4363 270.493L-55.9077 240.779L-62.0492 201.55L-84.9904 224.341L-224.686 224.038L-218.423 218.215H-184.191L-174.437 194.454H-192.501L-196.023 203.657H-250.938L-253.096 199.5L-193.507 97.8052L-211.3 77.2665L-174.633 -23.248C-176.527 -22.8369 -178.422 -22.4267 -180.308 -22.0173L-173.933 -25.1632L-172.079 -30.2463L-163.627 -30.2496L-161.968 -31.0684C-155.982 -41.5539 -144.202 -45.8522 -131.292 -48.948L-130.368 -70.8957C-113.043 -65.157 -122.815 -51.5069 -114.859 -43.0325C-115.975 -41.9845 -117.091 -40.9365 -118.207 -39.8884C-122.681 -40.257 -127.154 -40.6256 -131.627 -40.9942L-131.41 -46.1495L-161.968 -31.0684C-162.121 -30.8017 -162.262 -30.524 -162.408 -30.2496L-9.30225 -30.3108L-69.9976 29.1168H115.338L-31.432 171.759L-25.26 211.144L126.719 63.0423L140.405 152.543C145.015 148.809 149.669 145.039 154.439 141.176L156.531 155.343C154.649 155.893 152.769 156.442 150.891 156.991L141.34 158.664L168.748 337.901L259.911 247.33L214.149 -51.2139L-217.759 -125.957L-202.408 -30.4161L-446.755 -30.1044L-378.352 419.114L-252.747 296.931ZM92.4874 -42.2835C87.3443 -38.9049 82.2021 -35.5264 75.8786 -31.3724C69.0367 -36.6899 63.6053 -40.911 58.1749 -45.1312L67.7423 -42.2087C75.3012 -43.2041 82.8591 -44.1995 90.418 -45.1949C91.1075 -44.2241 91.798 -43.2534 92.4874 -42.2835ZM157.066 33.6385L187.414 3.69029L223.904 239.219L193.375 268.855L157.066 33.6385ZM6.59254 -0.520569L37.1212 -30.2479H176.385L146.048 -0.520569H6.59254ZM-22.4922 -48.9556C-20.7001 -50.1845 -19.0634 -51.3073 -17.4267 -52.4301L-16.5975 -45.0505C-18.2608 -46.152 -19.924 -47.2544 -22.4922 -48.9556ZM-100.433 -43.1531C-94.0512 -48.5547 -88.3956 -53.3423 -82.74 -58.129L-92.5218 -42.4117C-94.9089 -42.6351 -97.2941 -42.8584 -100.433 -43.1531ZM-106.654 -67.2743C-106.573 -68.6671 -104.092 -69.9954 -102.705 -71.3535L-105.622 -56.2112C-106.037 -59.9006 -106.867 -63.6019 -106.654 -67.2743ZM-143.471 -84.6969L-107.788 -90.3491C-106 -91.7156 -104.315 -93.3624 -102.753 -95.3455C-102.392 -95.8041 -96.7345 -93.579 -93.5447 -92.6048L-107.788 -90.3491C-117.602 -82.8497 -130.542 -83.8519 -143.471 -84.6969ZM-283.132 287.938C-279.011 285.132 -275.58 282.796 -272.148 280.459L-279.642 295.984C-280.923 293.028 -282.206 290.071 -283.132 287.938ZM-388.894 140.424L-388.586 138.828C-388.476 139.385 -388.608 139.914 -388.894 140.424L-391.503 153.97C-405.678 147.723 -391.328 144.76 -388.894 140.424ZM-407.317 117.522C-401.671 114.514 -396.787 111.912 -391.905 109.31L-410.01 133.174C-409.037 127.522 -408.064 121.869 -407.317 117.522ZM-372.105 -2.22002L-393.222 23.6286C-393.051 19.6258 -393.279 15.4464 -392.818 11.571C-395.009 11.058 -397.201 10.5442 -399.393 10.0312C-390.297 5.94775 -381.2 1.86429 -372.105 -2.22002ZM-369.637 81.3729L-394.165 92.0724C-386.392 87.8947 -383.602 76.1386 -369.637 81.3729ZM-366.179 270.872C-352.654 259.834 -341.713 250.904 -330.795 241.993L-342.658 259.748C-340.067 270.879 -346.107 276.463 -354.79 277.905L-360.646 286.669L-339.812 276.814L-351.943 294.971C-355.326 295.532 -359.109 295.465 -362.939 294.852C-363.626 294.741 -364.3 294.633 -364.968 294.526C-364.427 292.076 -363.666 290.011 -364.49 288.884C-364.294 288.724 -364.107 288.57 -363.918 288.417C-368.873 285.005 -368.567 280.862 -367.816 277.46C-371.296 276.9 -374.528 276.404 -377.526 276.24L-395.295 284.645C-390.577 277.382 -384.722 275.847 -377.526 276.24L-366.179 270.872ZM-352.561 192.438L-362.038 220.354C-370.685 208.554 -356.769 201.522 -352.561 192.438ZM-329.951 208.403C-330.146 209.345 -330.471 210.259 -330.886 211.155L-329.951 208.403ZM-301.22 135.23C-303.163 136.817 -305.106 138.405 -308.19 140.924C-310.286 136.134 -311.889 132.471 -313.491 128.81L-301.22 135.23ZM-277.9 160.575C-270.466 152.06 -264.834 145.609 -259.203 139.158L-277.958 166.099C-277.99 169.226 -278.033 173.18 -278.081 177.728C-282.195 180.852 -288.597 185.714 -294.999 190.576L-277.958 166.099C-277.933 163.76 -277.914 161.883 -277.9 160.575ZM-250.617 29.651C-254.722 31.3844 -259.27 33.3047 -263.819 35.2259L-254.659 13.9737C-253.405 18.8394 -252.151 23.705 -250.617 29.651ZM-263.98 117.208C-273.48 117.956 -275.464 115.383 -272.089 106.718L-252.539 116.253C-256.352 116.572 -260.165 116.908 -263.98 117.208ZM46.6955 231.108L78.127 200.692L102.152 357.762L71.8045 387.294L46.6955 231.108ZM6.03485 415.037L-13.5494 289.678L17.295 259.535L40.9739 417.243L10.9272 446.358L7.17288 422.326C4.98244 424.081 2.12018 425.194 -1.10995 425.73L6.03485 415.037ZM-226.133 267.139L-212.027 254.862L-162.908 254.609L-175.914 267.087L-226.133 267.139Z" fill="white" fill-opacity="0.1"/>
</svg>
