<svg width="568" height="471" viewBox="0 0 568 471" fill="none" xmlns="http://www.w3.org/2000/svg">
<path d="M922.56 245.142L766.226 268.474L936.154 310.471L922.56 245.142ZM1019.08 341.268L862.747 388.866L691.984 334.443L718.647 315.137L837.916 352.626L881.426 337.912L734.095 299.534L744.424 289.715L903.702 331.73L976.94 311.404L1019.08 341.268ZM1352.87 -15.7554C1360.31 -16.7371 1368.63 -16.6198 1377.05 -15.5475C1378.56 -15.3544 1380.05 -15.1644 1381.51 -14.9772C1380.33 -10.6943 1378.65 -7.0827 1380.46 -5.112C1379.59 -4.54767 1378.78 -4.01904 1377.92 -3.46216L1326.19 15.9906L1352.87 -15.7554ZM1128.45 -49.0251L1026.49 -48.8439L1374.5 -318.307L1288.16 -330.308L1192.69 -256.419C1220.08 -246.045 1189.98 -240.932 1184.76 -233.54L1189.75 -254.141L1104.83 -188.412C1105.15 -188.519 1105.46 -188.626 1105.78 -188.733L1085.64 -151.573C1083.8 -157.241 1081.96 -162.923 1079.94 -169.15L843.211 14.0674L832.912 -37.605C824.948 -31.7539 815.479 -27.7161 798.483 -32.7816L831.584 -44.2626L829.438 -55.0262L1202.35 -342.855L1116.54 -355.22L816.13 -122.936L802.425 -192.121L1029.67 -367.4L944.384 -379.582L789.712 -260.123L776.601 -329.126L804.201 -350.634L774.448 -362.172C782.835 -362.73 791.219 -363.318 799.61 -363.842C809.079 -364.435 815.12 -363.817 818.24 -361.573L856.982 -391.763L772.759 -404.49L682.711 -417.58L736.476 -140.116L669.336 -88.1593L602.858 -430.581L267.959 -171.758L300.445 -3.88837C308.269 -8.6123 317.491 -14.1813 326.745 -19.7665L302.688 7.70551L347.412 238.804L749.388 -71.2535L762.696 -2.79681L695.556 49.1594L709.062 117.753L759.516 77.9026L1066.74 78.4328L1052.97 88.6143H977.684L956.232 130.162H995.959L1003.7 114.07H1124.48L1129.22 121.338L998.172 299.157L1037.3 335.07L956.663 510.825C960.829 510.106 964.995 509.389 969.144 508.673L955.125 514.173L951.047 523.062L932.459 523.067L928.81 524.499C915.645 542.834 889.736 550.349 861.345 555.762L859.314 594.139C821.212 584.105 842.703 560.237 825.205 545.419C827.66 543.587 830.113 541.754 832.568 539.921C842.406 540.566 852.245 541.21 862.083 541.855L861.604 550.869L928.81 524.499C929.145 524.033 929.456 523.547 929.777 523.067L593.058 523.174L726.543 419.262H318.942L641.728 169.844L628.154 100.977L293.912 359.941L263.814 203.445C253.675 209.975 243.439 216.567 232.95 223.321L228.349 198.549C232.487 197.588 236.623 196.627 240.753 195.668L261.757 192.742L201.48 -120.664L0.989624 37.7051L101.633 559.725L1051.51 690.417L1017.75 523.359L1555.13 522.814L1404.69 -262.67L1128.45 -49.0251ZM369.197 544.109C380.508 538.202 391.817 532.294 405.724 525.031C420.771 534.329 432.716 541.709 444.659 549.089L423.618 543.979C406.994 545.719 390.372 547.46 373.748 549.2C372.232 547.503 370.713 545.805 369.197 544.109ZM227.172 411.356L160.43 463.722L80.1787 51.8874L147.319 0.0678101L227.172 411.356ZM558.102 471.085L490.961 523.065H184.686L251.404 471.085H558.102ZM622.066 555.776C618.125 557.925 614.526 559.888 610.926 561.851L609.103 548.948C612.761 550.874 616.418 552.801 622.066 555.776ZM793.478 545.63C779.443 555.075 767.005 563.446 754.567 571.816L776.079 544.333C781.329 544.724 786.575 545.115 793.478 545.63ZM807.16 587.807C806.982 590.243 801.525 592.565 798.475 594.94L804.891 568.463C805.803 574.914 807.629 581.386 807.16 587.807ZM888.129 618.271L809.654 628.155C805.721 630.544 802.016 633.424 798.581 636.891C797.787 637.693 785.344 633.802 778.329 632.099L809.654 628.155C831.238 615.041 859.697 616.794 888.129 618.271ZM1195.28 -33.3014C1186.22 -28.3948 1178.67 -24.3094 1171.12 -20.2225L1187.6 -47.3693C1190.42 -42.2013 1193.24 -37.0304 1195.28 -33.3014ZM1427.88 224.635L1427.2 227.427C1426.96 226.453 1427.25 225.528 1427.88 224.635L1433.62 200.95C1464.79 211.872 1433.23 217.054 1427.88 224.635ZM1468.39 264.681C1455.98 269.941 1445.24 274.49 1434.5 279.04L1474.32 237.313C1472.18 247.196 1470.04 257.081 1468.39 264.681ZM1390.95 474.056L1437.4 428.859C1437.02 435.858 1437.52 443.166 1436.51 449.942C1441.33 450.839 1446.15 451.737 1450.97 452.634C1430.96 459.774 1410.96 466.915 1390.95 474.056ZM1385.53 327.89L1439.47 309.181C1422.37 316.486 1416.24 337.042 1385.53 327.89ZM1377.92 -3.46063C1348.18 15.8406 1324.11 31.4545 1300.1 47.0357L1326.19 15.9906C1320.49 -3.47253 1333.78 -13.2368 1352.87 -15.7569L1365.75 -31.0812L1319.93 -13.8501L1346.61 -45.5977C1354.05 -46.5793 1362.37 -46.4619 1370.8 -45.3897C1372.31 -45.1967 1373.79 -45.0066 1375.26 -44.8195C1374.07 -40.5366 1372.39 -36.9249 1374.21 -34.9542C1373.78 -34.675 1373.36 -34.4062 1372.95 -34.1375C1383.85 -28.172 1383.17 -20.9279 1381.52 -14.9788C1389.17 -14.0001 1396.28 -13.1328 1402.88 -12.8462L1441.96 -27.5423C1431.58 -14.8436 1418.7 -12.1586 1402.88 -12.8462L1377.92 -3.46063ZM1347.97 133.686L1368.81 84.8735C1387.83 105.507 1357.23 117.803 1347.97 133.686ZM1298.25 105.771C1298.68 104.124 1299.39 102.525 1300.3 100.958L1298.25 105.771ZM1235.06 233.718C1239.33 230.942 1243.61 228.165 1250.39 223.76C1255 232.138 1258.52 238.541 1262.05 244.943L1235.06 233.718ZM1183.77 189.401C1167.42 204.29 1155.04 215.569 1142.65 226.849L1183.9 179.742C1183.97 174.274 1184.07 167.359 1184.17 159.407C1193.22 153.945 1207.3 145.443 1221.38 136.943L1183.9 179.742C1183.85 183.832 1183.8 187.114 1183.77 189.401ZM1123.77 418.328C1132.8 415.297 1142.8 411.939 1152.81 408.58L1132.66 445.741C1129.9 437.233 1127.14 428.725 1123.77 418.328ZM1153.16 265.229C1174.05 263.922 1178.41 268.42 1170.99 283.572L1128 266.9C1136.38 266.341 1144.77 265.755 1153.16 265.229ZM469.905 66.0696L400.779 119.254L347.942 -155.392L414.684 -207.031L469.905 66.0696ZM559.328 -255.54L602.399 -36.3428L534.564 16.3634L482.488 -259.397L548.569 -310.307L556.825 -268.285C561.643 -271.354 567.938 -273.3 575.042 -274.237L559.328 -255.54ZM1069.92 3.06769L1038.9 24.5341L930.878 24.9767L959.481 3.15826L1069.92 3.06769Z" fill="white" fill-opacity="0.1"/>
</svg>
