<svg width="73" height="77" viewBox="0 0 73 77" fill="none" xmlns="http://www.w3.org/2000/svg">
<path d="M73 44.9616C73 39.8423 70.136 35.4629 66.0561 33.5819C65.85 14.9962 52.6824 0 36.4635 0C20.2349 0 7.06234 15.0148 6.87172 33.6198C2.83401 35.5158 0 39.874 0 44.9616C0 51.447 4.59173 56.755 10.4317 57.2806C10.6929 58.3053 11.5502 59.0647 12.573 59.0647H14.6397C15.8759 59.0647 16.8719 57.98 16.8719 56.6396V32.9336C16.8719 31.5968 15.875 30.5146 14.6397 30.5146H12.5722C11.4341 30.5146 10.5038 31.4449 10.3716 32.6452C10.022 32.676 9.68215 32.7298 9.34233 32.7951C10.0708 17.0325 21.9315 4.49575 36.4635 4.49575C50.9922 4.49575 62.8482 17.0272 63.583 32.7846C63.2666 32.7237 62.9528 32.6761 62.6299 32.6444C62.4953 31.4442 61.5682 30.5138 60.4277 30.5138H58.3585C57.1273 30.5138 56.128 31.5968 56.128 32.9329V56.6394C56.128 57.9798 57.1273 59.0646 58.3585 59.0646H60.4277C61.4529 59.0646 62.3063 58.3053 62.5667 57.2805L64.2384 56.948C65.3537 65.0816 64.695 67.9935 62.5513 69.7935C60.7279 71.3182 48.9254 72.0591 47.5619 72.1251C47.3097 71.0872 46.4499 70.3102 45.4141 70.3102L36.8203 69.2748C35.5883 69.2748 34.5865 70.3578 34.5865 71.7V74.5784C34.5865 75.9171 35.5883 77 36.8203 77L45.4141 75.9628C46.3631 75.9628 47.1693 75.3165 47.4897 74.4054C48.8061 74.3958 61.5 74.2229 64.2983 71.2933C67.9962 67.4192 66.9547 65.5832 66.5808 56.0845C70.3769 54.0836 73 49.8594 73 44.9616ZM10.3457 34.9029V55.0211C5.69241 54.4611 2.06838 50.1691 2.06838 44.9615C2.06838 39.7505 5.69241 35.4638 10.3457 34.9029ZM62.6551 55.0202V34.9029C67.3092 35.4638 70.9308 39.7506 70.9308 44.9616C70.9308 50.1691 67.3092 54.4611 62.6551 55.0202Z" fill="white" fill-opacity="0.6"/>
</svg>
