<svg width="38" height="36" viewBox="0 0 38 36" fill="none" xmlns="http://www.w3.org/2000/svg">
<path d="M34.2596 12.9915V28.096C34.2596 30.5005 32.1945 32.4563 29.6564 32.4563H8.343C5.80495 32.4563 3.74053 30.5005 3.74053 28.096V7.90401C3.74053 5.49951 5.80504 3.54362 8.343 3.54362H26.7759V0H8.343C3.74288 0 0 3.54594 0 7.90401V28.096C0 32.4541 3.74288 36 8.343 36H29.6564C34.2571 36 38 32.4541 38 28.096V12.9915H34.2596Z" fill="white" fill-opacity="0.5"/>
<path d="M8.80109 14.0762L6 16.4436L17.0363 28L38 3.20483L35.0531 1L16.8609 22.5156L8.80109 14.0762Z" fill="white" fill-opacity="0.5"/>
</svg>
