<svg width="76" height="56" viewBox="0 0 76 56" fill="none" xmlns="http://www.w3.org/2000/svg">
<ellipse cx="22.455" cy="21.0002" rx="21.5" ry="21" fill="#23336C" fill-opacity="0.1"/>
<path d="M75.955 28.4257V46.5707C75.955 46.9231 75.815 47.2534 75.5658 47.5012C75.3113 47.7505 74.9778 47.888 74.625 47.888H69.4645C69.196 52.4094 65.4087 55.9972 60.762 56.0002C56.1183 55.9972 52.3381 52.4124 52.0588 47.888H47.9188C47.8856 47.888 47.8562 47.872 47.8198 47.8689C47.7912 47.872 47.7656 47.888 47.7323 47.888H47.7253H30.1069C29.8346 52.4094 26.055 56.0002 21.4052 56.0002C16.7654 56.0002 12.9813 52.4124 12.7066 47.888H8.20602L11.2806 37.551H11.1599L0.954956 22.815L9.40058 14.4688L39.7246 13.1087V7.00024H57.5356V9.62945H42.3907V15.6232L10.5564 17.0536L4.40022 23.1338L12.5665 34.915H46.3961V14.4657C46.3961 13.7356 46.9942 13.1469 47.7322 13.1469C47.7655 13.1469 47.7948 13.1622 47.8242 13.1622C47.8567 13.1622 47.8861 13.1469 47.9194 13.1469H64.3001C64.7217 13.1469 65.1225 13.3502 65.3717 13.689L75.6981 27.649C75.8659 27.8745 75.955 28.1429 75.955 28.4257ZM27.4692 47.365C27.4692 47.0187 27.4329 46.6647 27.3702 46.3139L27.2937 45.9943C27.1389 45.3406 26.882 44.7459 26.5184 44.1755L26.3969 43.9829V43.9752C26.3714 43.9392 26.3528 43.9109 26.3319 43.8858C26.2723 43.8185 26.2181 43.7543 26.1647 43.674C26.0696 43.5547 25.9999 43.4653 25.9457 43.4094C25.941 43.4017 25.9303 43.3941 25.9195 43.3843L25.8823 43.3514L25.8459 43.3123C25.7647 43.2199 25.6842 43.1334 25.6099 43.0615C25.5743 43.0333 25.5001 42.9706 25.4118 42.8842C25.3677 42.8436 25.302 42.7886 25.2323 42.7244L25.1689 42.69L25.0444 42.5975C24.9346 42.505 24.7798 42.4002 24.5934 42.2764C24.4689 42.2107 24.3837 42.1571 24.3064 42.1167C24.2661 42.0884 24.2328 42.0731 24.2144 42.0646V42.06L24.1517 42.0378L24.0899 42.0049C23.9979 41.9545 23.8988 41.9125 23.8795 41.9001C23.8098 41.875 23.7696 41.8566 23.751 41.845L23.6636 41.8274L23.5498 41.777C23.5042 41.7563 23.4431 41.7334 23.2883 41.6783C23.259 41.663 23.2296 41.6577 23.1963 41.6485L23.0764 41.6294L22.9681 41.5843L22.965 41.5889C22.9364 41.5812 22.8845 41.5698 22.7739 41.5484C22.6191 41.5155 22.5248 41.4872 22.5395 41.4872C22.4582 41.4696 22.3406 41.4574 22.23 41.4391C22.158 41.436 22.0992 41.4238 22.066 41.4215H22.0211L21.9368 41.4093C21.7937 41.3932 21.635 41.3841 21.4044 41.3841C21.1785 41.3841 21.0067 41.3932 20.8752 41.4063L20.7832 41.4216H20.746C20.7205 41.4247 20.6841 41.4323 20.647 41.4369C20.4675 41.4576 20.3267 41.4775 20.3127 41.4804C20.2972 41.4835 20.2128 41.5164 20.004 41.5553C19.8531 41.5851 19.7982 41.5957 19.7797 41.6073L19.7092 41.6249L19.655 41.644C19.6063 41.6487 19.549 41.6678 19.5413 41.6723C19.4454 41.7083 19.3796 41.7289 19.3385 41.7411C19.3168 41.7488 19.3168 41.7488 19.3168 41.7488L19.1845 41.8208L19.063 41.8459V41.849C19.0405 41.8581 18.9965 41.8788 18.9377 41.8979C18.9269 41.9041 18.8465 41.943 18.7543 41.995L18.6553 42.0455L18.5825 42.0738C18.5639 42.0844 18.5198 42.1097 18.4981 42.1173C18.4394 42.1548 18.3427 42.2113 18.2629 42.261C18.0533 42.3864 17.8877 42.5003 17.7554 42.6043L17.6671 42.6731L17.6223 42.6983C17.5124 42.7939 17.4242 42.8627 17.3623 42.9132C17.3252 42.9522 17.2881 42.982 17.2656 43.0041L17.2069 43.0546C17.1666 43.0905 17.1117 43.1563 16.9679 43.3161L16.8774 43.4132L16.8357 43.4429C16.7668 43.5224 16.6964 43.6104 16.6307 43.6891C16.6082 43.722 16.5943 43.7373 16.5859 43.7518L16.5495 43.8008C16.4683 43.9085 16.377 44.0408 16.2818 44.18L16.2841 44.1754C15.9251 44.7426 15.6705 45.3359 15.5088 46.0064C15.399 46.4528 15.3363 46.904 15.3363 47.3649C15.3448 50.6798 18.0582 53.3556 21.4021 53.3663C24.7544 53.3558 27.4624 50.6799 27.4692 47.365ZM46.3961 37.5502H13.9878C13.9854 37.6611 13.9924 37.7727 13.96 37.885L11.7664 45.2542H12.9711C13.1955 44.3612 13.5522 43.5294 14.059 42.7305L14.0768 42.7099C14.1719 42.5654 14.2864 42.401 14.4149 42.226C14.4288 42.2107 14.4373 42.1977 14.4442 42.1869L14.4744 42.1387L14.51 42.0937C14.6214 41.9606 14.7382 41.8192 14.8891 41.6472C14.893 41.6472 14.9402 41.583 15.05 41.4859C15.1134 41.4171 15.2055 41.3109 15.3332 41.1885C15.3704 41.151 15.4037 41.1181 15.4299 41.0929L15.4446 41.0754L15.5654 40.9691C15.7131 40.8453 15.8161 40.7658 15.8192 40.7628C15.9623 40.6221 16.0915 40.5342 16.175 40.4868C16.4141 40.3017 16.6454 40.1519 16.8922 40.0044C16.9286 39.9822 17.0245 39.9241 17.2001 39.8148C17.2334 39.8042 17.3395 39.733 17.546 39.6489C17.6411 39.5969 17.7658 39.5311 17.9313 39.4593C17.9677 39.4487 18.0629 39.3982 18.2361 39.3477C18.4342 39.2568 18.5673 39.2255 18.626 39.2002C18.7552 39.1551 18.8721 39.1207 18.9664 39.0954C19.1939 39.0234 19.371 38.9952 19.474 38.9776C19.474 38.9776 19.5513 38.9509 19.7339 38.9088C19.987 38.8567 20.1718 38.8384 20.3366 38.8208C20.3366 38.8269 20.3853 38.807 20.5532 38.797C20.8721 38.755 21.1544 38.7489 21.4059 38.7489C21.655 38.7489 21.9273 38.7519 22.2314 38.7924C22.3205 38.797 22.3869 38.8077 22.4272 38.8077C22.4597 38.8214 22.4597 38.8168 22.5223 38.8253C22.6585 38.839 22.8349 38.8566 23.1134 38.9162C23.231 38.946 23.3123 38.9651 23.3238 38.9698C23.4376 38.9904 23.6024 39.0164 23.8306 39.0951C23.9551 39.1203 24.0797 39.1547 24.2011 39.2029C24.2816 39.2342 24.4069 39.2748 24.5687 39.3359C24.756 39.3986 24.8588 39.4537 24.9067 39.469C25.0645 39.5393 25.1968 39.6051 25.3029 39.6585C25.4761 39.7365 25.5775 39.8007 25.6239 39.826C25.7733 39.9093 25.8607 39.9621 25.8731 39.9682L25.9466 40.0057L26.0163 40.0492C26.1958 40.1685 26.4132 40.3076 26.6469 40.488C26.7397 40.5416 26.8497 40.6242 26.9695 40.7312C27.0221 40.7762 27.1281 40.8611 27.2898 41.0147H27.2937C27.3261 41.043 27.3841 41.0896 27.4624 41.1669C27.58 41.2785 27.6859 41.3924 27.7896 41.5025C27.826 41.5354 27.8887 41.5934 27.9691 41.6921C28.1014 41.8472 28.1934 41.9681 28.2561 42.0369L28.2894 42.0591L28.3512 42.1456L28.4248 42.2251L28.4395 42.2595C28.5718 42.4475 28.6669 42.5966 28.7327 42.6898L28.8797 42.897L28.8944 42.9703C29.1667 43.4123 29.3942 43.8855 29.5806 44.3739H29.6689L29.863 45.2577H46.3961V37.5502ZM56.5848 27.1697L72.047 27.1743L63.6231 15.7784H56.584V27.1697H56.5848ZM66.8269 47.365C66.8269 47.0142 66.7859 46.6479 66.7201 46.281L66.6505 45.9943C66.4965 45.3406 66.235 44.7459 65.8722 44.1755L65.7608 43.9981L65.7538 43.9759C65.7313 43.9461 65.7098 43.9148 65.6951 43.8865C65.6293 43.8239 65.5706 43.755 65.5195 43.6717C65.4228 43.5508 65.3539 43.4653 65.3028 43.4102L65.2958 43.4025C65.2919 43.3994 65.2842 43.3918 65.2772 43.3849L65.24 43.352L65.2075 43.313C65.1232 43.2159 65.042 43.131 64.9545 43.0515C64.9212 43.0217 64.8578 42.9712 64.7881 42.9024C64.7433 42.8589 64.6713 42.7991 64.5785 42.7204L64.5158 42.6875L64.4052 42.5981C64.2876 42.5026 64.1337 42.3933 63.9386 42.2709C63.8134 42.2098 63.7337 42.1547 63.6485 42.1096C63.6122 42.0889 63.5828 42.0736 63.5681 42.0645V42.0599L63.5139 42.0377L63.4481 42.0048C63.3514 41.9543 63.2563 41.9123 63.2563 41.9123C63.1782 41.8779 63.131 41.8603 63.1093 41.845L63.0173 41.8228L62.9075 41.7762C62.8626 41.7555 62.8006 41.7371 62.6499 41.6822C62.605 41.663 62.5764 41.657 62.5508 41.6524L62.4293 41.6286L62.3232 41.5835V41.5882C62.3 41.5805 62.2459 41.569 62.1275 41.5476C61.9743 41.5147 61.8854 41.4865 61.8893 41.4865C61.8157 41.4689 61.7012 41.4567 61.5875 41.4383C61.5109 41.4352 61.452 41.423 61.4188 41.4207H61.3785L61.2949 41.4085C61.1479 41.3924 60.9901 41.3833 60.7625 41.3833C60.539 41.3833 60.3656 41.3924 60.2264 41.4085L60.1382 41.4207H60.1149C60.094 41.4238 60.053 41.4314 60.0051 41.436C59.8217 41.4567 59.6817 41.4766 59.6786 41.4766C59.66 41.4796 59.5719 41.511 59.3591 41.5545C59.2129 41.5843 59.161 41.5951 59.1386 41.6065L59.0875 41.6241L59.0139 41.6433C58.9589 41.6524 58.9033 41.6715 58.9033 41.6715C58.8043 41.7075 58.7308 41.7282 58.6937 41.7404L58.679 41.7481L58.5436 41.8154L58.4144 41.8482C58.4144 41.8482 58.4144 41.8482 58.4144 41.8529C58.3889 41.8635 58.3447 41.878 58.3006 41.8979C58.286 41.9041 58.2016 41.9469 58.0979 41.9981L58.0028 42.0501L57.9401 42.0693L57.9448 42.0739C57.9448 42.0739 57.9448 42.0739 57.9401 42.0739C57.9262 42.077 57.8782 42.1021 57.8379 42.129C57.7892 42.1572 57.7088 42.2108 57.6136 42.2605C57.4109 42.3858 57.2446 42.4998 57.11 42.6038L57.0334 42.6695L56.9808 42.6978C56.871 42.7964 56.7796 42.8668 56.7169 42.9202C56.6682 42.9622 56.6287 42.9997 56.6032 43.022L56.57 43.0548C56.5251 43.0908 56.4678 43.1641 56.3309 43.3132L56.2319 43.4134L56.1955 43.4432C56.1219 43.525 56.0485 43.6183 55.9859 43.6894C55.9704 43.7146 55.9596 43.7299 55.9526 43.7399L55.9495 43.7445L55.9092 43.801C55.8318 43.9043 55.7467 44.0234 55.6338 44.1878C55.281 44.7536 55.0233 45.3483 54.8655 46.0082C54.7595 46.4532 54.6968 46.9042 54.6968 47.3652C54.7038 50.6801 57.4155 53.359 60.7618 53.3665C64.1151 53.3588 66.8192 50.6846 66.8269 47.365ZM73.2919 29.8095H55.251C54.8951 29.8095 54.5577 29.6674 54.3117 29.4165C54.0572 29.1688 53.9179 28.8386 53.9179 28.4861V15.7784H49.063V45.2534H52.3209C52.5445 44.3558 52.9074 43.5286 53.3855 42.7749L53.411 42.7267L53.4365 42.6969C53.5216 42.57 53.6238 42.4224 53.7383 42.2695C53.7716 42.219 53.7855 42.2007 53.8009 42.1861L53.8373 42.131L53.8667 42.0935C53.9773 41.9529 54.0949 41.8145 54.2342 41.6562C54.245 41.6516 54.3 41.5798 54.4098 41.4812C54.4772 41.4048 54.5723 41.2992 54.7038 41.1739C54.7332 41.1364 54.7634 41.1112 54.7843 41.089L54.8021 41.0729L54.9189 40.9667C55.0853 40.8321 55.1912 40.7488 55.1734 40.7634C55.3049 40.6334 55.4302 40.5455 55.5146 40.492C55.7544 40.31 55.9928 40.1603 56.2318 40.0127C56.2697 39.9905 56.3711 39.9218 56.552 39.8201C56.5876 39.8048 56.6951 39.7337 56.8963 39.6497C56.9883 39.5976 57.1176 39.5365 57.2932 39.4601C57.3265 39.4494 57.4177 39.399 57.5911 39.3454C57.7977 39.2574 57.9223 39.2292 57.9656 39.2032C58.1049 39.1512 58.2232 39.1214 58.3183 39.0955C58.5458 39.0236 58.7292 38.9953 58.8282 38.9777C58.8282 38.9777 58.9018 38.951 59.0858 38.9089C59.3349 38.8569 59.5299 38.8385 59.6908 38.8209C59.6908 38.8271 59.7388 38.8072 59.9151 38.7971C60.2269 38.7551 60.5101 38.749 60.7607 38.749C61.0075 38.749 61.2775 38.7551 61.5801 38.7925C61.6683 38.7971 61.7417 38.8078 61.782 38.8101C61.8114 38.8208 61.8114 38.8163 61.8733 38.8254C62.0095 38.8391 62.1898 38.8567 62.4613 38.9163C62.6044 38.9461 62.7034 38.9775 62.6701 38.9699C62.7885 38.9906 62.9571 39.0165 63.1892 39.0952C63.3176 39.1204 63.4314 39.1594 63.5443 39.2C63.6363 39.2329 63.7649 39.2749 63.9273 39.3407C64.1107 39.3987 64.2059 39.45 64.2724 39.4753C64.4186 39.5364 64.5401 39.5975 64.64 39.6503C64.8226 39.7337 64.9371 39.8009 64.9703 39.8238C65.1289 39.9102 65.2125 39.9629 65.2195 39.9644L65.2945 40.0035L65.3673 40.047C65.5475 40.1648 65.7595 40.3039 65.9963 40.4859C66.0838 40.5363 66.1944 40.6081 66.3158 40.7176C66.3785 40.7771 66.4922 40.8713 66.6462 41.0165L66.654 41.0196C66.6865 41.0479 66.7422 41.096 66.811 41.1656C66.9325 41.2765 67.0423 41.3942 67.1453 41.5043C67.1856 41.5418 67.2528 41.6076 67.3379 41.7091C67.4655 41.8643 67.5577 41.9782 67.6156 42.044L67.6227 42.0517L67.6412 42.067L67.6745 42.112L67.7804 42.2252L67.7951 42.2733C67.9313 42.4538 68.0273 42.6066 68.0961 42.7045L68.2253 42.891L68.2408 42.9475C68.5115 43.4016 68.7476 43.8749 68.9348 44.3733H69.0261L69.221 45.2525H73.2915V29.8095H73.2919ZM21.2829 18.8931C22.014 18.8931 22.6137 19.4818 22.6137 20.2119V31.1169C22.6137 31.8424 22.0149 32.4342 21.2829 32.4342C20.5417 32.4342 19.9468 31.8432 19.9468 31.1169V20.2111C19.9467 19.4809 20.5417 18.8931 21.2829 18.8931ZM27.7262 18.8931C28.4604 18.8931 29.057 19.4818 29.057 20.2156V31.116C29.057 31.8415 28.4604 32.4349 27.7262 32.4349C26.9881 32.4349 26.3885 31.8424 26.3885 31.116V20.2156C26.3884 19.4809 26.9881 18.8931 27.7262 18.8931ZM34.1733 18.8931C34.9082 18.8931 35.5033 19.4818 35.5033 20.2156V31.116C35.5033 31.8462 34.9082 32.4349 34.1733 32.4349C33.4352 32.4349 32.8394 31.8462 32.8394 31.116V20.2156C32.8403 19.4809 33.4353 18.8931 34.1733 18.8931ZM40.6166 18.8975C41.3515 18.8975 41.9505 19.4816 41.9505 20.2164V31.1168C41.9505 31.8469 41.3517 32.4341 40.6166 32.4341C39.8808 32.4341 39.2858 31.8469 39.2858 31.1168V20.2156C39.2867 19.4809 39.8816 18.8975 40.6166 18.8975Z" fill="#23336C"/>
</svg>
