<svg width="88" height="66" viewBox="0 0 88 66" fill="none" xmlns="http://www.w3.org/2000/svg">
<path d="M45.4548 66.0002C46.2833 66.0002 46.9548 65.3287 46.9548 64.5002C46.9548 63.6718 46.2833 63.0002 45.4548 63.0002C44.6264 63.0002 43.9548 63.6718 43.9548 64.5002C43.9548 65.3287 44.6264 66.0002 45.4548 66.0002Z" fill="#23336C"/>
<path d="M69.3549 45.6003H76.9548V24.9554L74.0123 17.5502H66.8215V25.2003H56.54L55.2733 15.0002H28.9697L27.703 25.2003H12.8831L8.55478 20.8475V18.8253C8.55478 16.7128 6.85345 15.0002 4.75487 15.0002C2.6563 15.0002 0.954834 16.7128 0.954834 18.8253V34.1253C0.954834 36.2379 2.65616 37.9504 4.75487 37.9504C6.85359 37.9504 8.55492 36.2379 8.55492 34.1253V32.1031L12.8794 27.7502H14.8884V58.3503H24.4593C23.5202 59.9189 23.5202 61.8817 24.4593 63.4503H2.22147V66.0002H41.4882V63.4503H33.184C34.1231 61.8817 34.1231 59.9189 33.184 58.3503H51.0592C50.12 59.9189 50.12 61.8817 51.0592 63.4503H49.0882V66.0002H76.9548V63.4503H59.784C60.7231 61.8817 60.7231 59.9189 59.784 58.3503H69.3549V45.6003ZM69.3549 39.2253H71.8883V36.6753H69.3549V34.1253H71.8883V31.5753H69.3549V29.0253H71.8883V26.4752H69.3549V20.1003H72.2974L74.4216 25.4451V43.0504H69.3549V39.2253ZM6.02151 34.1253C6.02151 34.8295 5.45445 35.4003 4.75487 35.4003C4.0553 35.4003 3.48824 34.8295 3.48824 34.1253V18.8253C3.48824 18.1211 4.0553 17.5503 4.75487 17.5503C5.45445 17.5503 6.02151 18.1211 6.02151 18.8253V34.1253ZM8.55478 28.4974V24.4531L10.5637 26.4752L8.55478 28.4974ZM31.2067 17.5503H53.0365L53.3532 20.1003H30.89L31.2067 17.5503ZM30.5733 22.6503H53.6698L54.3032 27.7503H29.9401L30.5733 22.6503ZM29.6233 30.3003H54.6198L55.2532 35.4003H28.9901L29.6233 30.3003ZM54.6389 37.9504L50.8388 45.6003H33.4043L29.6043 37.9504H54.6389ZM28.8215 63.4504C27.4223 63.4504 26.2881 62.3087 26.2881 60.9004C26.2881 59.492 27.4223 58.3504 28.8215 58.3504C30.2206 58.3504 31.3549 59.4922 31.3549 60.9004C31.3549 62.3086 30.2206 63.4504 28.8215 63.4504ZM55.4216 63.4504C54.0225 63.4504 52.8882 62.3087 52.8882 60.9004C52.8882 59.492 54.0225 58.3504 55.4216 58.3504C56.8208 58.3504 57.9549 59.4922 57.9549 60.9004C57.9549 62.3086 56.8208 63.4504 55.4216 63.4504ZM66.8216 55.8004H17.4215V53.2504H66.8216V55.8004ZM66.8216 50.7003H17.4215V27.7503H27.3864L26.2464 36.8998L31.8387 48.1504H52.4044L57.9929 36.8998L56.8567 27.7503H66.8216V50.7003Z" fill="#23336C"/>
<ellipse cx="64.4548" cy="22.5002" rx="23.5" ry="22.5" fill="#23336C" fill-opacity="0.1"/>
</svg>
