<svg width="479" height="368" viewBox="0 0 479 368" fill="none" xmlns="http://www.w3.org/2000/svg">
<path d="M450.401 244.511H478.998V224.518C478.998 214.215 474.913 204.32 467.661 197.077L384.111 113.634C381.457 110.982 377.881 109.555 374.204 109.555H328.038C320.275 109.555 313.942 115.777 313.942 123.53V242.572H297.746V132.129C297.746 131.406 297.469 130.778 297.334 130.096C296.582 125.285 294.757 120.636 291.779 116.594C272.474 90.1737 251.741 68.9575 229.576 52.3296C227.023 50.3923 224.469 48.5562 221.916 46.822C221.406 48.3523 220.69 49.8808 219.976 51.3117L137.55 209.627C137.346 210.034 137.142 210.34 136.938 210.646C140.411 211.973 143.885 213.094 147.356 214.115C175.649 222.684 205.371 226.356 236.217 226.253C247.759 226.253 258.381 219.726 263.591 209.423L276.225 184.563V242.575H56.8386V164.635C60.6048 167.81 64.3573 171.031 68.1972 173.924C68.7077 174.229 69.1178 174.636 69.6282 174.942V174.84L151.951 16.6266C152.562 15.5059 153.177 14.3827 153.994 13.2628C152.767 12.855 151.645 12.4454 150.419 12.1396C122.127 3.57154 92.4055 -0.100719 61.5588 0.00209737C50.0174 0.00209737 39.3949 6.52922 34.1866 16.8323L3.34073 77.5281C-1.97054 87.8312 -0.849263 100.275 5.99593 109.661C12.3101 118.302 18.8456 126.19 25.4772 133.739V242.577H18.3549C12.6344 242.577 8.14069 247.168 8.14069 252.778V314.799C8.14069 320.408 12.6335 325 18.3549 325H62.6826C63.6023 292.153 90.6683 265.735 123.864 265.735C157.06 265.735 184.126 292.153 185.045 325H337.231C338.151 292.153 365.217 265.735 398.412 265.735C431.608 265.735 458.674 292.153 459.593 325H465.007C472.769 325 479 318.676 479 311.025V275.629H467.765C466.436 275.629 465.212 275.221 464.087 274.505L449.584 256.45C448.562 255.634 447.95 254.41 447.95 253.083V246.963C447.949 245.634 448.969 244.511 450.401 244.511ZM434.671 210.236H342.951C340.09 210.236 337.843 207.992 337.843 205.136V138.525C337.843 135.67 340.09 133.424 342.951 133.424H367.975C369.303 133.424 370.63 133.933 371.652 134.954L438.347 201.566C441.514 204.728 439.267 210.236 434.671 210.236Z" fill="white" fill-opacity="0.05"/>
<path d="M398.5 286C376.124 286 358 304.347 358 327C358 349.55 376.124 368 398.5 368C420.876 368 439 349.55 439 327C439.001 304.347 420.876 286 398.5 286ZM398.5 344.835C388.679 344.835 380.781 336.841 380.781 326.898C380.781 317.056 388.678 308.96 398.5 308.96C408.22 308.96 416.219 317.056 416.219 326.898C416.219 336.841 408.22 344.835 398.5 344.835Z" fill="white" fill-opacity="0.05"/>
<path d="M124 286C101.346 286 83 304.347 83 327C83 349.55 101.347 368 124 368C146.653 368 165 349.55 165 327C165 304.347 146.654 286 124 286ZM124 344.835C114.159 344.835 106.062 336.841 106.062 326.898C106.062 317.056 114.159 308.96 124 308.96C133.944 308.96 141.938 317.056 141.938 326.898C141.938 336.841 133.944 344.835 124 344.835Z" fill="white" fill-opacity="0.05"/>
<path d="M95.7219 208.082C98.2493 209.354 100.945 210 103.742 210C110.495 210 116.577 206.285 119.634 200.314L202.068 42.7016C204.215 38.4794 204.585 33.6906 203.116 29.2001C201.638 24.7095 198.491 21.053 194.266 18.9176C191.739 17.646 189.043 17 186.246 17C179.493 17 173.401 20.7155 170.354 26.6861L87.9213 184.298C83.4867 193.001 86.9927 203.671 95.7219 208.082Z" fill="white" fill-opacity="0.05"/>
</svg>
