<svg width="29" height="38" viewBox="0 0 29 38" fill="none" xmlns="http://www.w3.org/2000/svg">
<path d="M24.5678 21.3009C23.3015 23.81 21.5857 26.3096 19.8312 28.5541C18.1668 30.6701 16.3872 32.697 14.5 34.626C12.6128 32.697 10.8332 30.6701 9.16883 28.5541C7.41433 26.3096 5.6985 23.81 4.43217 21.3009C3.15133 18.7658 2.41667 16.3914 2.41667 14.3548C2.41667 11.2218 3.68973 8.21714 5.95579 6.00176C8.22186 3.78639 11.2953 2.54181 14.5 2.54181C17.7047 2.54181 20.7781 3.78639 23.0442 6.00176C25.3103 8.21714 26.5833 11.2218 26.5833 14.3548C26.5833 16.3914 25.8463 18.7658 24.5678 21.3009ZM14.5 37.9809C14.5 37.9809 29 24.5471 29 14.3548C29 10.5952 27.4723 6.9896 24.753 4.33115C22.0338 1.6727 18.3456 0.179199 14.5 0.179199C10.6544 0.179199 6.96623 1.6727 4.24695 4.33115C1.52767 6.9896 5.73045e-08 10.5952 0 14.3548C0 24.5471 14.5 37.9809 14.5 37.9809Z" fill="#23336C"/>
<path d="M14.5 19.0801C13.2181 19.0801 11.9887 18.5823 11.0823 17.6961C10.1759 16.81 9.66667 15.6081 9.66667 14.3549C9.66667 13.1017 10.1759 11.8998 11.0823 11.0137C11.9887 10.1275 13.2181 9.6297 14.5 9.6297C15.7819 9.6297 17.0113 10.1275 17.9177 11.0137C18.8241 11.8998 19.3333 13.1017 19.3333 14.3549C19.3333 15.6081 18.8241 16.81 17.9177 17.6961C17.0113 18.5823 15.7819 19.0801 14.5 19.0801ZM14.5 21.4427C16.4228 21.4427 18.2669 20.696 19.6265 19.3668C20.9862 18.0375 21.75 16.2347 21.75 14.3549C21.75 12.4751 20.9862 10.6723 19.6265 9.34307C18.2669 8.01384 16.4228 7.26709 14.5 7.26709C12.5772 7.26709 10.7331 8.01384 9.37348 9.34307C8.01384 10.6723 7.25 12.4751 7.25 14.3549C7.25 16.2347 8.01384 18.0375 9.37348 19.3668C10.7331 20.696 12.5772 21.4427 14.5 21.4427Z" fill="#23336C"/>
</svg>
