<svg width="68" height="54" viewBox="0 0 68 54" fill="none" xmlns="http://www.w3.org/2000/svg">
<ellipse cx="22.5127" cy="32" rx="22.5" ry="21.5" fill="#23336C" fill-opacity="0.1"/>
<path d="M64.3458 15.192L62.9445 16.5825C69.6799 25.394 67.864 37.8974 58.8884 44.5097C55.7507 46.8212 51.9984 48.1917 48.0846 48.4554C47.6209 48.4851 47.1605 48.5 46.7034 48.5C40.951 48.5123 35.4652 46.1208 31.6169 41.9235C31.1625 41.406 31.2217 40.6247 31.7489 40.1788C32.2589 39.7473 33.0243 39.7856 33.487 40.2658C40.0781 47.4287 51.3362 47.99 58.6326 41.5195C65.7585 35.2002 66.4954 24.4716 60.2981 17.2704C59.8724 16.7787 59.903 16.0484 60.3686 15.5928L62.5663 13.4353C62.8969 13.0765 62.8685 12.5227 62.503 12.1982C62.1632 11.8965 61.646 11.8965 61.3062 12.1982L59.0228 14.4398C58.579 14.8754 57.8762 14.9239 57.3745 14.5536C54.8456 12.6915 51.8559 11.5264 48.7148 11.1787C48.0762 11.1106 47.592 10.5819 47.5906 9.95151V5.96314C47.5794 5.27995 48.1346 4.71739 48.8305 4.7064C48.8372 4.70626 48.8441 4.70626 48.8508 4.70626H50.0051C50.4978 4.70612 50.8972 4.31404 50.8972 3.8302C50.8971 3.34662 50.4978 2.95454 50.0051 2.95441H43.3918C42.8991 2.95454 42.4997 3.34662 42.4997 3.83047C42.4998 4.31404 42.8991 4.70612 43.3918 4.70626H44.5462C45.2421 4.70626 45.8063 5.26017 45.8063 5.94335V9.95165C45.8052 10.5804 45.3238 11.1084 44.6872 11.1789C40.6135 11.6367 36.8251 13.4596 33.9607 16.34C33.4722 16.8292 32.6722 16.8369 32.1739 16.3573C31.6755 15.8778 31.6677 15.0924 32.1562 14.6032C35.1589 11.591 39.0542 9.58718 43.2859 8.87776V7.18045C41.409 7.01257 40.026 5.38285 40.197 3.54019C40.3503 1.89082 41.7079 0.598913 43.392 0.5H50.0053C51.8866 0.610452 53.3204 2.19731 53.2079 4.04409C53.1071 5.69731 51.7911 7.03016 50.1111 7.18031V8.85784C52.9284 9.32589 55.6131 10.3731 57.9895 11.9309L59.5017 10.4464C60.8338 9.13727 62.9947 9.13617 64.3282 10.4439C65.6616 11.7516 65.6627 13.873 64.3307 15.1821L64.3458 15.192ZM23.0127 22.2088C23.0127 22.892 23.5769 23.4459 24.2728 23.4459H33.0234C33.7193 23.4459 34.2836 22.892 34.2836 22.2088C34.2836 21.5257 33.7193 20.9718 33.0234 20.9718H24.2779C23.5839 20.9718 23.0205 21.5226 23.0177 22.2039L23.0127 22.2088ZM37.3381 28.2064C37.3381 27.5232 36.7739 26.9693 36.078 26.9693H27.3326C26.6367 26.9693 26.0724 27.5232 26.0724 28.2064C26.0724 28.8896 26.6367 29.4435 27.3326 29.4435H36.0781C36.774 29.4435 37.3381 28.8896 37.3381 28.2064ZM24.2779 35.446H33.0234C33.7193 35.446 34.2836 34.8921 34.2836 34.2089C34.2836 33.5257 33.7193 32.9718 33.0234 32.9718H24.2779C23.582 32.9718 23.0177 33.5257 23.0177 34.2089C23.0177 34.8921 23.582 35.446 24.2779 35.446ZM53.69 23.4311L50.4589 26.603C51.5549 28.6464 50.756 31.1751 48.6746 32.2511C46.5932 33.327 44.0173 32.5427 42.9213 30.4994C41.8253 28.456 42.6243 25.9273 44.7057 24.8513C45.9478 24.2092 47.4324 24.2092 48.6746 24.8513L51.9056 21.6794C52.3983 21.1957 53.1972 21.1957 53.69 21.6794C54.1827 22.1631 54.1827 22.9474 53.69 23.4311ZM48.4275 28.5478C48.4275 27.6103 47.6533 26.8505 46.6985 26.8505C45.7437 26.8505 44.9696 27.6104 44.9696 28.5478C44.9696 29.4851 45.7437 30.2451 46.6985 30.2451C47.6524 30.2425 48.4248 29.4841 48.4275 28.5478ZM46.6985 43.2694C54.9833 43.2822 61.7101 36.6993 61.7231 28.566C61.7361 20.4328 55.0307 13.8292 46.746 13.8162C42.7585 13.8101 38.9324 15.3627 36.1134 18.1313C35.6207 18.615 35.6207 19.3993 36.1134 19.883C36.6061 20.3667 37.405 20.3667 37.8977 19.883C42.7695 15.0921 50.675 15.0855 55.555 19.8682C60.4351 24.6509 60.442 32.4118 55.5702 37.2026C50.6984 41.9934 42.7929 42.0002 37.9128 37.2175C37.9078 37.2125 37.9028 37.2076 37.8977 37.2026C37.405 36.7189 36.6061 36.7189 36.1134 37.2026C35.6207 37.6863 35.6207 38.4706 36.1134 38.9543C38.9183 41.7152 42.7265 43.2676 46.6985 43.2694Z" fill="#23336C"/>
</svg>
