<svg width="33" height="34" viewBox="0 0 33 34" fill="none" xmlns="http://www.w3.org/2000/svg">
<circle cx="16.5" cy="17.1924" r="15.75" stroke="#23336C" stroke-width="1.5"/>
<path d="M11.4 17.5864C10.3 17.5864 9.41267 17.1977 8.738 16.4204C8.06333 15.643 7.726 14.6237 7.726 13.3624C7.726 12.101 8.06333 11.0817 8.738 10.3044C9.41267 9.52705 10.3 9.13838 11.4 9.13838C12.5 9.13838 13.3873 9.52705 14.062 10.3044C14.7513 11.067 15.096 12.0864 15.096 13.3624C15.096 14.6384 14.7513 15.665 14.062 16.4424C13.3873 17.205 12.5 17.5864 11.4 17.5864ZM20.64 9.29238H22.796L12.28 24.6924H10.124L20.64 9.29238ZM11.4 16.0464C12.0013 16.0464 12.4633 15.8117 12.786 15.3424C13.1233 14.873 13.292 14.213 13.292 13.3624C13.292 12.5117 13.1233 11.8517 12.786 11.3824C12.4633 10.913 12.0013 10.6784 11.4 10.6784C10.828 10.6784 10.366 10.9204 10.014 11.4044C9.67667 11.8737 9.508 12.5264 9.508 13.3624C9.508 14.1984 9.67667 14.8584 10.014 15.3424C10.366 15.8117 10.828 16.0464 11.4 16.0464ZM21.498 24.8464C20.398 24.8464 19.5107 24.4577 18.836 23.6804C18.1613 22.903 17.824 21.8837 17.824 20.6224C17.824 19.361 18.1613 18.3417 18.836 17.5644C19.5107 16.787 20.398 16.3984 21.498 16.3984C22.598 16.3984 23.4853 16.787 24.16 17.5644C24.8493 18.3417 25.194 19.361 25.194 20.6224C25.194 21.8837 24.8493 22.903 24.16 23.6804C23.4853 24.4577 22.598 24.8464 21.498 24.8464ZM21.498 23.3064C22.0847 23.3064 22.5467 23.0717 22.884 22.6024C23.2213 22.1184 23.39 21.4584 23.39 20.6224C23.39 19.7864 23.2213 19.1337 22.884 18.6644C22.5467 18.1804 22.0847 17.9384 21.498 17.9384C20.9113 17.9384 20.4493 18.173 20.112 18.6424C19.7747 19.1117 19.606 19.7717 19.606 20.6224C19.606 21.473 19.7747 22.133 20.112 22.6024C20.4493 23.0717 20.9113 23.3064 21.498 23.3064Z" fill="#23336C"/>
</svg>
