<svg width="56" height="50" viewBox="0 0 56 50" fill="none" xmlns="http://www.w3.org/2000/svg">
<path d="M52.955 24.0002C52.955 37.254 42.2737 48.0002 29.1 48.0002C15.9264 48.0002 5.24513 37.254 5.24513 24.0002C5.24513 23.7854 5.31627 23.5703 5.38756 23.4272L3.03773 25.7913C2.82416 26.0062 2.46799 26.1495 2.18327 26.1495C1.89854 26.1495 1.54237 26.0062 1.3288 25.7913C0.830343 25.2898 0.830343 24.5017 1.3288 24.072L5.67259 19.7018C5.74373 19.6302 5.81503 19.5585 5.95746 19.4869C6.24234 19.3436 6.59835 19.272 6.95437 19.4153C7.09681 19.4869 7.31039 19.5586 7.45282 19.7019L11.7966 24.0721C12.2951 24.5736 12.2951 25.3617 11.7966 25.7915C11.583 26.0063 11.2269 26.1496 10.9421 26.1496C10.6573 26.1496 10.3013 26.0063 10.0877 25.7915L7.73785 23.4273C7.80899 23.5706 7.88029 23.7855 7.88029 24.0004C7.88029 35.8929 17.4935 45.5645 29.3141 45.5645C41.1347 45.5645 50.7479 35.8929 50.7479 24.0004C50.7479 12.1079 41.1344 2.43609 29.3138 2.43609C23.4746 2.43609 18.0628 4.72864 14.0039 8.95555C13.5054 9.45703 12.7221 9.45703 12.2949 8.95555C11.7965 8.45406 11.7965 7.66597 12.2949 7.23622C16.8523 2.5794 22.905 0.000244141 29.3849 0.000244141C42.2737 0.000244141 52.955 10.7465 52.955 24.0002ZM36.0074 15.26L20.1279 31.2361C19.6294 31.7375 19.6294 32.5256 20.1279 32.9554C20.3415 33.1703 20.6975 33.3136 20.9824 33.3136C21.2672 33.3136 21.6232 33.1703 21.8368 32.9554L37.7163 16.9793C38.2148 16.4778 38.2148 15.6897 37.7163 15.26C37.2892 14.7585 36.5058 14.7585 36.0074 15.26ZM26.3942 15.4748C28.1744 17.2659 28.1744 20.2032 26.3942 21.9943C25.4684 22.9257 24.3291 23.3555 23.1897 23.3555C22.0504 23.3555 20.8399 22.9255 19.9853 21.9943C18.2051 20.2032 18.2051 17.2659 19.9853 15.4748C21.6944 13.6838 24.614 13.6838 26.3942 15.4748ZM24.614 17.1943C24.1867 16.7644 23.6882 16.5495 23.1186 16.5495C22.5489 16.5495 22.0504 16.7644 21.6232 17.1943C20.7688 18.054 20.7688 19.3436 21.6232 20.2032C22.4777 21.0629 23.7595 21.0629 24.614 20.2032C25.4684 19.4152 25.4684 18.054 24.614 17.1943ZM35.0816 24.7166C36.2921 24.7166 37.4315 25.2181 38.2861 26.0778C40.0663 27.8688 40.0663 30.8062 38.2861 32.5972C37.4316 33.4569 36.2923 33.9584 35.0816 33.9584C33.8711 33.9584 32.7318 33.4569 31.8772 32.5972C30.0969 30.8062 30.0969 27.8688 31.8772 26.0778C32.7318 25.1465 33.8711 24.7166 35.0816 24.7166ZM36.577 27.7972C36.1497 27.3673 35.6512 27.1525 35.0816 27.1525C34.5119 27.1525 34.0134 27.3673 33.5863 27.7972C32.7318 28.6569 32.7318 29.9465 33.5863 30.8061C34.0136 31.2361 34.512 31.4509 35.0816 31.4509C35.6512 31.4509 36.1498 31.2361 36.577 30.8061C37.4315 29.9465 37.4315 28.5853 36.577 27.7972Z" fill="#23336C"/>
<ellipse cx="34.455" cy="29.0002" rx="21.5" ry="21" fill="#23336C" fill-opacity="0.1"/>
</svg>
