<svg width="73" height="64" viewBox="0 0 73 64" fill="none" xmlns="http://www.w3.org/2000/svg">
<ellipse cx="24.4547" cy="37.5002" rx="23.5" ry="22.5" fill="#23336C" fill-opacity="0.1"/>
<path d="M19.2184 64.0002C18.4862 64.0002 17.9547 63.4117 17.9547 62.6007V56.5893C17.9547 55.8636 18.4744 55.3567 19.2184 55.3567H39.0524C34.8903 53.4077 31.4807 50.2753 29.3255 46.3826C29.3022 46.3551 29.2824 46.3272 29.2655 46.2997H20.16C19.416 46.2997 18.8963 45.7928 18.8963 45.0671V40.5585C18.8963 39.8328 19.416 39.326 20.16 39.326H40.7896C41.5336 39.326 42.0532 39.8328 42.0532 40.5585V45.0671C42.0532 45.7928 41.5336 46.2997 40.7896 46.2997H32.1888C35.7848 51.7758 41.8271 55.0228 48.4936 55.0228C53.6425 55.0228 58.4992 53.0516 62.1689 49.4721C65.8387 45.8927 67.8595 41.1556 67.8595 36.1333C67.8595 28.8002 63.4882 22.1213 56.6936 19.0216C55.7106 20.4245 54.1112 21.2514 52.3456 21.2514C51.2045 21.2514 50.1956 20.8008 49.4808 20.3592L36.6951 32.1728C36.4454 32.4167 36.1634 32.5332 35.8145 32.5332C35.4657 32.5332 35.1837 32.4167 34.9271 32.1663L34.6095 31.8566L30.9703 35.3355C30.7206 35.5794 30.4385 35.6959 30.0896 35.6959C29.7408 35.6959 29.4587 35.5793 29.2021 35.3289L25.5147 31.5653C25.2786 31.3351 25.1452 31.0277 25.1452 30.7062C25.1452 30.3847 25.2788 30.0773 25.5213 29.8407L29.1691 26.3537L28.6699 25.8128C28.4325 25.5773 28.3018 25.2732 28.3018 24.9553C28.3018 24.6338 28.4355 24.3263 28.6781 24.0897L53.3479 1.19568C53.598 0.951627 53.88 0.835071 54.2287 0.835071C54.5775 0.835071 54.8596 0.951767 55.1162 1.20213L55.1704 1.25487L55.4814 0.951486C56.1193 0.329153 56.9591 0.000244141 57.9095 0.000244141C58.8722 0.000244141 59.7621 0.382873 60.3524 1.05023L61.7158 2.46321C62.3537 3.08512 62.7002 3.93061 62.6831 4.83528C62.6661 5.73477 62.2776 6.59484 61.6167 7.19641L61.3107 7.49489L61.3649 7.54777C61.8625 8.03306 61.8625 8.79355 61.3649 9.27899L56.9039 13.4722C57.3875 14.2027 57.6322 15.0829 57.6322 16.0948C57.6322 16.3313 57.6322 16.5452 57.5993 16.7818C61.3774 18.505 64.5612 21.1855 66.821 24.5498C69.1537 28.0225 70.3866 32.0569 70.3866 36.2167C70.3866 40.6613 69.003 44.927 66.3853 48.5523C64.2164 51.5561 61.3435 53.9388 57.9995 55.5236H71.691C72.435 55.5236 72.9547 56.0305 72.9547 56.7562V62.7676C72.9547 63.4933 72.435 64.0002 71.691 64.0002H19.2184ZM70.4534 61.411V57.8323H20.6513V61.411H70.4534ZM39.3931 43.8178V41.8776H21.5622V43.8178H39.3931ZM30.171 32.6721L32.8362 30.1171L30.9205 28.1841L28.2552 30.739L30.171 32.6721ZM35.829 29.6534L58.7882 8.4826L54.2997 3.88208L31.3407 25.0528L35.829 29.6534ZM51.3198 18.6744C51.641 18.8031 51.9884 18.87 52.3455 18.87C53.1434 18.87 53.8689 18.5779 54.3884 18.0476C54.8854 17.5403 55.1401 16.8532 55.1054 16.1129L55.105 16.0948C55.105 15.8439 55.0519 15.573 54.9436 15.2757L51.3198 18.6744ZM59.7148 5.92314L60.0292 5.61639L60.0411 5.60643C60.2365 5.44289 60.3496 5.2217 60.3589 4.98354C60.368 4.74972 60.2751 4.5197 60.1038 4.35265L58.7255 2.92466C58.541 2.74471 58.2968 2.63222 58.0809 2.63222C57.7967 2.63222 57.5858 2.70081 57.4361 2.84163L57.0915 3.2258L59.7148 5.92314Z" fill="#23336C"/>
</svg>
