<svg width="91" height="72" viewBox="0 0 91 72" fill="none" xmlns="http://www.w3.org/2000/svg">
<circle cx="59.4995" cy="31.5" r="31.5" fill="#23336C" fill-opacity="0.1"/>
<path d="M30.7512 72C26.3021 72 22.2959 65.896 19.9932 55.6415C18.4177 56.1836 16.7756 56.6816 15.1048 57.1239C12.3018 57.8052 10.0013 58.1352 8.0633 58.1352C4.62166 58.1352 2.13132 57.0958 0.861496 55.1296C-0.824088 52.3966 0.0658156 48.3585 3.42867 43.435C3.2806 43.096 3.13299 42.6441 3.13299 42.117C3.13299 40.4299 4.49658 39.0574 6.17264 39.0574C6.47527 39.0574 6.72451 39.111 6.94457 39.176C7.96863 38.0749 9.07208 36.9621 10.2316 35.8604C8.16993 33.8567 6.49493 32.0466 5.11909 30.3359C0.370718 24.4321 -1.14094 19.4885 0.862403 16.4159C2.10969 14.4428 4.62876 13.3971 8.14407 13.3971C10.1854 13.3971 12.5565 13.7421 15.1921 14.4223C17.0367 14.9108 18.6343 15.4112 20.1777 15.9843C21.2582 11.266 22.7345 7.33603 24.4579 4.59587C26.3491 1.58914 28.5563 0 30.8411 0C33.4076 0 35.8268 1.94126 37.848 5.61841H37.8636C39.5396 5.61841 40.9034 6.99093 40.9034 8.67796C40.9034 9.47839 40.5929 10.2529 40.0617 10.8043C40.1079 10.9582 40.1544 11.1134 40.2015 11.2698C40.6378 12.7209 41.1274 14.349 41.5097 16.0753C46.2759 14.3236 50.5486 13.3994 53.8924 13.3994C57.4292 13.3994 59.9509 14.4449 61.1847 16.423C62.4925 18.4916 62.223 21.4642 60.4037 25.0173C58.7184 28.3087 55.7529 32.021 51.8144 35.7732C53.1111 37.0058 54.1757 38.1066 55.0547 39.1232C55.0671 39.1209 55.0794 39.1188 55.0915 39.1165C55.2342 39.0902 55.4121 39.0573 55.5998 39.0573C57.2759 39.0573 58.6396 40.4298 58.6396 42.1168C58.6396 42.4866 58.5433 42.8882 58.3463 43.3385C61.8644 48.2615 62.8396 52.4434 61.0903 55.1308C59.8663 57.1211 57.4416 58.1351 53.8894 58.1351C51.9514 58.1351 49.651 57.805 46.8565 57.1261C45.3503 56.747 43.7145 56.2313 41.5988 55.4672C40.5164 60.3264 39.0198 64.3861 37.26 67.2314C35.3301 70.351 33.0797 72 30.7512 72ZM22.5144 54.613C24.4955 63.5633 27.7493 69.3245 30.8411 69.3245C33.928 69.3245 37.1818 63.495 39.1676 54.4375C36.5417 53.3961 33.8052 52.1011 31.0235 50.5841C28.5471 51.9645 25.8995 53.2181 22.5144 54.613ZM5.53198 45.0707C2.90628 48.8661 1.99293 51.9905 3.02591 53.6703C3.77471 54.8004 5.50249 55.4042 8.01475 55.4042C9.83071 55.4042 11.993 55.0918 14.4414 54.4756C16.2994 53.9834 17.9059 53.478 19.4599 52.896C18.8802 49.7253 18.451 46.2102 18.1832 42.4373C15.8427 40.7094 13.8539 39.1025 12.1202 37.5377C10.8359 38.7566 9.78367 39.8422 8.91766 40.8417C9.07465 41.2491 9.21228 41.6702 9.21228 42.1167C9.21228 43.8037 7.84869 45.1762 6.17264 45.1762C5.94955 45.1764 5.73419 45.1298 5.53198 45.0707ZM42.1337 52.634C43.8732 53.3325 45.7248 53.9358 47.511 54.385C49.9594 55.0012 52.1219 55.3136 53.9378 55.3136C56.4499 55.3136 58.1776 54.7099 58.9342 53.5675C60.031 51.9114 59.1455 48.7885 56.5062 44.9742C56.2184 45.0483 55.9446 45.0856 55.6898 45.0856C54.0137 45.0856 52.65 43.7131 52.65 42.0261C52.65 41.5555 52.7602 41.118 53.0027 40.6409C52.5273 40.1331 52.0175 39.6198 51.4818 39.0806C50.9437 38.5391 50.39 37.9818 49.8147 37.3737C47.8271 39.1772 45.6445 40.9405 43.3184 42.6216C43.015 46.8348 42.6466 49.9508 42.1337 52.634ZM21.0864 44.5432C21.3299 47.1965 21.6354 49.681 21.9967 51.9485C23.9672 51.1883 26.0616 50.2263 28.2386 49.0816C27.3066 48.5396 26.4051 47.9765 25.4612 47.3868C25.0237 47.1135 24.5829 46.8381 24.1356 46.5629C23.1322 45.9139 22.1071 45.2507 21.0864 44.5432ZM33.8161 48.9885C35.6423 49.9341 37.6759 50.9488 39.6924 51.7622C40.0484 49.6608 40.3521 47.2835 40.598 44.6764C40.2722 44.8923 39.9507 45.1126 39.6352 45.3284C39.0802 45.7084 38.5062 46.1012 37.915 46.4676C36.6574 47.311 35.3704 48.1032 33.8161 48.9885ZM20.9049 41.1536C21.4524 41.5233 22.0064 41.9066 22.5439 42.2785C23.5553 42.9781 24.6011 43.7017 25.6681 44.38C27.48 45.5091 29.3272 46.5748 31.1193 47.6057C32.9308 46.6378 34.7733 45.4897 36.5573 44.3779C37.7143 43.6242 38.8807 42.8118 40.0085 42.0262C40.2974 41.825 40.5835 41.6257 40.8663 41.4296L40.8672 41.4127C40.9539 39.5844 41.0357 37.8575 41.0357 35.9548C41.0357 33.9494 40.9507 31.9974 40.8654 30.107C39.4822 29.0742 37.9927 28.1041 36.5505 27.1648C34.7404 26.0369 32.8938 24.9717 31.1025 23.9413C29.0819 25.0141 27.3053 26.0686 25.6769 27.1611C23.9202 28.2779 22.357 29.3339 20.8964 30.3903C20.7508 32.0408 20.7292 33.7901 20.8256 36.0265L20.8259 36.0452C20.8263 37.7473 20.8263 39.505 20.9049 41.1536ZM43.5141 36.0566C43.5141 37.1879 43.514 38.2704 43.4707 39.3861C45.169 38.0493 46.6105 36.8571 47.8487 35.765C46.5302 34.5492 45.0444 33.3809 43.4769 32.1619C43.5424 33.3935 43.5858 34.6725 43.5141 36.0566ZM14.1851 35.7735C15.4805 36.9696 16.8581 38.0716 18.1199 39.0385C18.0783 38.0049 18.0783 37.0021 18.0783 35.9546C18.0783 34.8246 18.0783 33.6642 18.123 32.5061C16.8603 33.4736 15.4815 34.5763 14.1851 35.7735ZM7.97331 15.9966C5.55557 15.9966 3.75081 16.6511 3.02213 17.7921C1.79239 19.7726 3.29134 23.6868 7.13771 28.5262C8.5751 30.3134 10.2797 32.1274 12.207 33.9208C14.2108 32.1038 16.2491 30.4264 18.2734 28.9284C18.5352 25.2447 18.9645 21.7601 19.5501 18.5605C17.6857 17.8666 15.8497 17.3536 14.4366 16.9793C11.8469 16.3276 9.67069 15.9966 7.97331 15.9966ZM43.3179 28.653C45.6519 30.3396 47.8417 32.1093 49.8349 33.9193C53.4824 30.5006 56.2565 27.1432 57.8687 24.1925C59.3958 21.3977 59.7724 19.1241 58.9292 17.7902C58.1987 16.6505 56.4799 16.0469 53.9599 16.0469C50.8156 16.0469 46.7024 16.9769 42.0457 18.7391C42.6227 21.732 43.0504 25.0643 43.3179 28.653ZM22.066 19.6062C21.6625 21.6896 21.345 24.0847 21.0808 27.0416C21.4657 26.7839 21.8506 26.521 22.2275 26.2636C22.8494 25.8389 23.4923 25.3997 24.1271 24.9889C25.3877 24.1428 26.6487 23.406 27.8683 22.6933C27.9955 22.619 28.1223 22.5449 28.2484 22.4712C26.3715 21.4878 24.4196 20.5837 22.066 19.6062ZM33.8142 22.3806C34.742 22.9203 35.64 23.4812 36.5798 24.0684C37.0178 24.3421 37.4589 24.6177 37.907 24.8932C38.6555 25.3569 39.3668 25.8564 40.0548 26.3394C40.2065 26.446 40.355 26.5502 40.502 26.6528C40.2533 24.0917 39.9519 21.7592 39.6032 19.6997C37.7423 20.4666 35.8002 21.366 33.8142 22.3806ZM22.5171 17.016C24.9447 17.9539 27.6341 19.2171 30.9283 20.9658C33.6376 19.4875 36.3477 18.1923 38.9929 17.1114C38.5935 15.1661 38.1214 13.399 37.5554 11.7296C35.9808 11.6166 34.7338 10.2912 34.7338 8.67796C34.7338 7.999 35.0048 7.27088 35.4551 6.71036C34.0381 4.04677 32.406 2.58474 30.8411 2.58474C27.7343 2.58474 24.4821 8.23588 22.5171 17.016Z" fill="#23336C"/>
<path d="M30.8415 41.4607C27.8251 41.4607 25.3711 38.9906 25.3711 35.9544C25.3711 32.9698 27.8761 30.4482 30.8415 30.4482C33.8069 30.4482 36.312 32.9696 36.312 35.9544C36.312 38.9906 33.8578 41.4607 30.8415 41.4607ZM30.8415 33.1236C29.2908 33.1236 28.0292 34.3935 28.0292 35.9544C28.0292 37.5154 29.2908 38.7853 30.8415 38.7853C32.3923 38.7853 33.654 37.5154 33.654 35.9544C33.654 34.3935 32.3923 33.1236 30.8415 33.1236Z" fill="#23336C"/>
</svg>
