<svg width="33" height="33" viewBox="0 0 33 33" fill="none" xmlns="http://www.w3.org/2000/svg">
<circle cx="16.5" cy="16.5" r="15.75" stroke="#23336C" stroke-width="1.5"/>
<path d="M15.002 24V12.34H17.114V24H15.002ZM16.058 10.096C15.6473 10.096 15.3027 9.964 15.024 9.7C14.76 9.436 14.628 9.11333 14.628 8.732C14.628 8.336 14.76 8.006 15.024 7.742C15.3027 7.478 15.6473 7.346 16.058 7.346C16.4687 7.346 16.806 7.478 17.07 7.742C17.3487 7.99133 17.488 8.30667 17.488 8.688C17.488 9.084 17.356 9.42133 17.092 9.7C16.828 9.964 16.4833 10.096 16.058 10.096Z" fill="#23336C"/>
</svg>
