<svg width="35" height="34" viewBox="0 0 35 34" fill="none" xmlns="http://www.w3.org/2000/svg">
<mask id="mask0_19_1246" style="mask-type:alpha" maskUnits="userSpaceOnUse" x="0" y="0" width="35" height="34">
<circle cx="17.725" cy="16.8908" r="16.8908" fill="#D9D9D9"/>
</mask>
<g mask="url(#mask0_19_1246)">
<path fill-rule="evenodd" clip-rule="evenodd" d="M-0.701538 17.1837C-0.701538 6.84555 7.67917 -1.53516 18.0173 -1.53516C7.67865 -1.53516 -0.701538 6.84503 -0.701538 17.1837ZM12.9796 14.3957L25.8336 7.08486L26.9391 8.08866L12.9796 16.0582L6.22209 12.1682L6.85385 10.9129L12.9796 14.3957ZM12.9796 11.2264L23.0234 5.4844H23.0246L24.5069 6.23784L12.9796 12.8269L7.61196 9.78271L8.52684 8.68532L12.9796 11.2264ZM12.9796 17.6587L27.9184 9.12404L28.7385 10.2226L12.9796 19.2275L5.36921 14.8976L5.71668 13.5171L12.9796 17.6587ZM29.4966 11.4148L30.1915 13.172C30.6548 14.4694 30.8865 15.8277 30.8865 17.2515C30.8865 18.673 30.6548 20.0547 30.1915 21.3931L29.8757 22.2401C29.227 23.7615 28.2948 25.1456 27.1287 26.3185C25.9491 27.4769 24.5545 28.3937 23.0234 29.0175C21.4019 29.7077 19.7289 30.0529 18.0021 30.0529C16.2542 30.0529 14.58 29.7077 12.9796 29.0175C11.4663 28.3778 10.085 27.4626 8.9059 26.3185C7.72641 25.1566 6.79228 23.7698 6.15891 22.2401C5.49088 20.6607 5.14809 18.9643 5.14809 17.2504V16.4033L12.9796 20.828L29.4966 11.4148Z" fill="#D8D8D8"/>
</g>
</svg>
