<svg width="28" height="26" viewBox="0 0 28 26" fill="none" xmlns="http://www.w3.org/2000/svg">
<path d="M11.6097 3.729V8.2751H10.7004V9.18433H11.6097V10.0935H10.7004V11.0028H11.6097V12.8212H12.5189V11.0028H14.7919V10.0935H12.5189V9.18433H15.2465C16.7468 9.18433 17.9742 7.95688 17.9742 6.45666C17.9742 4.95645 16.7468 3.729 15.2465 3.729H11.6097ZM12.5189 4.63822H15.2465C16.2553 4.63822 17.065 5.44788 17.065 6.45666C17.065 7.46544 16.2553 8.2751 15.2465 8.2751H12.5189V4.63822Z" fill="#D8D8D8"/>
<path d="M3.45156 15.487V3.37064C3.45156 2.74191 3.70133 2.13893 4.14591 1.69434C4.59049 1.24976 5.19347 1 5.8222 1H21.9426C22.5713 1 23.1743 1.24976 23.6189 1.69434C24.0634 2.13893 24.3132 2.74191 24.3132 3.37064V15.487M3.45156 15.487H24.3132M3.45156 15.487L1.69729 21.691C1.59766 22.0434 1.58106 22.4142 1.64881 22.7742C1.71656 23.1342 1.8668 23.4736 2.08776 23.7658C2.30872 24.0579 2.59437 24.2949 2.92231 24.4581C3.25025 24.6213 3.61154 24.7063 3.97785 24.7064H23.7869C24.1532 24.7063 24.5145 24.6213 24.8425 24.4581C25.1704 24.2949 25.456 24.0579 25.677 23.7658C25.898 23.4736 26.0482 23.1342 26.116 22.7742C26.1837 22.4142 26.1671 22.0434 26.0675 21.691L24.3132 15.487" stroke="#D8D8D8" stroke-width="1.73148"/>
<path d="M12.697 21.1504H15.0677" stroke="#D8D8D8" stroke-width="1.73148" stroke-linecap="round" stroke-linejoin="round"/>
</svg>
