<svg width="24" height="26" viewBox="0 0 24 26" fill="none" xmlns="http://www.w3.org/2000/svg">
<path d="M10.34 7.85586H19.0884M5.09102 7.85586H6.84069M10.34 12.9978H19.0884M5.09102 12.9978H6.84069M10.34 18.1396H19.0884M5.09102 18.1396H6.84069M22.5877 21.5676V4.42793C22.5877 3.51879 22.2191 2.64688 21.5628 2.00402C20.9066 1.36116 20.0165 1 19.0884 1H5.09102C4.16294 1 3.27286 1.36116 2.61661 2.00402C1.96035 2.64688 1.59167 3.51879 1.59167 4.42793V21.5676C1.59167 22.4767 1.96035 23.3486 2.61661 23.9915C3.27286 24.6344 4.16294 24.9955 5.09102 24.9955H19.0884C20.0165 24.9955 20.9066 24.6344 21.5628 23.9915C22.2191 23.3486 22.5877 22.4767 22.5877 21.5676Z" stroke="#D8D8D8" stroke-width="1.73148" stroke-linecap="round" stroke-linejoin="round"/>
</svg>
