<svg width="30" height="24" viewBox="0 0 30 24" fill="none" xmlns="http://www.w3.org/2000/svg">
<path d="M26.2206 0H3.77383C2.77295 0 1.81306 0.39825 1.10533 1.10714C0.397599 1.81603 0 2.77749 0 3.78001V20.2155C0 21.218 0.397599 22.1795 1.10533 22.8884C1.81306 23.5973 2.77295 23.9955 3.77383 23.9955H26.2206C27.2214 23.9955 28.1813 23.5973 28.8891 22.8884C29.5968 22.1795 29.9944 21.218 29.9944 20.2155V3.78001C29.9944 2.77749 29.5968 1.81603 28.8891 1.10714C28.1813 0.39825 27.2214 0 26.2206 0ZM28.4849 15.0142H18.7937C17.993 15.0142 17.225 14.6956 16.6589 14.1285C16.0927 13.5614 15.7746 12.7922 15.7746 11.9902C15.7746 11.1882 16.0927 10.419 16.6589 9.8519C17.225 9.28479 17.993 8.96619 18.7937 8.96619H28.4849V15.0142ZM18.7937 7.45418C17.5926 7.45418 16.4407 7.93208 15.5915 8.78275C14.7422 9.63342 14.2651 10.7872 14.2651 11.9902C14.2651 13.1932 14.7422 14.347 15.5915 15.1976C16.4407 16.0483 17.5926 16.5262 18.7937 16.5262H28.4849V20.2155C28.4849 20.817 28.2463 21.3939 27.8217 21.8192C27.397 22.2446 26.8211 22.4835 26.2206 22.4835H3.77383C3.1733 22.4835 2.59737 22.2446 2.17273 21.8192C1.74809 21.3939 1.50953 20.817 1.50953 20.2155V3.78001C1.50953 3.1785 1.74809 2.60162 2.17273 2.17629C2.59737 1.75095 3.1733 1.512 3.77383 1.512H26.2206C26.8211 1.512 27.397 1.75095 27.8217 2.17629C28.2463 2.60162 28.4849 3.1785 28.4849 3.78001V7.45418H18.7937Z" fill="#D8D8D8"/>
</svg>
