<svg width="124" height="87" viewBox="0 0 124 87" fill="none" xmlns="http://www.w3.org/2000/svg">
<path d="M49.6 62.1429L81.778 43.5L49.6 24.8571V62.1429ZM121.272 13.485C122.078 16.4057 122.636 20.3207 123.008 25.2921C123.442 30.2636 123.628 34.5514 123.628 38.28L124 43.5C124 57.1093 123.008 67.1143 121.272 73.515C119.722 79.1079 116.126 82.7121 110.546 84.2657C107.632 85.0736 102.3 85.6329 94.116 86.0057C86.056 86.4407 78.678 86.6272 71.858 86.6272L62 87C36.022 87 19.84 86.0057 13.454 84.2657C7.874 82.7121 4.278 79.1079 2.728 73.515C1.922 70.5943 1.364 66.6793 0.992001 61.7079C0.558001 56.7364 0.372 52.4486 0.372 48.72L0 43.5C0 29.8907 0.992 19.8857 2.728 13.485C4.278 7.89214 7.874 4.28786 13.454 2.73429C16.368 1.92643 21.7 1.36714 29.884 0.994285C37.944 0.559285 45.322 0.372857 52.142 0.372857L62 0C87.978 0 104.16 0.994286 110.546 2.73429C116.126 4.28786 119.722 7.89214 121.272 13.485Z" fill="#23336C"/>
</svg>
