<svg width="68" height="71" viewBox="0 0 68 71" fill="none" xmlns="http://www.w3.org/2000/svg">
<circle cx="40.5005" cy="19.5" r="19.5" fill="#23336C" fill-opacity="0.1"/>
<path d="M15.8789 71C15.0364 71 14.3372 70.3154 14.3206 69.4741L13.9522 57.1139L1.50683 56.7024C0.647504 56.6734 -0.0277608 55.9518 0.000878339 55.0941C0.0141917 54.7032 0.172404 54.3344 0.446565 54.0554L18.0064 36.515C15.0531 32.8709 13.428 28.3009 13.4223 23.6005C13.4085 12.2552 22.6374 3.01392 33.9952 3H34.0209C45.3646 3 54.6047 12.2189 54.6185 23.5504C54.6242 28.2765 52.9929 32.8721 50.0163 36.5374L67.5508 54.0528C67.8454 54.3523 68.0041 54.7448 68.0003 55.1606C67.9964 55.5765 67.8306 55.9661 67.5333 56.2576C67.2542 56.5313 66.885 56.6893 66.494 56.7026L54.0482 57.1141L53.6796 69.4784C53.6633 70.2919 53.0093 70.9609 52.1908 70.9971L52.1701 70.998L52.1495 70.9969C51.7555 70.9774 51.3875 70.8126 51.1132 70.5327L34.0508 53.4893L16.9734 70.5359C16.6868 70.828 16.2993 70.994 15.8855 70.9998L15.8823 71H15.8789ZM50.7722 65.7975L51.0778 55.6248C51.0937 54.8066 51.751 54.1363 52.5741 54.1036L62.9003 53.7571L48.3797 39.2525L36.2566 51.2979L50.7722 65.7975ZM15.5132 54.0586C16.3393 54.0914 16.9966 54.7618 17.0124 55.5846L17.3178 65.7526L39.76 43.3352C37.905 43.8744 35.9899 44.1481 34.0457 44.1504H34.02C28.8612 44.1504 23.954 42.2496 20.1525 38.7884L5.21212 53.7121L15.5132 54.0586ZM21.1671 35.4015C21.2129 35.4414 21.2525 35.48 21.288 35.5188C24.6237 39.0713 29.153 41.03 34.0372 41.03C37.1208 41.03 40.1519 40.2168 42.8031 38.6783C42.9322 38.6032 43.0475 38.5341 43.1624 38.4637L43.2217 38.4267C43.3217 38.365 43.4204 38.3027 43.5187 38.239L43.6084 38.1803C43.6966 38.1223 43.785 38.0635 43.8728 38.0037L43.9793 37.93C44.061 37.8733 44.1425 37.8162 44.2233 37.7583L44.3391 37.6741C44.4168 37.6174 44.4939 37.5602 44.5706 37.502L44.6894 37.4113C44.7645 37.3534 44.8392 37.295 44.9134 37.2359L45.0334 37.1396C45.1049 37.0814 45.177 37.0219 45.2489 36.9617C45.2902 36.9272 45.3309 36.8931 45.3713 36.8586C45.4399 36.8001 45.5075 36.7412 45.5747 36.682C45.6253 36.6375 45.6664 36.6014 45.7069 36.5651C45.7664 36.5116 45.8254 36.4573 45.8843 36.403C45.8843 36.403 45.9932 36.3027 46.0316 36.2665C46.1405 36.1635 46.2484 36.0593 46.3548 35.9537C46.3933 35.9153 46.506 35.8003 46.506 35.8003C46.5748 35.7302 46.643 35.6605 46.7101 35.5896C49.7988 32.3372 51.5021 28.0769 51.5066 23.5932C51.5115 18.7865 49.5034 14.1419 45.9964 10.8504C42.7585 7.79585 38.5235 6.11404 34.0706 6.11404H34.0257C24.3971 6.11404 16.5555 13.939 16.5458 23.5572C16.5414 27.9595 18.1825 32.1648 21.1671 35.4015Z" fill="#23336C"/>
<path d="M40.1695 31.5624L34.2561 28.6024L28.4626 31.7903L29.4535 25.2579L24.6279 20.7392L31.1538 19.6618L33.9649 13.6812L37.0072 19.5479L43.57 20.3704L38.9246 25.0734L40.1695 31.5624Z" fill="#23336C"/>
</svg>
