<svg width="420" height="471" viewBox="0 0 420 471" fill="none" xmlns="http://www.w3.org/2000/svg">
<mask id="mask0" mask-type="alpha" maskUnits="userSpaceOnUse" x="0" y="0" width="421" height="471">
<path d="M10.5847 471C5.00597 471 0.956665 466.677 0.956665 460.719V416.559C0.956665 411.228 4.91613 407.504 10.5847 407.504H161.699C129.989 393.187 104.011 370.176 87.5904 341.58C87.413 341.378 87.2618 341.173 87.1336 340.971H17.7586C12.0901 340.971 8.13059 337.248 8.13059 331.917V298.796C8.13059 293.465 12.0901 289.742 17.7586 289.742H174.935C180.604 289.742 184.562 293.465 184.562 298.796V331.917C184.562 337.248 180.604 340.971 174.935 340.971H109.406C136.803 381.198 182.84 405.051 233.631 405.051C272.861 405.051 309.864 390.57 337.823 364.276C365.784 337.981 381.18 303.182 381.18 266.288C381.18 212.419 347.875 163.356 296.108 140.585C288.618 150.891 276.432 156.966 262.98 156.966C254.286 156.966 246.599 153.655 241.153 150.411L143.739 237.194C141.836 238.986 139.688 239.842 137.03 239.842C134.372 239.842 132.224 238.986 130.269 237.147L127.849 234.872L100.122 260.427C98.2199 262.219 96.0703 263.076 93.4124 263.076C90.7545 263.076 88.605 262.218 86.6504 260.379L58.5562 232.732C56.7573 231.041 55.7405 228.782 55.7405 226.421C55.7405 224.059 56.7584 221.801 58.6066 220.062L86.3984 194.447L82.5956 190.474C80.7868 188.744 79.7909 186.51 79.7909 184.174C79.7909 181.813 80.8098 179.554 82.6581 177.816L270.616 9.63522C272.522 7.84241 274.67 6.98618 277.327 6.98618C279.985 6.98618 282.134 7.84344 284.089 9.68262L284.502 10.07L286.872 7.84138C291.732 3.2697 298.13 0.853516 305.371 0.853516C312.706 0.853516 319.486 3.66432 323.984 8.56674L334.371 18.9465C339.231 23.5151 341.871 29.7261 341.741 36.3719C341.612 42.9795 338.651 49.2977 333.616 53.7169L331.285 55.9094L331.698 56.2979C335.488 59.8629 335.488 65.4495 331.698 69.0155L297.709 99.819C301.394 105.185 303.258 111.652 303.258 119.085C303.258 120.822 303.258 122.393 303.008 124.131C331.793 136.79 356.051 156.481 373.268 181.195C391.04 206.706 400.434 236.343 400.434 266.901C400.434 299.551 389.892 330.887 369.948 357.519C353.423 379.585 331.535 397.088 306.057 408.73H410.372C416.041 408.73 420 412.454 420 417.785V461.945C420 467.276 416.041 471 410.372 471H10.5847ZM400.942 451.98V425.69H21.5023V451.98H400.942ZM164.295 322.739V308.486H28.4417V322.739H164.295ZM94.0325 240.862L114.338 222.093L99.7427 207.893L79.436 226.662L94.0325 240.862ZM137.141 218.687L312.066 63.1652L277.868 29.3696L102.944 184.89L137.141 218.687ZM255.164 138.035C257.612 138.98 260.259 139.471 262.979 139.471C269.059 139.471 274.586 137.326 278.544 133.43C282.33 129.703 284.271 124.656 284.007 119.217L284.003 119.085C284.003 117.241 283.599 115.252 282.774 113.067L255.164 138.035ZM319.126 44.3633L321.521 42.1099L321.612 42.0368C323.101 40.8354 323.962 39.2105 324.033 37.461C324.102 35.7434 323.394 34.0536 322.089 32.8264L311.588 22.3364C310.183 21.0145 308.322 20.1881 306.677 20.1881C304.512 20.1881 302.905 20.6919 301.764 21.7264L299.139 24.5486L319.126 44.3633Z" fill="white"/>
</mask>
<g mask="url(#mask0)">
<rect x="-120" y="231" width="360" height="199.998" fill="white"/>
</g>
</svg>
