<svg width="242" height="251" viewBox="0 0 242 251" fill="none" xmlns="http://www.w3.org/2000/svg">
<mask id="mask0" mask-type="alpha" maskUnits="userSpaceOnUse" x="0" y="0" width="242" height="251">
<path d="M233.822 133.797C207.894 132.914 196.324 122.835 193.392 119.782V38.0792C193.392 31.1782 187.99 25.5839 181.326 25.5839H169.261V13.0886C169.261 6.18754 163.859 0.593262 157.196 0.593262H44.5867C44.502 0.593262 44.4297 0.638906 44.3495 0.643009C43.989 0.665062 43.6329 0.737888 43.2917 0.859949C43.1669 0.905594 43.0421 0.93893 42.9218 0.997396C42.484 1.19998 42.0849 1.48205 41.7432 1.83028L1.52577 43.4812C1.18952 43.8351 0.917154 44.2484 0.721546 44.7018C0.665092 44.827 0.632904 44.9603 0.58883 45.089C0.473446 45.4373 0.403127 45.8004 0.379852 46.1676C0.391242 46.243 0.347168 46.3219 0.347168 46.4096V213.014C0.347168 219.915 5.74891 225.509 12.4124 225.509H24.4777V238.004C24.4777 244.906 29.8795 250.5 36.543 250.5H189.37C189.815 250.499 190.257 250.42 190.677 250.266C190.77 250.237 190.842 250.171 190.93 250.133C191.253 250 191.557 249.823 191.835 249.608C191.855 249.608 191.883 249.587 191.904 249.567C197.011 246.002 241.653 213.576 241.653 175.528V142.124C241.652 137.61 238.18 133.917 233.822 133.797ZM181.326 33.9143C183.547 33.9143 185.348 35.7791 185.348 38.0792V119.778L185.159 119.97C185.03 120.099 184.889 120.24 184.732 120.386C184.575 120.532 184.507 120.603 184.382 120.72C184.105 120.978 183.799 121.253 183.449 121.552L183.256 121.711C182.906 122.007 182.512 122.319 182.094 122.64L181.639 122.981C181.261 123.26 180.835 123.547 180.433 123.839L179.955 124.168C179.355 124.564 178.716 124.968 178.02 125.38L177.707 125.547C177.1 125.897 176.448 126.251 175.769 126.605L175.057 126.968C174.397 127.297 173.702 127.622 172.978 127.947C172.777 128.034 172.576 128.126 172.386 128.213C171.453 128.63 170.468 129.009 169.43 129.388L169.262 129.455V33.9143H181.326ZM40.5646 14.8128V38.0792C40.5646 40.3794 38.764 42.2442 36.543 42.2442H14.0773L40.5646 14.8128ZM8.39085 213.014V50.5746H36.543C43.2065 50.5746 48.6083 44.9803 48.6083 38.0792V8.92365H157.196C159.417 8.92365 161.217 10.7884 161.217 13.0886V131.761L160.719 131.882C158.533 132.351 156.263 132.738 153.906 133.044C153.459 133.103 152.997 133.148 152.542 133.198C150.073 133.482 147.539 133.703 144.901 133.798C140.547 133.924 137.081 137.617 137.082 142.128V175.528C137.089 177.33 137.194 179.129 137.396 180.918C137.46 181.509 137.577 182.109 137.665 182.705C137.838 183.93 138.027 185.15 138.293 186.383C138.446 187.091 138.643 187.807 138.824 188.523C139.113 189.656 139.419 190.789 139.781 191.93C140.018 192.684 140.287 193.438 140.557 194.192C140.959 195.312 141.393 196.441 141.868 197.57C142.186 198.328 142.516 199.09 142.865 199.852C143.396 201.006 143.976 202.164 144.579 203.326C144.981 204.063 145.335 204.8 145.749 205.542C146.445 206.791 147.205 208.041 147.985 209.29C148.387 209.944 148.789 210.598 149.191 211.252C150.229 212.839 151.351 214.43 152.517 216.029C152.758 216.359 152.968 216.683 153.213 217.013L153.33 217.175H12.4124C10.1929 217.175 8.39283 215.312 8.39085 213.014ZM36.543 242.169C34.322 242.169 32.5214 240.305 32.5214 238.004V225.509H157.196C158.104 225.511 159.01 225.405 159.894 225.193C160.168 225.501 160.441 225.776 160.698 226.08C161.648 227.134 162.593 228.163 163.542 229.154C164.02 229.658 164.499 230.171 164.974 230.658C166.124 231.836 167.258 232.961 168.384 234.052C168.625 234.286 168.871 234.54 169.112 234.769C170.471 236.073 171.795 237.293 173.082 238.455L174.244 239.479C175.145 240.275 176.018 241.042 176.862 241.758C177.015 241.887 177.184 242.045 177.336 242.174L36.543 242.169ZM233.609 175.528C233.609 206.35 197.916 234.86 189.37 241.253L188.939 240.933C188.284 240.438 187.548 239.871 186.751 239.238C181.547 235.118 176.578 230.687 171.871 225.968C169.297 223.385 166.667 220.582 164.093 217.558C151.504 202.693 145.13 188.557 145.13 175.528L145.194 142.12C147.101 142.053 148.977 141.938 150.825 141.774C156.038 141.343 161.205 140.453 166.272 139.117C167.652 138.742 168.951 138.334 170.21 137.918C170.58 137.793 170.926 137.668 171.284 137.543C172.168 137.231 173.029 136.91 173.849 136.581C174.207 136.439 174.557 136.302 174.903 136.164C175.764 135.806 176.584 135.44 177.372 135.065C177.59 134.965 177.818 134.865 178.028 134.761C179.013 134.282 179.946 133.798 180.819 133.311C180.996 133.215 181.156 133.115 181.329 133.015C182.009 132.628 182.66 132.24 183.276 131.853L183.996 131.391C184.516 131.05 185.011 130.714 185.48 130.383L186.079 129.967C186.646 129.55 187.177 129.134 187.664 128.759L187.813 128.643C188.343 128.226 188.814 127.81 189.248 127.418L189.369 127.289C194.947 132.337 208.303 141.275 233.609 142.166V175.528H233.609Z" fill="white"/>
<path d="M159.964 148.998C156.064 149.636 153.188 153.111 153.175 157.199V175.526C153.175 197.368 176.71 219.968 186.825 228.673C188.314 229.952 190.472 229.952 191.961 228.673C202.063 220.017 225.566 197.497 225.566 175.526V157.199C225.562 153.104 222.683 149.62 218.778 148.982C209.143 147.478 199.871 144.098 191.45 139.023C190.171 138.223 188.57 138.223 187.292 139.023C178.871 144.104 169.599 147.489 159.964 148.998ZM217.523 157.199V175.526C217.523 192.603 198.435 211.85 189.398 220.001C180.349 211.817 161.218 192.499 161.218 175.526L161.286 157.199C171.12 155.633 180.619 152.326 189.37 147.424C198.142 152.335 207.666 155.643 217.523 157.199Z" fill="white"/>
<path d="M28.4991 79.7298H141.108C143.329 79.7298 145.13 77.865 145.13 75.5648C145.13 73.2647 143.329 71.3999 141.108 71.3999H28.4991C26.2781 71.3999 24.4775 73.2647 24.4775 75.5648C24.4775 77.865 26.2781 79.7298 28.4991 79.7298Z" fill="white"/>
<path d="M28.4991 163.031H108.934C111.155 163.031 112.956 161.166 112.956 158.866C112.956 156.566 111.155 154.701 108.934 154.701H28.4991C26.2781 154.701 24.4775 156.566 24.4775 158.866C24.4775 161.166 26.2781 163.031 28.4991 163.031Z" fill="white"/>
<path d="M141.109 92.2271H121C118.779 92.2271 116.979 94.0918 116.979 96.392C116.979 98.6922 118.779 100.557 121 100.557H141.109C143.33 100.557 145.131 98.6922 145.131 96.392C145.131 94.0918 143.33 92.2271 141.109 92.2271Z" fill="white"/>
<path d="M28.4991 100.557H100.891C103.112 100.557 104.912 98.6922 104.912 96.392C104.912 94.0918 103.112 92.2271 100.891 92.2271H28.4991C26.2781 92.2271 24.4775 94.0918 24.4775 96.392C24.4775 98.6922 26.2781 100.557 28.4991 100.557Z" fill="white"/>
<path d="M76.7601 175.526H72.7385C70.5175 175.526 68.7169 177.391 68.7169 179.691C68.7169 181.991 70.5175 183.856 72.7385 183.856H76.7601C78.9811 183.856 80.7817 181.991 80.7817 179.691C80.7817 177.391 78.9816 175.526 76.7601 175.526Z" fill="white"/>
<path d="M52.6297 183.856C54.8507 183.856 56.6513 181.991 56.6513 179.691C56.6513 177.391 54.8507 175.526 52.6297 175.526H28.4991C26.2781 175.526 24.4775 177.391 24.4775 179.691C24.4775 181.991 26.2781 183.856 28.4991 183.856H52.6297Z" fill="white"/>
<path d="M28.4991 121.382H48.6081C50.8291 121.382 52.6297 119.517 52.6297 117.217C52.6297 114.917 50.8291 113.052 48.6081 113.052H28.4991C26.2781 113.052 24.4775 114.917 24.4775 117.217C24.4775 119.517 26.2781 121.382 28.4991 121.382Z" fill="white"/>
<path d="M141.11 113.052H68.718C66.497 113.052 64.6964 114.917 64.6964 117.217C64.6964 119.517 66.497 121.382 68.718 121.382H141.11C143.331 121.382 145.131 119.517 145.131 117.217C145.131 114.917 143.331 113.052 141.11 113.052Z" fill="white"/>
<path d="M28.4991 142.206H40.5644C42.7854 142.206 44.586 140.342 44.586 138.041C44.586 135.741 42.7854 133.876 40.5644 133.876H28.4991C26.2781 133.876 24.4775 135.741 24.4775 138.041C24.4775 140.342 26.2781 142.206 28.4991 142.206Z" fill="white"/>
<path d="M60.6738 133.876C58.4528 133.876 56.6522 135.741 56.6522 138.041C56.6522 140.342 58.4528 142.206 60.6738 142.206H108.935C111.156 142.206 112.957 140.342 112.957 138.041C112.957 135.741 111.156 133.876 108.935 133.876H60.6738Z" fill="white"/>
</mask>
<g mask="url(#mask0)">
<rect x="-146" y="83.9985" width="360" height="240" fill="white"/>
</g>
</svg>
