<svg width="360" height="200" viewBox="0 0 360 200" fill="none" xmlns="http://www.w3.org/2000/svg">
<mask id="mask0" mask-type="alpha" maskUnits="userSpaceOnUse" x="0" y="0" width="360" height="200">
<rect width="360" height="200" fill="#C4C4C4"/>
</mask>
<g mask="url(#mask0)">
<path d="M256.177 14C233.848 14 214.68 27.2466 205.721 46.2139C176.074 47.5622 152.312 71.9126 152.312 101.885C152.312 118.65 159.884 133.542 171.609 143.803C144.811 147.466 119.619 156.209 98.4289 169.407C88.6838 161.894 76.8248 157.813 64.4277 157.813C60.0116 157.813 56.4375 161.387 56.4375 165.803C56.4375 176.828 59.8148 187.617 66.0493 196.832C55.3372 209.339 47.7702 223.267 43.8371 237.709H40.4588C22.8316 237.71 8.49878 252.041 8.49878 269.667C8.49878 287.449 17.511 303.678 32.601 313.095L88.3956 347.855V389.511C88.3956 393.927 91.9688 397.501 96.385 397.501H128.343C131.371 397.501 134.133 395.792 135.491 393.085L144.947 374.172C180.307 383.924 220.192 383.924 255.553 374.172L265.009 393.085C266.367 395.793 269.13 397.501 272.157 397.501H304.115C308.532 397.501 312.106 393.927 312.106 389.511V347.207C342.629 324.752 360.043 293.784 360.043 261.677C360.043 250.037 357.71 238.812 353.564 228.163C358.977 222.126 364.541 214.262 368.789 204.042C373.689 205.15 378.808 205.749 384.012 205.749C388.428 205.749 392.002 202.176 392.002 197.76C392 193.345 388.426 189.772 384.01 189.772C380.381 189.772 376.895 189.405 373.602 188.743C375.123 181.861 376.02 174.223 376.02 165.804C376.02 152.587 365.269 141.835 352.051 141.835C338.834 141.835 328.082 152.587 328.082 165.804C328.082 178.935 338.592 191.325 353.666 198.73C351.359 204.091 348.612 208.587 345.775 212.448C326.29 180.182 288.342 155.572 242.051 146.137C248.988 140.788 254.64 133.81 258.499 125.621C288.237 124.371 312.102 99.9667 312.102 69.9274C312.103 39.0926 287.011 14 256.177 14ZM256.177 29.9787C278.202 29.9787 296.123 47.9025 296.123 69.9292C296.123 91.9559 278.202 109.876 256.177 109.876C234.151 109.876 216.228 91.955 216.228 69.9292C216.228 47.9025 234.15 29.9787 256.177 29.9787ZM256.177 45.9584C251.761 45.9584 248.187 49.5316 248.187 53.9477V85.907C248.187 90.3231 251.761 93.8973 256.177 93.8973C260.593 93.8973 264.166 90.3231 264.166 85.907V53.9468C264.166 49.5306 260.593 45.9584 256.177 45.9584ZM200.973 62.7744C200.667 65.141 200.249 67.4778 200.249 69.9264C200.249 73.9948 200.739 77.9419 201.568 81.7659C200.805 82.9912 200.249 84.3554 200.249 85.9061V117.865C200.249 122.282 203.823 125.855 208.239 125.855C212.655 125.855 216.228 122.282 216.228 117.865V108.944C223.049 115.927 231.73 120.951 241.4 123.621C234.149 134.75 221.813 141.834 208.24 141.834C186.213 141.834 168.29 123.911 168.29 101.884C168.29 82.4774 182.22 66.3038 200.973 62.7744ZM200.249 157.813C279.544 157.813 344.061 204.409 344.061 261.679C344.061 290.065 328.261 316.646 299.564 336.526C297.411 338.025 296.123 340.474 296.123 343.097V381.523H277.094L266.851 361.041C265.095 357.522 261.038 355.806 257.308 356.993C221.183 368.337 179.315 368.337 143.19 356.993C139.429 355.838 135.403 357.546 133.647 361.041L123.404 381.523H104.374V343.424C104.374 340.662 102.954 338.102 100.613 336.643L41.0584 299.534C30.6736 293.058 24.4793 281.892 24.4793 269.666C24.4793 260.857 31.6508 253.687 40.4588 253.687H50.1732C53.9963 253.687 57.2813 250.979 58.0142 247.227C61.0811 231.49 69.4518 216.119 82.2246 202.777C85.0882 199.789 85.1889 195.1 82.4587 191.987C77.9875 186.892 74.9524 181.064 73.4707 174.83C80.4464 176.46 86.899 179.971 92.1889 185.105C94.9275 187.758 99.1105 188.126 102.239 185.98C129.015 167.817 163.82 157.813 200.249 157.813ZM352.052 157.813C356.461 157.813 360.042 161.395 360.042 165.803C360.041 172.115 359.449 177.888 358.427 183.146C349.548 178.098 344.062 171.131 344.062 165.803C344.061 161.396 347.644 157.813 352.052 157.813ZM200.249 173.952C179.401 173.952 158.554 176.695 141.834 182.179C137.636 183.552 135.357 188.07 136.73 192.259C138.118 196.457 142.653 198.768 146.811 197.364C177.084 187.423 223.414 187.423 253.687 197.364C254.514 197.637 255.35 197.76 256.177 197.76C259.54 197.76 262.66 195.63 263.768 192.259C265.141 188.07 262.863 183.553 258.666 182.179C241.945 176.695 221.097 173.952 200.249 173.952ZM88.3956 221.73C79.5867 221.73 72.4161 228.901 72.4161 237.709C72.4161 246.518 79.5876 253.688 88.3956 253.688C97.2037 253.688 104.374 246.518 104.374 237.709C104.374 228.9 97.2046 221.73 88.3956 221.73Z" fill="white"/>
</g>
</svg>
