<svg width="45" height="30" viewBox="0 0 45 30" fill="none" xmlns="http://www.w3.org/2000/svg">
<path d="M44.1304 19.719H37.0366V29.2656H33.888V19.719H10.2423V29.2656H7.09369V19.719H-6.10352e-05V16.541H44.1304V19.719Z" fill="#23336C" fill-opacity="0.5"/>
<path d="M-6.10352e-05 3.29586V0.0030745C4.59127 0.00937121 8.81773 2.62054 11.0387 6.82289C14.3858 0.454312 22.0357 -1.87091 28.1254 1.62936C30.2186 2.8325 31.9411 4.63383 33.0915 6.82289C35.3126 2.62054 39.539 0.00937121 44.1304 0.0030745V3.29586C39.3646 3.3035 35.3486 7.01808 34.7592 11.9638H44.1304V15.2695H-6.10352e-05V11.9638H9.37114C8.78168 7.01808 4.76573 3.3035 -6.10352e-05 3.29586ZM22.0652 3.29586C17.2994 3.3035 13.2835 7.01808 12.694 11.9638H31.4363C30.8469 7.01808 26.831 3.3035 22.0652 3.29586Z" fill="#23336C" fill-opacity="0.5"/>
</svg>
