<svg width="41" height="34" viewBox="0 0 41 34" fill="none" xmlns="http://www.w3.org/2000/svg">
<path d="M11.6602 5.28364L11.6702 0.00341797L9.8601 -5.09332e-05L9.85016 5.28017L11.6602 5.28364Z" fill="#23336C" fill-opacity="0.5"/>
<path d="M28.0956 16.7226V11.5764H31.3916V9.41274H6.68027V9.41228H0V3.34668H7.10807V7.59583H33.7249L32.7846 5.87564H17.3087V4.0592H33.8562L36.7833 9.41281H33.2017V11.5765H36.4962V16.7227H28.0956V16.7226ZM34.6861 14.9056V13.3929H29.9058V14.9056H34.6861ZM5.29756 7.59583V5.16358H1.81005V7.59583H5.29756Z" fill="#23336C" fill-opacity="0.5"/>
<path d="M1.98169 33.9546V20.421H8.11553L8.648 10.2881L10.4556 10.3836L9.92845 20.421H12.3101L11.7824 10.3836L13.5901 10.2881L14.1226 20.421H28.5017V25.0655H40.8573V33.9546H1.98169ZM26.6916 32.1379V22.2377H16.1469V23.64H19.896V25.4571H16.1469V28.0737H19.896V29.8909H16.1469V32.1379H26.6916ZM39.0473 32.1374V26.8825H28.5017V28.0737H32.2509V29.8904H28.5017V32.1374H39.0473ZM14.3368 32.1374V22.2377H3.79174V23.64H7.54043V25.4571H3.79174V28.0737H7.54043V29.8904H3.79174V32.1374H14.3368Z" fill="#23336C" fill-opacity="0.5"/>
</svg>
