<svg width="39" height="30" viewBox="0 0 39 30" fill="none" xmlns="http://www.w3.org/2000/svg">
<path d="M38.0398 21.7686C37.6618 21.452 37.1885 21.2383 36.6563 21.1121V19.5999C36.6563 11.5273 31.1242 4.52906 23.4097 2.71208C22.7962 1.10455 21.252 0 19.5001 0C17.7481 0 16.2044 1.10455 15.5915 2.71268C7.87697 4.52906 2.34367 11.5273 2.34367 19.5999V21.1121C1.81209 21.2383 1.33877 21.4514 0.960786 21.7686C0.350294 22.2804 0 23.0195 0 23.7944C0 25.2043 1.19448 26.7029 3.4081 26.7029C5.78826 26.7029 7.86589 27.4016 10.0659 28.1407C12.6591 29.0126 15.598 30 19.5001 30C23.4021 30 26.3416 29.0126 28.9343 28.1407C31.1337 27.4016 33.2119 26.7029 35.592 26.7029C37.8056 26.7029 39.0001 25.2043 39.0001 23.7944C39.0006 23.0195 38.6503 22.2804 38.0398 21.7686ZM23.6328 4.99445C24.2604 5.17541 24.8643 5.40686 25.4537 5.664V11.1934C25.4537 11.7005 25.0451 12.1129 24.5429 12.1129C24.0407 12.1129 23.6328 11.7005 23.6328 11.1934V4.99445ZM13.5487 5.664C14.1375 5.40686 14.7408 5.17541 15.369 4.99445V11.1934C15.369 11.7005 14.9605 12.1129 14.4589 12.1129C13.9573 12.1129 13.5493 11.7005 13.5493 11.1934V5.664H13.5487ZM4.47302 19.5999C4.47302 14.296 7.20644 9.53181 11.4199 6.80553V11.1935C11.4199 12.8873 12.7828 14.2656 14.4588 14.2656C16.1348 14.2656 17.4983 12.8878 17.4983 11.1935V3.77023C17.712 2.82935 18.5409 2.1526 19.501 2.1526C20.4612 2.1526 21.2896 2.82925 21.5044 3.76843V11.194C21.5044 12.8878 22.8673 14.2661 24.5427 14.2661C26.2188 14.2661 27.5816 12.8883 27.5816 11.194V6.80543C31.7951 9.53181 34.5285 14.2959 34.5285 19.6004V21.1037C32.0471 21.4002 25.0707 22.1696 19.5004 22.1696C13.9306 22.1696 6.95425 21.4001 4.47282 21.1037V19.5999H4.47302ZM35.5925 24.5515C32.8673 24.5515 30.6308 25.3031 28.2636 26.0988C25.7045 26.9588 23.0582 27.8485 19.5007 27.8485C15.9431 27.8485 13.2967 26.9588 10.7383 26.0988C8.37046 25.3031 6.1339 24.5515 3.40879 24.5515C2.56866 24.5515 2.12955 24.1705 2.12955 23.795C2.12955 23.6564 2.19374 23.532 2.32092 23.4248C2.5376 23.2427 2.90728 23.1421 3.36122 23.1356C4.29491 23.2547 12.8543 24.3217 19.5014 24.3217C26.1492 24.3217 34.7074 23.2547 35.6417 23.1356C36.095 23.1427 36.4641 23.2433 36.6814 23.4248C36.8086 23.532 36.8727 23.6564 36.8727 23.795C36.8718 24.1705 36.4326 24.5515 35.5925 24.5515Z" fill="#23336C" fill-opacity="0.5"/>
</svg>
