<svg width="263" height="190" viewBox="0 0 263 190" fill="none" xmlns="http://www.w3.org/2000/svg">
<mask id="mask0" mask-type="alpha" maskUnits="userSpaceOnUse" x="0" y="0" width="263" height="190">
<rect x="0.5" width="262.5" height="190" fill="#C4C4C4"/>
</mask>
<g mask="url(#mask0)">
<path d="M359.888 90.9375L316.734 81.509L363.64 64.5377L359.888 90.9375ZM386.531 52.0925L343.377 32.8581L296.24 54.8506L303.6 62.6521L336.523 47.5028L348.533 53.4487L307.864 68.9576L310.715 72.9255L354.682 55.947L374.899 64.1608L386.531 52.0925ZM478.67 196.367C480.723 196.764 483.02 196.717 485.345 196.283C485.762 196.205 486.171 196.128 486.576 196.053C486.248 194.322 485.786 192.863 486.286 192.066C486.046 191.838 485.821 191.625 485.584 191.4L471.304 183.539L478.67 196.367ZM416.722 209.812L388.576 209.739L484.64 318.63L460.807 323.479L434.455 293.621C442.014 289.428 433.705 287.362 432.265 284.375L433.643 292.7L410.201 266.139C410.289 266.182 410.376 266.225 410.465 266.268L404.904 251.252C404.396 253.542 403.888 255.838 403.33 258.355L337.984 184.316L335.142 205.197C332.943 202.832 330.329 201.201 325.638 203.248L334.775 207.887L334.183 212.237L437.119 328.55L413.432 333.546L330.509 239.68L326.726 267.637L389.453 338.469L365.912 343.391L323.217 295.117L319.598 323.002L327.216 331.693L319.003 336.356C321.318 336.581 323.633 336.819 325.949 337.031C328.563 337.27 330.23 337.02 331.091 336.114L341.786 348.314L318.537 353.457L293.68 358.747L308.522 246.622L289.988 225.626L271.638 364L179.193 259.409L188.161 191.572C190.321 193.481 192.866 195.731 195.421 197.988L188.78 186.887L201.125 93.4988L312.086 218.794L315.759 191.131L297.226 170.135L300.954 142.416L314.882 158.52L399.687 158.305L395.885 154.191H375.104L369.182 137.402H380.148L382.287 143.904H415.624L416.934 140.967L380.759 69.11L391.561 54.5974L369.301 -16.426C370.451 -16.1355 371.601 -15.8457 372.747 -15.5564L368.877 -17.7792L367.751 -21.3709L362.62 -21.3733L361.613 -21.9519C357.979 -29.3609 350.827 -32.3981 342.99 -34.5855L342.429 -50.0938C331.912 -46.0388 337.844 -36.3937 333.014 -30.4057C333.692 -29.6652 334.369 -28.9246 335.047 -28.1841C337.762 -28.4445 340.478 -28.705 343.194 -28.9654L343.062 -32.6081L361.613 -21.9519C361.705 -21.7634 361.791 -21.5672 361.88 -21.3733L268.933 -21.4166L305.78 20.5749H193.267L282.367 121.366L278.621 149.195L186.358 44.5466L178.049 107.788C175.251 105.149 172.425 102.485 169.53 99.7556L168.26 109.766C169.402 110.154 170.544 110.543 171.683 110.93L177.481 112.113L160.843 238.761L105.5 174.764L133.281 -36.1866L395.482 -89L386.163 -21.491L534.5 -21.2707L492.974 296.146L416.722 209.812ZM207.139 -29.8764C210.261 -27.4891 213.383 -25.1019 217.222 -22.1667C221.375 -25.924 224.673 -28.9066 227.969 -31.8886L222.161 -29.8236C217.572 -30.5269 212.984 -31.2303 208.395 -31.9336C207.977 -31.2477 207.557 -30.5617 207.139 -29.8764ZM167.935 23.7699L149.511 2.60856L127.359 169.033L145.892 189.973L167.935 23.7699ZM259.284 -0.366829L240.75 -21.3721H156.207L174.624 -0.366829H259.284ZM276.94 -34.5909C275.852 -35.4593 274.859 -36.2527 273.865 -37.046L273.362 -31.8316C274.372 -32.6099 275.381 -33.3889 276.94 -34.5909ZM324.256 -30.4909C320.382 -34.3077 316.949 -37.6905 313.515 -41.0728L319.454 -29.967C320.903 -30.1249 322.351 -30.2827 324.256 -30.4909ZM328.033 -47.5349C327.984 -48.5191 326.477 -49.4576 325.636 -50.4172L327.407 -39.7177C327.659 -42.3246 328.163 -44.94 328.033 -47.5349ZM350.384 -59.8457L328.721 -63.8395C327.636 -64.8051 326.613 -65.9687 325.665 -67.37C325.446 -67.694 322.011 -66.1217 320.075 -65.4334L328.721 -63.8395C334.679 -58.5404 342.535 -59.2486 350.384 -59.8457ZM435.168 203.458C432.667 201.475 430.584 199.824 428.5 198.172L433.05 209.143C433.828 207.054 434.606 204.965 435.168 203.458ZM499.374 99.2245L499.187 98.0963C499.12 98.4899 499.2 98.8638 499.374 99.2245L500.958 108.796C509.563 104.382 500.852 102.288 499.374 99.2245ZM510.558 83.0417C507.131 80.9161 504.166 79.0779 501.202 77.2392L512.193 94.1013C511.602 90.1075 511.012 86.1131 510.558 83.0417ZM489.182 -1.56767L502.001 16.6969C501.898 13.8686 502.036 10.9154 501.756 8.17704C503.086 7.81458 504.417 7.45151 505.748 7.08904C500.226 4.20367 494.704 1.31831 489.182 -1.56767ZM487.684 57.4989L502.574 65.0592C497.855 62.1072 496.162 53.8004 487.684 57.4989ZM485.584 191.399C477.374 183.599 470.732 177.29 464.104 170.993L471.306 183.539C469.732 191.404 473.399 195.35 478.67 196.368L482.226 202.561L469.578 195.597L476.942 208.427C478.996 208.823 481.292 208.776 483.618 208.343C484.034 208.265 484.444 208.188 484.849 208.112C484.521 206.382 484.059 204.922 484.559 204.126C484.44 204.013 484.326 203.904 484.212 203.796C487.22 201.385 487.034 198.458 486.578 196.053C488.691 195.658 490.653 195.308 492.473 195.192L503.26 201.13C500.396 195.999 496.841 194.914 492.473 195.192L485.584 191.399ZM477.317 135.977L483.071 155.703C488.32 147.365 479.872 142.396 477.317 135.977ZM463.592 147.258C463.71 147.923 463.907 148.57 464.159 149.203L463.592 147.258ZM446.149 95.5542C447.329 96.6758 448.508 97.798 450.381 99.578C451.653 96.1927 452.626 93.605 453.599 91.0179L446.149 95.5542ZM431.992 113.463C427.479 107.446 424.06 102.888 420.642 98.3297L432.027 117.366C432.047 119.576 432.073 122.37 432.102 125.583C434.6 127.791 438.486 131.226 442.372 134.661L432.027 117.366C432.013 115.713 432.001 114.387 431.992 113.463ZM415.43 20.9524C417.921 22.1772 420.682 23.5341 423.444 24.8915L417.883 9.87478C417.122 13.3129 416.36 16.7509 415.43 20.9524ZM423.542 82.8203C429.309 83.3484 430.513 81.5306 428.465 75.4076L416.596 82.1451C418.911 82.3708 421.226 82.6078 423.542 82.8203ZM234.938 163.301L215.857 141.809L201.272 252.795L219.695 273.662L234.938 163.301ZM259.622 293.265L271.511 204.687L252.786 183.388L238.412 294.824L256.652 315.397L258.931 298.416C260.261 299.656 261.999 300.442 263.96 300.821L259.622 293.265ZM400.566 188.761L392.002 180.086L362.184 179.907L370.079 188.724L400.566 188.761Z" fill="white" fill-opacity="0.3"/>
</g>
</svg>
