<svg width="361" height="341" viewBox="0 0 361 341" fill="none" xmlns="http://www.w3.org/2000/svg">
<mask id="mask0" mask-type="alpha" maskUnits="userSpaceOnUse" x="-39" y="0" width="400" height="341">
<rect x="361" width="341" height="400" transform="rotate(90 361 0)" fill="#C4C4C4"/>
</mask>
<g mask="url(#mask0)">
<path d="M186.324 517.89L202.183 424.268L230.731 526.03L186.324 517.89ZM251.666 575.692L284.02 482.07L247.026 379.808L233.903 395.775L259.386 467.2L249.384 493.256L223.297 405.026L216.622 411.211L245.182 506.596L231.365 550.456L251.666 575.692ZM8.97809 775.586C8.31082 780.041 8.3906 785.023 9.11942 790.067C9.25064 790.971 9.37989 791.86 9.50705 792.738C12.4184 792.027 14.8734 791.023 16.213 792.109C16.5966 791.588 16.9559 791.1 17.3345 790.585L30.5575 759.606L8.97809 775.586ZM-13.637 641.191L-13.5139 580.128L-196.682 788.539L-204.84 736.833L-154.613 679.662C-147.561 696.062 -144.086 678.036 -139.062 674.91L-153.065 677.9L-108.386 627.043C-108.459 627.234 -108.531 627.424 -108.604 627.615L-83.3439 615.551C-87.197 614.45 -91.0593 613.348 -95.292 612.138L29.2503 470.371L-5.87422 464.204C-1.8969 459.434 0.847823 453.764 -2.59548 443.586L-10.3997 463.408L-17.7163 462.123L-213.369 685.442L-221.774 634.054L-63.8783 454.154L-110.906 445.946L-230.053 582.03L-238.334 530.96L-157.131 438.333L-204.036 430.481L-218.656 447.009L-226.499 429.192C-226.878 434.214 -227.278 439.235 -227.634 444.26C-228.037 449.931 -227.617 453.549 -226.092 455.417L-246.613 478.618L-255.265 428.18L-264.163 374.254L-75.5559 406.452L-40.2385 366.245L-273 326.433L-97.0646 125.877L17.0448 145.331C13.8336 150.017 10.0482 155.539 6.25155 161.081L24.9257 146.675L182.015 173.458L-28.7468 414.184L17.7867 422.154L53.104 381.946L99.7304 390.035L72.6423 420.25L73.0027 604.234L79.9236 595.986L79.9236 550.901L108.166 538.055L108.166 561.845L97.2269 566.484L97.2269 638.809L102.167 641.651L223.04 563.17L247.452 586.605L366.922 538.312C366.433 540.807 365.946 543.302 365.459 545.787L369.198 537.391L375.24 534.95L375.244 523.818L376.217 521.633C388.68 513.749 393.789 498.233 397.468 481.231L423.555 480.014C416.734 457.197 400.51 470.067 390.437 459.588C389.192 461.058 387.946 462.527 386.7 463.998C387.138 469.889 387.577 475.781 388.015 481.672L394.142 481.386L376.217 521.633C375.9 521.833 375.57 522.02 375.244 522.212L375.317 320.565L304.682 400.503L304.682 156.409L135.14 349.711L88.3274 341.582L264.359 141.419L157.98 123.395C162.418 117.323 166.9 111.193 171.491 104.911L154.652 102.156C153.998 104.634 153.345 107.111 152.693 109.584L150.705 122.163L-62.3338 86.0654L45.318 -34L400.162 26.2711L489 595.112L375.442 574.894L375.071 896.708L-158.862 806.619L-13.637 641.191ZM389.547 186.504C385.531 193.278 381.516 200.05 376.578 208.379C382.899 217.39 387.916 224.543 392.932 231.695L389.458 219.094C390.641 209.139 391.824 199.185 393.008 189.229C391.854 188.321 390.7 187.412 389.547 186.504ZM299.308 101.451L334.903 61.4821L54.9584 13.423L19.734 53.6305L299.308 101.451ZM339.908 299.631L375.242 259.424L375.242 76.0078L339.908 115.963L339.908 299.631ZM397.477 337.937C398.938 335.577 400.273 333.421 401.607 331.265L392.836 330.173C394.145 332.364 395.455 334.554 397.477 337.937ZM390.581 440.588C397.001 432.183 402.691 424.734 408.381 417.286L389.699 430.169C389.965 433.313 390.23 436.454 390.581 440.588ZM419.251 448.781C420.906 448.675 422.485 445.407 424.099 443.58L406.101 447.423C410.486 447.969 414.886 449.063 419.251 448.781ZM439.959 497.271L446.677 450.275C448.301 447.92 450.259 445.701 452.616 443.644C453.161 443.168 450.516 435.717 449.358 431.516L446.677 450.275C437.763 463.201 438.955 480.244 439.959 497.271ZM-2.94879 681.21C0.386481 675.783 3.16355 671.263 5.9416 666.744L-12.5115 676.614C-8.99853 678.302 -5.48358 679.991 -2.94879 681.21ZM172.384 820.503L174.282 820.098C173.62 819.953 172.991 820.126 172.384 820.503L156.284 823.94C163.709 842.609 167.231 823.71 172.384 820.503ZM199.605 844.767C203.181 837.331 206.273 830.899 209.366 824.469L181.002 848.314C187.72 847.032 194.439 845.751 199.605 844.767ZM341.928 798.392L311.205 826.203C315.963 825.978 320.93 826.278 325.537 825.671C326.146 828.557 326.757 831.445 327.367 834.331C332.22 822.351 337.074 810.37 341.928 798.392ZM242.571 795.141L229.854 827.446C234.82 817.208 248.793 813.534 242.571 795.141ZM17.3355 790.587C30.4556 772.773 41.0691 758.364 51.6605 743.985L30.5575 759.609C17.3274 756.196 10.6902 764.151 8.97708 775.587L-1.4396 783.3L10.2733 755.86L-11.3072 771.838C-11.9745 776.293 -11.8947 781.275 -11.1659 786.32C-11.0346 787.224 -10.9054 788.112 -10.7782 788.992C-7.86691 788.28 -5.41189 787.277 -4.07232 788.362C-3.88254 788.105 -3.69983 787.857 -3.51712 787.608C0.537905 794.135 5.4621 793.732 9.50604 792.742C10.1713 797.326 10.7608 801.582 10.9557 805.531L0.965944 828.934C9.5979 822.72 11.423 815.008 10.9557 805.531L17.3355 790.587ZM110.561 772.651L77.3808 785.133C91.4063 796.521 99.7647 778.193 110.561 772.651ZM91.586 742.873C90.4665 743.13 89.3793 743.557 88.3143 744.104L91.586 742.873ZM178.558 705.033C176.671 707.593 174.783 710.151 171.789 714.213C177.484 716.974 181.837 719.084 186.188 721.195L178.558 705.033ZM148.433 674.319C158.554 664.529 166.221 657.111 173.889 649.695L141.868 674.396C138.151 674.439 133.451 674.494 128.045 674.558C124.332 679.977 118.553 688.409 112.775 696.839L141.868 674.396C144.648 674.364 146.879 674.338 148.433 674.319ZM304.047 638.387C301.987 643.793 299.704 649.783 297.421 655.774L322.681 643.71C316.898 642.058 311.114 640.406 304.047 638.387ZM199.978 655.987C199.089 668.498 202.147 671.111 212.447 666.666L201.113 640.918C200.734 645.94 200.335 650.962 199.978 655.987ZM64.5989 246.814L100.751 205.417L-85.9403 173.775L-121.042 213.744L64.5989 246.814ZM-154.016 300.366L-5.01616 326.159L30.8109 285.535L-156.637 254.349L-191.244 293.922L-162.679 298.867C-164.766 301.752 -166.088 305.521 -166.725 309.776L-154.016 300.366ZM21.7731 606.14L36.365 587.562L36.6658 522.871L21.8347 540L21.7731 606.14Z" fill="white" fill-opacity="0.06"/>
</g>
</svg>
