<svg width="748" height="904" viewBox="0 0 748 904" fill="none" xmlns="http://www.w3.org/2000/svg">
<mask id="mask0" mask-type="alpha" maskUnits="userSpaceOnUse" x="0" y="0" width="752" height="904">
<rect width="752" height="904" fill="#C4C4C4"/>
</mask>
<g mask="url(#mask0)">
<path d="M896.021 853.741L765.735 821.32L907.349 762.961L896.021 853.741ZM976.459 720.167L846.173 654.026L703.863 729.651L726.083 756.477L825.48 704.384L861.74 724.83L738.957 778.16L747.565 791.804L880.305 733.421L941.34 761.665L976.459 720.167ZM1254.64 1216.28C1260.83 1217.64 1267.77 1217.48 1274.79 1215.99C1276.05 1215.72 1277.28 1215.45 1278.51 1215.19C1277.52 1209.24 1276.12 1204.22 1277.63 1201.49C1276.9 1200.7 1276.22 1199.97 1275.51 1199.19L1232.4 1172.16L1254.64 1216.28ZM1067.61 1262.51L982.632 1262.26L1272.66 1636.69L1200.71 1653.37L1121.15 1550.7C1143.97 1536.28 1118.88 1529.17 1114.53 1518.9L1118.69 1547.53L1047.92 1456.2C1048.19 1456.34 1048.45 1456.49 1048.72 1456.64L1031.93 1405C1030.4 1412.88 1028.86 1420.78 1027.18 1429.43L829.893 1174.84L821.31 1246.64C814.672 1238.51 806.781 1232.9 792.617 1239.94L820.203 1255.89L818.415 1270.85L1129.19 1670.8L1057.68 1687.99L807.324 1365.21L795.902 1461.35L985.28 1704.91L914.209 1721.84L785.307 1555.84L774.381 1651.73L797.382 1681.61L772.587 1697.65C779.576 1698.42 786.564 1699.24 793.557 1699.97C801.447 1700.79 806.482 1699.93 809.082 1696.81L841.369 1738.76L771.179 1756.45L696.135 1774.64L740.942 1389.08L684.988 1316.89L629.586 1792.71L350.487 1433.05L377.561 1199.79C384.081 1206.35 391.767 1214.09 399.479 1221.85L379.43 1183.68L416.702 862.548L751.702 1293.39L762.793 1198.27L706.839 1126.07L718.096 1030.76L760.143 1086.13L1016.18 1085.4L1004.7 1071.25H941.96L924.082 1013.51H957.19L963.645 1035.88H1064.29L1068.25 1025.78L959.034 778.684L991.646 728.78L924.441 484.556C927.913 485.555 931.385 486.552 934.843 487.546L923.159 479.903L919.761 467.552L904.27 467.544L901.229 465.555C890.258 440.078 868.666 429.634 845.005 422.112L843.312 368.785C811.559 382.728 829.469 415.894 814.887 436.485C816.933 439.031 818.977 441.578 821.023 444.124C829.222 443.229 837.421 442.333 845.62 441.437L845.221 428.911L901.229 465.555C901.508 466.203 901.768 466.877 902.035 467.544L621.42 467.395L732.663 611.789H392.976L661.98 958.373L650.667 1054.07L372.117 694.219L347.033 911.682C338.584 902.609 330.053 893.448 321.312 884.063L317.477 918.486C320.926 919.821 324.373 921.156 327.814 922.489L345.319 926.554L295.085 1362.05L128 1141.99L211.874 416.606L1003.48 235L975.349 467.139L1423.19 467.897L1297.82 1559.38L1067.61 1262.51ZM434.858 438.305C444.284 446.514 453.709 454.723 465.299 464.816C477.839 451.896 487.793 441.64 497.746 431.386L480.211 438.486C466.357 436.068 452.505 433.649 438.65 431.231C437.387 433.59 436.121 435.948 434.858 438.305ZM316.497 622.775L260.875 550.009L193.995 1122.28L249.948 1194.29L316.497 622.775ZM592.288 539.778L536.334 467.548H281.089L336.691 539.778H592.288ZM645.595 422.093C642.31 419.107 639.31 416.379 636.31 413.651L634.791 431.582C637.839 428.905 640.888 426.227 645.595 422.093ZM788.446 436.192C776.75 423.067 766.384 411.435 756.018 399.804L773.946 437.993C778.322 437.451 782.693 436.908 788.446 436.192ZM799.848 377.584C799.7 374.199 795.152 370.972 792.61 367.672L797.957 404.464C798.718 395.5 800.239 386.507 799.848 377.584ZM867.327 335.251L801.927 321.518C798.649 318.198 795.561 314.196 792.698 309.378C792.037 308.264 781.667 313.67 775.821 316.037L801.927 321.518C819.914 339.74 843.631 337.305 867.327 335.251ZM1123.3 1240.66C1115.75 1233.84 1109.46 1228.16 1103.17 1222.48L1116.9 1260.21C1119.25 1253.02 1121.6 1245.84 1123.3 1240.66ZM1317.14 882.237L1316.58 878.357C1316.38 879.711 1316.62 880.997 1317.14 882.237L1321.93 915.149C1347.91 899.971 1321.61 892.771 1317.14 882.237ZM1350.91 826.59C1340.56 819.281 1331.61 812.96 1322.66 806.637L1355.84 864.62C1354.06 850.887 1352.28 837.151 1350.91 826.59ZM1286.37 535.649L1325.08 598.454C1324.76 588.728 1325.18 578.573 1324.33 569.157C1328.35 567.911 1332.37 566.662 1336.39 565.416C1319.71 555.494 1303.04 545.572 1286.37 535.649ZM1281.85 738.757L1326.8 764.755C1312.56 754.604 1307.44 726.04 1281.85 738.757ZM1275.51 1199.19C1250.72 1172.37 1230.67 1150.67 1210.66 1129.02L1232.4 1172.16C1227.65 1199.21 1238.72 1212.78 1254.64 1216.28L1265.37 1237.57L1227.18 1213.63L1249.42 1257.74C1255.62 1259.11 1262.55 1258.95 1269.57 1257.46C1270.83 1257.19 1272.07 1256.92 1273.29 1256.66C1272.3 1250.71 1270.9 1245.69 1272.42 1242.95C1272.06 1242.57 1271.71 1242.19 1271.37 1241.82C1280.45 1233.53 1279.89 1223.46 1278.51 1215.2C1284.89 1213.84 1290.81 1212.63 1296.31 1212.23L1328.88 1232.65C1320.23 1215.01 1309.5 1211.28 1296.31 1212.23L1275.51 1199.19ZM1250.55 1008.62L1267.92 1076.45C1283.77 1047.77 1258.26 1030.69 1250.55 1008.62ZM1209.11 1047.41C1209.47 1049.7 1210.06 1051.92 1210.82 1054.09L1209.11 1047.41ZM1156.45 869.616C1160.01 873.473 1163.58 877.332 1169.23 883.452C1173.07 871.811 1176.01 862.913 1178.94 854.017L1156.45 869.616ZM1113.71 931.198C1100.09 910.508 1089.76 894.835 1079.44 879.16L1113.82 944.619C1113.88 952.217 1113.95 961.825 1114.04 972.876C1121.58 980.466 1133.32 992.28 1145.05 1004.09L1113.82 944.619C1113.77 938.936 1113.74 934.375 1113.71 931.198ZM1063.71 613.087C1071.23 617.299 1079.57 621.964 1087.9 626.632L1071.11 574.995C1068.82 586.817 1066.52 598.64 1063.71 613.087ZM1088.2 825.829C1105.61 827.645 1109.25 821.394 1103.06 800.339L1067.23 823.507C1074.22 824.283 1081.21 825.098 1088.2 825.829ZM518.786 1102.57L461.178 1028.67L417.144 1410.31L472.766 1482.07L518.786 1102.57ZM593.31 1549.47L629.204 1244.88L572.672 1171.64L529.273 1554.83L584.343 1625.58L591.224 1567.18C595.239 1571.45 600.485 1574.15 606.405 1575.45L593.31 1549.47ZM1018.83 1190.12L992.978 1160.29L902.952 1159.68L926.79 1189.99L1018.83 1190.12Z" fill="white" fill-opacity="0.05"/>
</g>
</svg>
