<svg width="342" height="116" viewBox="0 0 342 116" fill="none" xmlns="http://www.w3.org/2000/svg">
<path d="M49.8632 114.545L5.70947 63.9727L7.96628 16.677L62.9821 15.1813L64.6746 11.2686H111.649L98.9539 103.433L49.8632 114.545Z" fill="white"/>
<path d="M130.364 67.8496H137.853V70.1313H133.226V71.1694H135.286C136.339 71.1694 137.147 71.4025 137.711 71.868C138.274 72.3342 138.556 73.0072 138.556 73.8871C138.556 74.8017 138.236 75.5194 137.594 76.0407C136.952 76.5621 136.059 76.8227 134.916 76.8227H130.363V67.8496H130.364ZM134.719 74.7078C135.007 74.7078 135.232 74.6435 135.392 74.5154C135.552 74.3874 135.632 74.2035 135.632 73.9639C135.632 73.5023 135.328 73.2718 134.719 73.2718H133.226V74.7078H134.719Z" fill="white"/>
<path d="M152.907 74.5407V76.8224H145.725V67.8486H152.746V70.1303H148.588V71.1815H152.24V73.3608H148.588V74.5401H152.907V74.5407Z" fill="white"/>
<path d="M167.616 70.1947H165.086V76.8224H162.223V70.1947H159.694V67.8486H167.616V70.1947Z" fill="white"/>
<path d="M176.512 76.425C175.771 76.0231 175.192 75.4657 174.772 74.7519C174.353 74.0382 174.143 73.2326 174.143 72.3356C174.143 71.4381 174.353 70.6331 174.772 69.9193C175.191 69.2056 175.771 68.6482 176.512 68.2463C177.253 67.8445 178.087 67.6436 179.017 67.6436C179.947 67.6436 180.782 67.8445 181.522 68.2463C182.263 68.6482 182.843 69.2056 183.262 69.9193C183.682 70.6331 183.892 71.4387 183.892 72.3356C183.892 73.2332 183.682 74.0389 183.262 74.7519C182.843 75.4657 182.263 76.0231 181.522 76.425C180.782 76.8268 179.947 77.0277 179.017 77.0277C178.087 77.0277 177.252 76.8268 176.512 76.425ZM179.998 74.3035C180.29 74.1196 180.522 73.859 180.695 73.5215C180.868 73.184 180.954 72.7887 180.954 72.3356C180.954 71.8826 180.868 71.488 180.695 71.1498C180.522 70.8123 180.29 70.5516 179.998 70.3678C179.706 70.1839 179.379 70.092 179.017 70.092C178.654 70.092 178.327 70.1839 178.035 70.3678C177.743 70.5516 177.511 70.8123 177.338 71.1498C177.165 71.4873 177.079 71.8826 177.079 72.3356C177.079 72.7887 177.165 73.184 177.338 73.5215C177.511 73.859 177.743 74.1196 178.035 74.3035C178.327 74.4873 178.654 74.5792 179.017 74.5792C179.379 74.5792 179.706 74.4873 179.998 74.3035Z" fill="white"/>
<path d="M199.624 67.8493V76.8224H196.711V73.5151H194.022V76.8224H191.109V67.8486H194.022V71.0279H196.711V67.8486H199.624V67.8493Z" fill="white"/>
<path d="M215.837 67.8493V76.8224H212.925V73.5151H210.235V76.8224H207.323V67.8486H210.235V71.0279H212.925V67.8486H215.837V67.8493Z" fill="white"/>
<path d="M230.681 71.3549C231.265 71.8546 231.557 72.5919 231.557 73.5663C231.557 74.6176 231.224 75.4232 230.558 75.9826C229.891 76.5427 228.978 76.8224 227.818 76.8224H223.537V67.8486H226.4V70.605H228.189C229.266 70.605 230.097 70.8552 230.681 71.3549ZM228.349 74.4193C228.538 74.2269 228.633 73.9596 228.633 73.6182C228.633 73.02 228.296 72.7206 227.621 72.7206H226.4V74.7075H227.621C227.917 74.7075 228.16 74.6116 228.349 74.4193ZM232.347 67.8493H235.21V76.8224H232.347V67.8493Z" fill="white"/>
<path d="M242.909 67.8495H245.772V72.516L248.746 67.8495H251.485V76.8226H248.622V72.1693L245.661 76.8226H242.909V67.8495ZM245.13 66.7852C244.711 66.4181 244.501 65.8666 244.501 65.1318H246.438C246.438 65.4227 246.494 65.6315 246.605 65.7602C246.716 65.8882 246.911 65.9526 247.191 65.9526C247.47 65.9526 247.67 65.8882 247.789 65.7602C247.908 65.6322 247.968 65.4227 247.968 65.1318H249.905C249.905 65.8666 249.691 66.4181 249.263 66.7852C248.836 67.1529 248.144 67.3367 247.191 67.3367C246.237 67.3367 245.549 67.1529 245.13 66.7852Z" fill="white"/>
<path d="M275.923 73.0152C276.182 73.3915 276.312 73.8182 276.312 74.2969C276.312 74.8609 276.121 75.3501 275.738 75.7651C275.356 76.1794 274.842 76.4959 274.196 76.7139C273.55 76.9318 272.833 77.0408 272.043 77.0408C270.784 77.0408 269.587 76.7802 268.452 76.2588L269.303 74.1695C269.707 74.3409 270.126 74.4709 270.562 74.5602C270.998 74.6502 271.409 74.6948 271.796 74.6948C272.265 74.6948 272.645 74.6265 272.937 74.4899C273.229 74.3534 273.376 74.1525 273.376 73.8872C273.376 73.528 273.092 73.3488 272.524 73.3488H270.192V71.1695H272.277C272.524 71.1695 272.711 71.1229 272.839 71.0283C272.966 70.9344 273.03 70.8018 273.03 70.6311C273.03 70.4092 272.917 70.2384 272.69 70.1183C272.464 69.9988 272.166 69.939 271.796 69.939C271.45 69.939 271.076 69.9902 270.673 70.0927C270.27 70.1951 269.887 70.3409 269.525 70.5287L268.674 68.2851C269.629 67.832 270.665 67.6055 271.783 67.6055C272.532 67.6055 273.225 67.7125 273.863 67.9259C274.5 68.1393 275.01 68.4492 275.392 68.855C275.775 69.2608 275.967 69.7375 275.967 70.2844C275.967 70.6862 275.868 71.0494 275.67 71.3737C275.473 71.6987 275.197 71.9594 274.844 72.1557C275.303 72.3527 275.664 72.639 275.923 73.0152Z" fill="white"/>
<path d="M289.612 75.2584H286.33L285.75 76.8224H282.789L286.564 67.8486H289.427L293.203 76.8224H290.192L289.612 75.2584ZM288.811 73.0791L287.971 70.823L287.133 73.0791H288.811Z" fill="white"/>
<path d="M307.923 72.9189C308.178 73.2735 308.305 73.7075 308.305 74.2203C308.305 75.024 307.999 75.6583 307.386 76.1238C306.774 76.59 305.908 76.8224 304.789 76.8224H300.174V67.8486H304.554C305.623 67.8486 306.452 68.0535 307.04 68.4639C307.628 68.8742 307.923 69.4507 307.923 70.1947C307.923 70.6221 307.826 70.9984 307.633 71.3227C307.439 71.6477 307.166 71.9123 306.812 72.1179C307.298 72.2971 307.668 72.5644 307.923 72.9189ZM303.037 71.2978H304.271C304.748 71.2978 304.987 71.0798 304.987 70.6438C304.987 70.1907 304.748 69.9642 304.271 69.9642H303.037V71.2978ZM305.369 73.9898C305.369 73.5282 305.131 73.2978 304.653 73.2978H303.037V74.7082H304.653C305.131 74.7075 305.369 74.4685 305.369 73.9898Z" fill="white"/>
<path d="M317.4 76.425C316.66 76.0231 316.08 75.4657 315.66 74.7519C315.241 74.0382 315.031 73.2326 315.031 72.3356C315.031 71.4381 315.241 70.6331 315.66 69.9193C316.08 69.2056 316.66 68.6482 317.4 68.2463C318.141 67.8445 318.976 67.6436 319.905 67.6436C320.834 67.6436 321.67 67.8445 322.41 68.2463C323.15 68.6482 323.73 69.2056 324.15 69.9193C324.569 70.6331 324.779 71.4387 324.779 72.3356C324.779 73.2332 324.569 74.0389 324.15 74.7519C323.73 75.4657 323.15 76.0231 322.41 76.425C321.669 76.8268 320.834 77.0277 319.905 77.0277C318.976 77.0277 318.141 76.8268 317.4 76.425ZM320.886 74.3035C321.178 74.1196 321.411 73.859 321.583 73.5215C321.756 73.184 321.842 72.7887 321.842 72.3356C321.842 71.8826 321.756 71.488 321.583 71.1498C321.41 70.8123 321.178 70.5516 320.886 70.3678C320.594 70.1839 320.267 70.092 319.905 70.092C319.543 70.092 319.216 70.1839 318.924 70.3678C318.632 70.5516 318.4 70.8123 318.227 71.1498C318.054 71.4873 317.968 71.8826 317.968 72.3356C317.968 72.7887 318.055 73.184 318.227 73.5215C318.4 73.859 318.632 74.1196 318.924 74.3035C319.216 74.4873 319.543 74.5792 319.905 74.5792C320.267 74.5792 320.594 74.4873 320.886 74.3035Z" fill="white"/>
<path d="M341.436 74.4764V78.5788H338.771V76.8224H333.86V78.5788H331.195V74.4764H331.442C331.944 74.4764 332.298 74.1474 332.503 73.4895C332.709 72.8316 332.841 71.8611 332.898 70.5794L332.997 67.8486H340.302V74.4764H341.436ZM335.23 73.0345C335.131 73.6372 334.979 74.1179 334.773 74.4764H337.438V70.1947H335.451L335.427 70.8355C335.394 71.6996 335.329 72.4317 335.23 73.0345Z" fill="white"/>
<path d="M62.8223 38.666L51.5083 42.779L61.9172 45.0639L62.8223 38.666Z" fill="#23336C"/>
<path d="M68.3425 35.6502L57.9343 30.9883L46.5651 36.3186L48.3401 38.2089L56.2809 34.5379L59.1781 35.9785L49.3687 39.7375L50.0566 40.6988L60.6605 36.5838L65.537 38.5747L68.3425 35.6502Z" fill="#23336C"/>
<path d="M94.0164 94.7967L104.032 17.8698L68.2539 17.8166L70.5016 1.45605L7.26088 14.2552L0.560669 65.3796L13.9091 80.8899L20.0631 33.8213L42.3165 59.1832L43.2203 52.4386L21.7289 28.011H48.8665L39.9798 17.8343L63.8138 17.8455L69.5569 36.2566L66.9516 39.7741L75.6765 57.1891L75.3605 57.9009H67.3196L66.804 56.325H64.159L65.5875 60.394H70.5998L71.5166 61.3914L51.0622 61.4433L47.7034 57.5404L46.8041 64.2581L51.2742 69.3468L50.388 76.0513L23.6249 45.6848L18.3349 85.8932L40.6319 111.241L45.0577 77.706L49.5278 82.7947L45.9485 109.968L51.9439 108.686L57.5511 107.44L52.1994 101.305L53.072 94.5472L63.3697 106.247L69.0478 105.053L53.9185 87.8873L54.8307 81.1118L74.8312 103.86L80.5445 102.65L55.717 74.4611L56.6337 67.6941L86.2577 101.421L92.006 100.245L68.8358 73.855L75.6245 73.8727L94.0164 94.7967ZM10.3031 69.0658L5.83306 63.9909L11.1757 23.6578L15.6191 28.7865L10.3031 69.0658ZM17.2328 22.9361L12.7907 17.8455H33.182L37.6521 22.9361H17.2328ZM23.66 84.2904L27.1775 57.3927L31.7796 62.6015L28.1027 89.3476L23.66 84.2904ZM37.0175 99.4619L32.6183 94.4756L36.0851 67.4689L40.6013 72.6304L37.0175 99.4619ZM64.3749 68.7624L62.4705 66.6258L69.6622 66.6692L71.7279 68.7716L64.3749 68.7624Z" fill="#23336C"/>
<path d="M164.684 58.469V23.6665L176.987 23.5371V43.2759L189.26 23.5371H204.295V58.469H192.029V38.8353L178.492 58.469H164.684Z" fill="white"/>
<path d="M327.064 58.4419C327.064 54.4465 327.064 50.5043 327.064 46.4392C321.544 46.4392 316.178 46.4392 310.669 46.4392C310.669 50.4045 310.669 54.3454 310.669 58.4235C306.486 58.4235 302.44 58.4235 298.27 58.4235C298.27 46.8838 298.27 35.3065 298.27 23.6335C302.328 23.6335 306.334 23.6335 310.562 23.6335C310.562 27.7261 310.562 31.8095 310.562 35.9796C316.115 35.9796 321.449 35.9796 327.017 35.9796C327.017 31.8909 327.017 27.8062 327.017 23.6328C331.251 23.6328 335.253 23.6328 339.36 23.6328C339.36 35.235 339.36 46.7787 339.36 58.4426C335.299 58.4419 331.26 58.4419 327.064 58.4419Z" fill="white"/>
<path d="M294.25 58.56H281.077L278.261 52.5672H261.809L259.017 58.56H245.641L261.746 23.498H278.015L294.25 58.56ZM274.822 45.0569L270.2 35.3057H269.803L265.247 45.0569H274.822Z" fill="white"/>
<path d="M133.987 33.791C129.204 33.791 124.707 33.791 120.086 33.791C120.086 30.4076 120.086 27.1167 120.086 23.6807C133.384 23.6807 146.712 23.6807 160.189 23.6807C160.189 26.944 160.189 30.271 160.189 33.7615C155.641 33.7615 151.107 33.7615 146.382 33.7615C146.382 42.0774 146.382 50.2337 146.382 58.4747C142.181 58.4747 138.172 58.4747 133.987 58.4747C133.987 50.3184 133.987 42.1594 133.987 33.791Z" fill="white"/>
<path d="M235.172 58.52C230.903 58.52 226.932 58.52 222.765 58.52C222.765 50.3263 222.765 42.17 222.765 33.8502C218.04 33.8502 213.507 33.8502 208.851 33.8502C208.851 30.3971 208.851 27.1056 208.851 23.6748C222.148 23.6748 235.481 23.6748 248.937 23.6748C248.937 26.988 248.937 30.3249 248.937 33.7773C244.353 33.7773 239.859 33.7773 235.173 33.7773C235.172 42.0459 235.172 50.2035 235.172 58.52Z" fill="white"/>
<path d="M57.8419 14.6432L57.7067 10.8848C55.1696 11.8677 56.6007 14.2052 55.4355 15.6563C55.5987 15.8355 55.7626 16.0155 55.9258 16.1947C56.5805 16.1317 57.2359 16.0686 57.8907 16.0056L57.8588 15.1225L56.3673 14.2617C56.8621 14.3851 57.3575 14.5079 57.8419 14.6432Z" fill="white"/>
<path d="M57.8423 14.6426L57.8598 15.1219L62.3345 17.7043C61.4574 15.9092 59.7324 15.1731 57.8423 14.6426Z" fill="white"/>
<path d="M95.5615 47.073L95.5161 46.7998C95.4997 46.895 95.5194 46.9856 95.5615 47.073Z" fill="#FFC82F"/>
<path d="M98.6517 45.8308C98.5093 44.863 98.3669 43.8945 98.2577 43.1506C97.4313 42.6352 96.7161 42.19 96.0009 41.7441L98.6517 45.8308Z" fill="white"/>
<path d="M79.5636 73.7113C79.7515 73.2051 79.9394 72.6988 80.0746 72.3338C79.4713 71.8531 78.9687 71.4533 78.4661 71.0527L79.5636 73.7113Z" fill="white"/>
<path d="M95.5603 47.0723L95.9426 49.392C98.018 48.3224 95.9166 47.8149 95.5603 47.0723Z" fill="white"/>
<path d="M79.3737 91.9443L79.756 94.2641C81.8314 93.1945 79.73 92.687 79.3737 91.9443Z" fill="white"/>
<path d="M52.1655 15.7637C52.5147 15.7256 52.8645 15.6869 53.3235 15.637C52.3892 14.7118 51.5609 13.8924 50.7332 13.0723L52.1655 15.7637Z" fill="white"/>
<path d="M30.1003 15.2973L28.6991 15.7976C27.5925 15.6269 26.4859 15.4568 25.3793 15.2861C25.2785 15.4523 25.1771 15.6184 25.0763 15.7845C25.8292 16.363 26.5821 16.9414 27.508 17.6532C28.5099 16.7431 29.3051 16.0202 30.1003 15.2973Z" fill="white"/>
<path d="M15.6981 49.6273C15.9738 49.7212 16.2488 49.8158 16.5239 49.9097L19.5089 50.521C18.3587 49.431 17.2053 48.3384 16.0044 47.2012L15.6981 49.6273Z" fill="white"/>
<path d="M97.0969 24.7434C95.7653 24.0441 94.433 23.3448 93.1014 22.6455L96.1931 27.0717C96.1678 26.3862 96.2016 25.6705 96.1339 25.0067C96.4551 24.9193 96.7763 24.8313 97.0969 24.7434Z" fill="white"/>
<path d="M53.6628 6.69808C53.6102 6.61929 52.7818 7.00078 52.3143 7.16756L54.3995 7.55364C54.1388 7.31989 53.8917 7.03755 53.6628 6.69808Z" fill="white"/>
<path d="M59.6253 8.52154L54.4004 7.55371C55.838 8.83802 57.7326 8.66665 59.6253 8.52154Z" fill="white"/>
<path d="M41.0476 15.3108C41.2914 15.1224 41.5346 14.9333 41.9111 14.6418C41.649 14.4316 41.4091 14.2393 41.1692 14.0469L41.0476 15.3108Z" fill="white"/>
<path d="M53.6558 10.8066L54.0829 13.3996C54.1434 12.7679 54.265 12.1336 54.2338 11.5053C54.2221 11.2669 53.8586 11.0391 53.6558 10.8066Z" fill="white"/>
<path d="M92.7408 36.9602L96.3325 38.7927C95.194 38.077 94.785 36.0639 92.7408 36.9602Z" fill="white"/>
<path d="M53.6569 72.2824L57.2485 74.1144C56.11 73.3993 55.7011 71.3862 53.6569 72.2824Z" fill="white"/>
<path d="M62.6915 18.665C63.4827 18.8659 64.2513 19.0603 65.0191 19.2553L62.3339 17.7051C62.4763 17.9966 62.5972 18.3144 62.6915 18.665Z" fill="white"/>
<path d="M93.8959 70.3299L96.4979 71.7692C95.8068 70.5256 94.9492 70.2629 93.8959 70.3299Z" fill="white"/>
<path d="M81.8126 55.6615L79.3171 51.4697C79.3217 52.0055 79.3282 52.6825 79.3353 53.4612C79.9381 53.9963 80.875 54.8289 81.8126 55.6615Z" fill="white"/>
<path d="M22.2491 71.0081L19.7537 66.8164C19.7582 67.3522 19.7647 68.0291 19.7719 68.8079C20.3746 69.343 21.3122 70.1756 22.2491 71.0081Z" fill="white"/>
<path d="M73.0482 85.9951C72.8642 86.8283 72.6809 87.6616 72.4565 88.68C73.0573 88.9767 73.7238 89.3057 74.3896 89.6347L73.0482 85.9951Z" fill="white"/>
<path d="M75.9054 25.4189C75.7214 26.2522 75.538 27.0854 75.3137 28.1038C75.9145 28.4006 76.5809 28.7295 77.2467 29.0585L75.9054 25.4189Z" fill="white"/>
<path d="M79.3173 51.4694C79.3134 51.0689 79.3108 50.7478 79.3089 50.5233C78.2205 49.0649 77.396 47.9605 76.5709 46.8555L79.3173 51.4694Z" fill="white"/>
<path d="M84.5189 45.084L82.7224 46.1831C83.0072 46.455 83.2913 46.7268 83.7432 47.1582C84.0501 46.3381 84.2848 45.711 84.5189 45.084Z" fill="white"/>
<path d="M78.4573 41.3008L75.5945 42.9338C76.153 42.9883 76.7109 43.046 77.27 43.0973C78.6608 43.2253 78.9514 42.7847 78.4573 41.3008Z" fill="white"/>
<path d="M54.9186 102.909L52.0558 104.542C52.6143 104.597 53.1722 104.654 53.7313 104.706C55.1221 104.834 55.4127 104.393 54.9186 102.909Z" fill="white"/>
<path d="M90.2399 55.9805L91.6274 60.7612C92.8933 58.7402 90.8563 57.536 90.2399 55.9805Z" fill="white"/>
<path d="M90.5671 70.6162L91.6855 72.5742C92.6393 71.9642 92.5938 71.1763 92.4741 70.54C92.3766 70.5584 92.2778 70.5768 92.177 70.5959C91.6159 70.7009 91.0626 70.7121 90.5671 70.6162Z" fill="white"/>
<path d="M92.4741 70.5392C92.9839 70.4433 93.4566 70.3586 93.8961 70.3304L92.2349 69.4111C92.2921 69.4656 92.3461 69.5175 92.4039 69.5727C92.2836 69.7664 92.3948 70.1203 92.4741 70.5392Z" fill="white"/>
<path d="M90.5671 70.6159L88.7908 67.5068C88.4111 69.4123 89.2954 70.369 90.5671 70.6159Z" fill="white"/>
<path d="M37.5445 94.1285L35.7682 91.0195C35.3885 92.9256 36.2734 93.8817 37.5445 94.1285Z" fill="white"/>
<path d="M88.7908 67.5065L92.2349 69.4113C90.2544 67.521 88.6524 65.9918 87.0542 64.4658L88.7908 67.5065Z" fill="white"/>
<path d="M86.9299 58.7139C86.9588 58.8754 87.0068 59.0317 87.0678 59.1853L86.9299 58.7139Z" fill="#FFC82F"/>
<path d="M56.3677 14.2617L57.8592 15.1225L57.8417 14.6432C57.3579 14.5079 56.8625 14.3852 56.3677 14.2617Z" fill="white"/>
<path d="M90.1498 73.538C90.6453 73.6339 91.1992 73.6227 91.7597 73.5177C91.8605 73.4986 91.9587 73.4802 92.0568 73.4619C91.9775 73.0423 91.8663 72.6884 91.9866 72.496C91.9288 72.4409 91.8748 72.389 91.8176 72.3345L88.3735 70.4297L90.1498 73.538Z" fill="white"/>
</svg>
