<svg width="266" height="88" viewBox="0 0 266 88" fill="none" xmlns="http://www.w3.org/2000/svg">
<path d="M38.7835 87.8704L4.44165 48.6334L6.19695 11.9384L48.987 10.7779L50.3034 7.74219H86.8394L76.9651 79.2493L38.7835 87.8704Z" fill="#FFCC32"/>
<path d="M104.087 51.6074H109.817V53.3487H106.277V54.1409H107.853C108.659 54.1409 109.277 54.3188 109.708 54.674C110.139 55.0298 110.355 55.5434 110.355 56.2148C110.355 56.9128 110.11 57.4605 109.619 57.8584C109.128 58.2562 108.445 58.4551 107.57 58.4551H104.087V51.6074H104.087ZM107.42 56.8412C107.64 56.8412 107.812 56.7921 107.934 56.6944C108.057 56.5967 108.118 56.4564 108.118 56.2735C108.118 55.9212 107.885 55.7453 107.42 55.7453H106.278V56.8412H107.42Z" fill="#1A1312"/>
<path d="M121.334 56.7134V58.4547H115.84V51.6064H121.211V53.3477H118.03V54.1499H120.824V55.813H118.03V56.7129H121.334V56.7134Z" fill="#1A1312"/>
<path d="M132.586 53.3968H130.651V58.4547H128.461V53.3968H126.526V51.6064H132.586V53.3968Z" fill="#1A1312"/>
<path d="M139.392 58.1516C138.826 57.845 138.382 57.4196 138.061 56.8749C137.74 56.3302 137.58 55.7154 137.58 55.0309C137.58 54.3459 137.74 53.7316 138.061 53.1869C138.382 52.6423 138.826 52.2168 139.392 51.9102C139.959 51.6035 140.597 51.4502 141.309 51.4502C142.02 51.4502 142.659 51.6035 143.225 51.9102C143.792 52.2168 144.235 52.6423 144.556 53.1869C144.877 53.7316 145.038 54.3464 145.038 55.0309C145.038 55.7159 144.877 56.3307 144.556 56.8749C144.235 57.4196 143.792 57.845 143.225 58.1516C142.659 58.4583 142.02 58.6116 141.309 58.6116C140.597 58.6116 139.958 58.4583 139.392 58.1516ZM142.059 56.5326C142.282 56.3923 142.46 56.1934 142.592 55.9359C142.724 55.6783 142.79 55.3767 142.79 55.0309C142.79 54.6852 142.724 54.384 142.592 54.126C142.46 53.8684 142.282 53.6695 142.059 53.5292C141.835 53.3889 141.585 53.3187 141.308 53.3187C141.031 53.3187 140.781 53.3889 140.558 53.5292C140.334 53.6695 140.156 53.8684 140.024 54.126C139.892 54.3835 139.826 54.6852 139.826 55.0309C139.826 55.3767 139.892 55.6783 140.024 55.9359C140.157 56.1934 140.334 56.3923 140.558 56.5326C140.781 56.6729 141.031 56.7431 141.308 56.7431C141.585 56.7431 141.835 56.6729 142.059 56.5326Z" fill="#1A1312"/>
<path d="M157.072 51.6069V58.4547H154.845V55.9307H152.787V58.4547H150.559V51.6064H152.787V54.0327H154.845V51.6064H157.072V51.6069Z" fill="#1A1312"/>
<path d="M169.477 51.6069V58.4547H167.249V55.9307H165.191V58.4547H162.963V51.6064H165.191V54.0327H167.249V51.6064H169.477V51.6069Z" fill="#1A1312"/>
<path d="M180.832 54.2822C181.279 54.6635 181.502 55.2262 181.502 55.9698C181.502 56.7721 181.248 57.3869 180.738 57.8138C180.228 58.2412 179.53 58.4547 178.642 58.4547H175.367V51.6064H177.557V53.71H178.926C179.75 53.71 180.386 53.9009 180.832 54.2822ZM179.048 56.6207C179.193 56.4739 179.266 56.27 179.266 56.0094C179.266 55.5529 179.007 55.3244 178.492 55.3244H177.557V56.8407H178.492C178.718 56.8407 178.904 56.7675 179.048 56.6207ZM182.107 51.6069H184.297V58.4547H182.107V51.6069Z" fill="#1A1312"/>
<path d="M190.187 51.6072H192.377V55.1683L194.653 51.6072H196.748V58.4549H194.558V54.9038L192.292 58.4549H190.187V51.6072ZM191.886 50.7949C191.566 50.5148 191.405 50.0939 191.405 49.5332H192.887C192.887 49.7552 192.929 49.9145 193.015 50.0127C193.1 50.1104 193.249 50.1596 193.463 50.1596C193.677 50.1596 193.829 50.1104 193.92 50.0127C194.011 49.915 194.057 49.7552 194.057 49.5332H195.539C195.539 50.0939 195.376 50.5148 195.048 50.7949C194.721 51.0755 194.192 51.2158 193.463 51.2158C192.733 51.2158 192.207 51.0755 191.886 50.7949Z" fill="#1A1312"/>
<path d="M215.443 55.5498C215.642 55.8369 215.741 56.1626 215.741 56.5279C215.741 56.9583 215.594 57.3316 215.302 57.6483C215.009 57.9645 214.616 58.206 214.122 58.3723C213.628 58.5387 213.079 58.6219 212.475 58.6219C211.512 58.6219 210.596 58.423 209.727 58.0251L210.379 56.4307C210.687 56.5615 211.008 56.6607 211.342 56.7288C211.675 56.7975 211.99 56.8315 212.286 56.8315C212.645 56.8315 212.936 56.7794 213.159 56.6752C213.382 56.571 213.494 56.4176 213.494 56.2152C213.494 55.9411 213.277 55.8043 212.843 55.8043H211.059V54.1412H212.654C212.843 54.1412 212.986 54.1057 213.083 54.0335C213.181 53.9619 213.23 53.8606 213.23 53.7304C213.23 53.561 213.143 53.4307 212.97 53.339C212.797 53.2478 212.569 53.2022 212.285 53.2022C212.021 53.2022 211.735 53.2413 211.426 53.3195C211.118 53.3976 210.826 53.5089 210.549 53.6522L209.897 51.94C210.628 51.5943 211.42 51.4214 212.276 51.4214C212.849 51.4214 213.379 51.5031 213.867 51.6659C214.354 51.8288 214.745 52.0653 215.037 52.3749C215.33 52.6846 215.476 53.0484 215.476 53.4658C215.476 53.7724 215.401 54.0495 215.25 54.2971C215.099 54.5451 214.887 54.744 214.617 54.8939C214.969 55.0442 215.245 55.2627 215.443 55.5498Z" fill="#1A1312"/>
<path d="M225.916 57.2611H223.405L222.962 58.4547H220.696L223.584 51.6064H225.774L228.663 58.4547H226.36L225.916 57.2611ZM225.303 55.598L224.661 53.8763L224.019 55.598H225.303Z" fill="#1A1312"/>
<path d="M239.924 55.4758C240.119 55.7464 240.217 56.0776 240.217 56.4689C240.217 57.0822 239.983 57.5663 239.514 57.9215C239.045 58.2773 238.383 58.4547 237.526 58.4547H233.996V51.6064H237.347C238.165 51.6064 238.799 51.7628 239.249 52.076C239.699 52.3891 239.924 52.8291 239.924 53.3968C239.924 53.723 239.85 54.0101 239.702 54.2577C239.554 54.5057 239.345 54.7076 239.074 54.8645C239.446 55.0012 239.73 55.2052 239.924 55.4758ZM236.186 54.2386H237.131C237.495 54.2386 237.678 54.0722 237.678 53.7395C237.678 53.3938 237.496 53.2209 237.131 53.2209H236.186V54.2386ZM237.971 56.293C237.971 55.9408 237.788 55.7649 237.423 55.7649H236.186V56.8412H237.423C237.788 56.8407 237.971 56.6583 237.971 56.293Z" fill="#1A1312"/>
<path d="M247.174 58.1516C246.608 57.845 246.164 57.4196 245.843 56.8749C245.522 56.3302 245.362 55.7154 245.362 55.0309C245.362 54.3459 245.522 53.7316 245.843 53.1869C246.164 52.6423 246.608 52.2168 247.174 51.9102C247.741 51.6035 248.379 51.4502 249.091 51.4502C249.801 51.4502 250.441 51.6035 251.007 51.9102C251.573 52.2168 252.017 52.6423 252.338 53.1869C252.659 53.7316 252.819 54.3464 252.819 55.0309C252.819 55.7159 252.659 56.3307 252.338 56.8749C252.017 57.4196 251.573 57.845 251.007 58.1516C250.44 58.4583 249.801 58.6116 249.091 58.6116C248.379 58.6116 247.741 58.4583 247.174 58.1516ZM249.841 56.5326C250.064 56.3923 250.242 56.1934 250.374 55.9359C250.506 55.6783 250.572 55.3767 250.572 55.0309C250.572 54.6852 250.506 54.384 250.374 54.126C250.242 53.8684 250.064 53.6695 249.841 53.5292C249.617 53.3889 249.367 53.3187 249.091 53.3187C248.814 53.3187 248.563 53.3889 248.34 53.5292C248.117 53.6695 247.939 53.8684 247.807 54.126C247.675 54.3835 247.609 54.6852 247.609 55.0309C247.609 55.3767 247.675 55.6783 247.807 55.9359C247.939 56.1934 248.117 56.3923 248.34 56.5326C248.563 56.6729 248.814 56.7431 249.091 56.7431C249.367 56.7431 249.617 56.6729 249.841 56.5326Z" fill="#1A1312"/>
<path d="M265.563 56.6643V59.7951H263.524V58.4547H259.767V59.7951H257.729V56.6643H257.918C258.302 56.6643 258.572 56.4133 258.729 55.9112C258.886 55.4091 258.987 54.6685 259.031 53.6904L259.107 51.6064H264.695V56.6643H265.563ZM260.815 55.564C260.739 56.0239 260.623 56.3907 260.466 56.6643H262.505V53.3968H260.985L260.966 53.8858C260.941 54.5453 260.891 55.104 260.815 55.564Z" fill="#1A1312"/>
<path d="M48.8627 28.999L40.063 32.1901L48.1588 33.9629L48.8627 28.999Z" fill="#1A1312"/>
<path d="M53.1565 26.659L45.0612 23.042L36.2185 27.1776L37.5991 28.6442L43.7752 25.796L46.0286 26.9137L38.3991 29.8302L38.9341 30.576L47.1817 27.3834L50.9744 28.928L53.1565 26.659Z" fill="#1A1312"/>
<path d="M73.1248 72.5489L80.9146 12.8642L53.0873 12.8229L54.8355 0.129395L5.64828 10.0598L0.437012 49.7252L10.8191 61.7591L15.6056 25.2404L32.9138 44.9177L33.6167 39.6848L16.9012 20.7324H38.0082L31.0963 12.8367L49.6339 12.8453L54.1007 27.1298L52.0744 29.8589L58.8604 43.3706L58.6146 43.9228H52.3606L51.9596 42.7002H49.9024L51.0134 45.8571H54.9119L55.6249 46.6309L39.716 46.6712L37.1035 43.6431L36.4042 48.8551L39.8809 52.8032L39.1916 58.005L18.3758 34.4448L14.2614 65.6409L31.6035 85.3076L35.0458 59.2888L38.5225 63.2369L35.7386 84.3198L40.4017 83.3249L44.7629 82.358L40.6005 77.5984L41.2791 72.3553L49.2885 81.4323L53.7048 80.5067L41.9376 67.1881L42.6471 61.9312L58.203 79.5811L62.6466 78.6417L43.3363 56.7712L44.0494 51.521L67.0902 77.688L71.5612 76.7761L53.5399 56.301L58.82 56.3148L73.1248 72.5489ZM8.01447 52.5852L4.53776 48.6478L8.69313 17.3548L12.1491 21.334L8.01447 52.5852ZM13.4043 16.795L9.94929 12.8453H25.8092L29.2859 16.795H13.4043ZM18.4031 64.3974L21.139 43.5285L24.7184 47.5698L21.8586 68.3211L18.4031 64.3974ZM28.7923 76.1684L25.3707 72.2997L28.0671 51.3462L31.5797 55.3509L28.7923 76.1684ZM50.0703 52.3498L48.5891 50.6921L54.1827 50.7258L55.7893 52.357L50.0703 52.3498Z" fill="#1A1312"/>
<path d="M128.088 44.3631V17.3611L137.658 17.2607V32.5753L147.203 17.2607H158.897V44.3631H149.357V29.13L138.828 44.3631H128.088Z" fill="#1A1312"/>
<path d="M254.383 44.342C254.383 41.2421 254.383 38.1835 254.383 35.0296C250.09 35.0296 245.916 35.0296 241.632 35.0296C241.632 38.1061 241.632 41.1637 241.632 44.3278C238.378 44.3278 235.231 44.3278 231.988 44.3278C231.988 35.3745 231.988 26.3922 231.988 17.3355C235.144 17.3355 238.26 17.3355 241.548 17.3355C241.548 20.5108 241.548 23.6789 241.548 26.9143C245.867 26.9143 250.016 26.9143 254.347 26.9143C254.347 23.7421 254.347 20.5729 254.347 17.335C257.64 17.335 260.752 17.335 263.947 17.335C263.947 26.3366 263.947 35.293 263.947 44.3425C260.788 44.342 257.647 44.342 254.383 44.342Z" fill="#1A1312"/>
<path d="M228.862 44.4337H218.616L216.426 39.7841H203.63L201.459 44.4337H191.055L203.581 17.2305H216.234L228.862 44.4337ZM213.751 33.9572L210.156 26.3916H209.847L206.304 33.9572H213.751Z" fill="#1A1312"/>
<path d="M104.212 25.2163C100.492 25.2163 96.9949 25.2163 93.4009 25.2163C93.4009 22.5912 93.4009 20.0379 93.4009 17.3721C103.744 17.3721 114.11 17.3721 124.592 17.3721C124.592 19.904 124.592 22.4852 124.592 25.1934C121.054 25.1934 117.528 25.1934 113.853 25.1934C113.853 31.6454 113.853 37.9735 113.853 44.3674C110.586 44.3674 107.468 44.3674 104.213 44.3674C104.212 38.0393 104.212 31.709 104.212 25.2163Z" fill="#1A1312"/>
<path d="M182.912 44.4028C179.591 44.4028 176.504 44.4028 173.262 44.4028C173.262 38.0456 173.262 31.7174 173.262 25.2624C169.587 25.2624 166.061 25.2624 162.44 25.2624C162.44 22.5832 162.44 20.0295 162.44 17.3677C172.783 17.3677 183.152 17.3677 193.618 17.3677C193.618 19.9383 193.618 22.5272 193.618 25.2058C190.053 25.2058 186.557 25.2058 182.913 25.2058C182.912 31.6211 182.912 37.9503 182.912 44.4028Z" fill="#1A1312"/>
<path d="M44.989 10.3603L44.8838 7.44434C42.9106 8.20696 44.0237 10.0205 43.1174 11.1464C43.2444 11.2855 43.3718 11.425 43.4987 11.5641C44.008 11.5152 44.5177 11.4663 45.027 11.4174L45.0022 10.7322L43.8421 10.0643C44.2269 10.1601 44.6123 10.2554 44.989 10.3603Z" fill="#FFC82F"/>
<path d="M44.9893 10.3604L45.0029 10.7322L48.4832 12.7358C47.801 11.343 46.4593 10.772 44.9893 10.3604Z" fill="#FFC82F"/>
<path d="M74.3258 35.521L74.2906 35.3091C74.2779 35.383 74.2932 35.4533 74.3258 35.521Z" fill="#FFC82F"/>
<path d="M76.7302 34.5579C76.6195 33.807 76.5087 33.0556 76.4238 32.4784C75.781 32.0785 75.2247 31.7331 74.6685 31.3872L76.7302 34.5579Z" fill="#FFC82F"/>
<path d="M61.8837 56.1897C62.0298 55.7969 62.176 55.4041 62.2811 55.1209C61.8119 54.748 61.4209 54.4377 61.03 54.127L61.8837 56.1897Z" fill="#FFC82F"/>
<path d="M74.3254 35.521L74.6228 37.3208C76.237 36.491 74.6026 36.0972 74.3254 35.521Z" fill="#FFC82F"/>
<path d="M61.7361 70.3354L62.0334 72.1353C63.6476 71.3054 62.0132 70.9116 61.7361 70.3354Z" fill="#FFC82F"/>
<path d="M40.5738 11.2293C40.8453 11.1997 41.1174 11.1697 41.4744 11.131C40.7477 10.4132 40.1035 9.77739 39.4597 9.14111L40.5738 11.2293Z" fill="#FFC82F"/>
<path d="M23.4117 10.8675L22.3219 11.2557C21.4612 11.1233 20.6005 10.9913 19.7398 10.8589C19.6614 10.9878 19.5825 11.1167 19.5042 11.2455C20.0898 11.6944 20.6754 12.1432 21.3955 12.6954C22.1748 11.9893 22.7932 11.4284 23.4117 10.8675Z" fill="#FFC82F"/>
<path d="M12.2104 37.5034C12.4249 37.5763 12.6388 37.6497 12.8527 37.7225L15.1744 38.1968C14.2798 37.3511 13.3827 36.5034 12.4486 35.6211L12.2104 37.5034Z" fill="#FFC82F"/>
<path d="M75.5209 18.197C74.4852 17.6544 73.449 17.1119 72.4133 16.5693L74.818 20.0034C74.7982 19.4716 74.8245 18.9163 74.7719 18.4013C75.0218 18.3335 75.2716 18.2652 75.5209 18.197Z" fill="#FFC82F"/>
<path d="M41.7385 4.1962C41.6976 4.13507 41.0533 4.43105 40.6897 4.56044L42.3115 4.85999C42.1087 4.67863 41.9165 4.45958 41.7385 4.1962Z" fill="#FFC82F"/>
<path d="M46.3758 5.61077L42.312 4.85986C43.4301 5.85631 44.9037 5.72335 46.3758 5.61077Z" fill="#FFC82F"/>
<path d="M31.9268 10.8786C32.1164 10.7324 32.3055 10.5857 32.5983 10.3595C32.3945 10.1965 32.2079 10.0472 32.0213 9.89795L31.9268 10.8786Z" fill="#FFC82F"/>
<path d="M41.7334 7.38379L42.0657 9.39554C42.1127 8.90546 42.2073 8.41335 42.183 7.92583C42.1739 7.7409 41.8912 7.56413 41.7334 7.38379Z" fill="#FFC82F"/>
<path d="M72.1328 27.6757L74.9263 29.0975C74.0408 28.5422 73.7227 26.9803 72.1328 27.6757Z" fill="#FFC82F"/>
<path d="M41.7339 55.081L44.5274 56.5023C43.6419 55.9475 43.3238 54.3856 41.7339 55.081Z" fill="#FFC82F"/>
<path d="M48.7606 13.4806C49.376 13.6365 49.9737 13.7873 50.571 13.9386L48.4824 12.7358C48.5932 12.962 48.6872 13.2086 48.7606 13.4806Z" fill="#FFC82F"/>
<path d="M73.031 53.566L75.0548 54.6827C74.5173 53.7179 73.8502 53.5141 73.031 53.566Z" fill="#FFC82F"/>
<path d="M63.6323 42.1848L61.6914 38.9326C61.6949 39.3483 61.7 39.8735 61.7056 40.4777C62.1744 40.8929 62.9031 41.5389 63.6323 42.1848Z" fill="#FFC82F"/>
<path d="M17.3054 54.0921L15.3645 50.8398C15.368 51.2555 15.3731 51.7808 15.3787 52.385C15.8474 52.8001 16.5767 53.4461 17.3054 54.0921Z" fill="#FFC82F"/>
<path d="M56.8164 65.7197C56.6733 66.3662 56.5307 67.0127 56.3562 67.8028C56.8235 68.0331 57.3418 68.2883 57.8597 68.5435L56.8164 65.7197Z" fill="#FFC82F"/>
<path d="M59.0386 18.7207C58.8954 19.3672 58.7528 20.0136 58.5784 20.8038C59.0456 21.034 59.564 21.2893 60.0818 21.5445L59.0386 18.7207Z" fill="#FFC82F"/>
<path d="M61.692 38.9323C61.689 38.6216 61.6869 38.3725 61.6854 38.1982C60.8389 37.0668 60.1976 36.2099 59.5559 35.3525L61.692 38.9323Z" fill="#FFC82F"/>
<path d="M65.7381 33.978L64.3408 34.8308C64.5623 35.0417 64.7833 35.2526 65.1348 35.5873C65.3735 34.951 65.556 34.4645 65.7381 33.978Z" fill="#FFC82F"/>
<path d="M61.0235 31.043L58.7969 32.3099C59.2313 32.3522 59.6652 32.3971 60.1001 32.4368C61.1818 32.5361 61.4078 32.1943 61.0235 31.043Z" fill="#FFC82F"/>
<path d="M42.7154 78.8428L40.4888 80.1097C40.9232 80.152 41.3571 80.1968 41.792 80.2366C42.8737 80.3359 43.0997 79.9941 42.7154 78.8428Z" fill="#FFC82F"/>
<path d="M70.1877 42.4321L71.2669 46.1413C72.2515 44.5733 70.6672 43.639 70.1877 42.4321Z" fill="#FFC82F"/>
<path d="M70.4419 53.7876L71.3117 55.3067C72.0536 54.8335 72.0181 54.2222 71.9251 53.7285C71.8492 53.7428 71.7724 53.757 71.694 53.7718C71.2576 53.8533 70.8272 53.862 70.4419 53.7876Z" fill="#FFC82F"/>
<path d="M71.9249 53.7277C72.3213 53.6534 72.689 53.5877 73.0309 53.5657L71.7388 52.8525C71.7833 52.8948 71.8253 52.9351 71.8703 52.9779C71.7767 53.1281 71.8632 53.4027 71.9249 53.7277Z" fill="#FFC82F"/>
<path d="M70.4416 53.7877L69.06 51.3755C68.7647 52.8539 69.4524 53.5961 70.4416 53.7877Z" fill="#FFC82F"/>
<path d="M29.2026 72.0303L27.821 69.6182C27.5256 71.0971 28.2139 71.8388 29.2026 72.0303Z" fill="#FFC82F"/>
<path d="M69.06 51.3748L71.7387 52.8527C70.1983 51.386 68.9523 50.1995 67.7092 49.0156L69.06 51.3748Z" fill="#FFC82F"/>
<path d="M67.6128 44.5532C67.6352 44.6785 67.6725 44.7998 67.7199 44.919L67.6128 44.5532Z" fill="#FFC82F"/>
<path d="M43.842 10.0645L45.0021 10.7323L44.9885 10.3604C44.6122 10.2555 44.2269 10.1602 43.842 10.0645Z" fill="#FFC82F"/>
<path d="M70.1177 56.0547C70.503 56.1291 70.9339 56.1204 71.3698 56.0389C71.4482 56.0242 71.5245 56.0099 71.6009 55.9956C71.5392 55.6701 71.4527 55.3955 71.5463 55.2463C71.5013 55.2035 71.4593 55.1632 71.4148 55.1209L68.7361 53.6431L70.1177 56.0547Z" fill="#FFC82F"/>
</svg>
