<svg width="172" height="43" viewBox="0 0 172 43" fill="none" xmlns="http://www.w3.org/2000/svg">
<path d="M18.7496 43L2.07837 23.4129L2.93048 5.09474L23.7029 4.51543L24.3419 3H42.0784L37.2849 38.6963L18.7496 43Z" fill="#FFCC32"/>
<path d="M54.4515 33.4731H58.6224V34.7407H56.0454V35.3173H57.1929C57.7791 35.3173 58.2292 35.4468 58.5431 35.7055C58.8567 35.9644 59.0138 36.3383 59.0138 36.8271C59.0138 37.3352 58.8353 37.7339 58.4779 38.0235C58.1205 38.3131 57.6234 38.4579 56.9869 38.4579H54.4512V33.4731H54.4515ZM56.8771 37.283C57.0375 37.283 57.1625 37.2473 57.2515 37.1761C57.341 37.105 57.3855 37.0029 57.3855 36.8698C57.3855 36.6133 57.2161 36.4853 56.8771 36.4853H56.0458V37.283H56.8771Z" fill="#1A1312"/>
<path d="M67.0056 37.1903V38.4578H63.0063V33.4727H66.9162V34.7402H64.6006V35.3242H66.6345V36.5348H64.6006V37.1899H67.0056V37.1903Z" fill="#1A1312"/>
<path d="M75.1971 34.7759H73.7882V38.4578H72.1939V34.7759H70.7854V33.4727H75.1971V34.7759Z" fill="#1A1312"/>
<path d="M80.1515 38.2371C79.7391 38.0139 79.4164 37.7042 79.1825 37.3077C78.949 36.9113 78.832 36.4637 78.832 35.9654C78.832 35.4668 78.949 35.0196 79.1825 34.6231C79.4161 34.2266 79.7391 33.917 80.1515 33.6937C80.5639 33.4705 81.0288 33.3589 81.5466 33.3589C82.0644 33.3589 82.5293 33.4705 82.9417 33.6937C83.3541 33.917 83.6771 34.2266 83.9106 34.6231C84.1442 35.0196 84.2611 35.4672 84.2611 35.9654C84.2611 36.4641 84.1442 36.9116 83.9106 37.3077C83.6771 37.7042 83.3541 38.0139 82.9417 38.2371C82.5293 38.4604 82.0644 38.572 81.5466 38.572C81.0284 38.572 80.5635 38.4604 80.1515 38.2371ZM82.0926 37.0586C82.2552 36.9565 82.3848 36.8117 82.4807 36.6242C82.5771 36.4367 82.6252 36.2171 82.6252 35.9654C82.6252 35.7138 82.5771 35.4945 82.4807 35.3067C82.3844 35.1192 82.2552 34.9744 82.0926 34.8723C81.93 34.7701 81.7479 34.7191 81.5462 34.7191C81.3445 34.7191 81.1624 34.7701 80.9998 34.8723C80.8373 34.9744 80.7076 35.1192 80.6117 35.3067C80.5154 35.4942 80.4672 35.7138 80.4672 35.9654C80.4672 36.2171 80.5154 36.4367 80.6117 36.6242C80.708 36.8117 80.8373 36.9565 80.9998 37.0586C81.1624 37.1607 81.3445 37.2118 81.5462 37.2118C81.7479 37.2118 81.93 37.1607 82.0926 37.0586Z" fill="#1A1312"/>
<path d="M93.0215 33.473V38.4578H91.3998V36.6205H89.9018V38.4578H88.28V33.4727H89.9018V35.2388H91.3998V33.4727H93.0215V33.473Z" fill="#1A1312"/>
<path d="M102.051 33.473V38.4578H100.429V36.6205H98.9314V38.4578H97.3096V33.4727H98.9314V35.2388H100.429V33.4727H102.051V33.473Z" fill="#1A1312"/>
<path d="M110.317 35.4205C110.643 35.698 110.805 36.1077 110.805 36.649C110.805 37.2329 110.62 37.6805 110.249 37.9913C109.878 38.3024 109.369 38.4578 108.723 38.4578H106.339V33.4727H107.933V35.0039H108.93C109.53 35.0039 109.992 35.1429 110.317 35.4205ZM109.019 37.1228C109.124 37.0159 109.177 36.8674 109.177 36.6778C109.177 36.3455 108.989 36.1791 108.613 36.1791H107.933V37.2829H108.613C108.778 37.2829 108.913 37.2296 109.019 37.1228ZM111.245 33.473H112.839V38.4578H111.245V33.473Z" fill="#1A1312"/>
<path d="M117.127 33.4731H118.721V36.0654L120.378 33.4731H121.903V38.4579H120.309V35.8728L118.66 38.4579H117.127V33.4731ZM118.364 32.8818C118.131 32.6779 118.014 32.3715 118.014 31.9634H119.093C119.093 32.125 119.123 32.241 119.185 32.3125C119.247 32.3836 119.356 32.4193 119.512 32.4193C119.667 32.4193 119.778 32.3836 119.845 32.3125C119.911 32.2413 119.944 32.125 119.944 31.9634H121.023C121.023 32.3715 120.904 32.6779 120.666 32.8818C120.428 33.0861 120.043 33.1882 119.512 33.1882C118.98 33.1882 118.598 33.0861 118.364 32.8818Z" fill="#1A1312"/>
<path d="M135.512 36.3431C135.657 36.5521 135.729 36.7892 135.729 37.0551C135.729 37.3685 135.622 37.6402 135.409 37.8707C135.196 38.1009 134.91 38.2767 134.55 38.3978C134.191 38.5189 133.791 38.5794 133.351 38.5794C132.65 38.5794 131.984 38.4346 131.351 38.145L131.826 36.9844C132.05 37.0796 132.284 37.1518 132.527 37.2014C132.769 37.2514 132.998 37.2762 133.214 37.2762C133.475 37.2762 133.687 37.2382 133.849 37.1624C134.012 37.0865 134.093 36.9749 134.093 36.8275C134.093 36.628 133.936 36.5284 133.619 36.5284H132.321V35.3178H133.482C133.619 35.3178 133.723 35.2919 133.794 35.2394C133.865 35.1872 133.901 35.1135 133.901 35.0187C133.901 34.8954 133.838 34.8006 133.712 34.7338C133.586 34.6674 133.42 34.6342 133.214 34.6342C133.021 34.6342 132.813 34.6627 132.588 34.7196C132.364 34.7765 132.151 34.8575 131.949 34.9618L131.475 33.7154C132.007 33.4637 132.584 33.3379 133.207 33.3379C133.623 33.3379 134.009 33.3973 134.365 33.5159C134.719 33.6344 135.004 33.8066 135.217 34.032C135.43 34.2574 135.536 34.5223 135.536 34.8261C135.536 35.0493 135.481 35.251 135.371 35.4312C135.262 35.6118 135.108 35.7566 134.911 35.8657C135.167 35.9751 135.368 36.1341 135.512 36.3431Z" fill="#1A1312"/>
<path d="M143.136 37.5889H141.308L140.985 38.4578H139.336L141.438 33.4727H143.033L145.136 38.4578H143.459L143.136 37.5889ZM142.689 36.3783L142.222 35.125L141.755 36.3783H142.689Z" fill="#1A1312"/>
<path d="M153.333 36.2893C153.475 36.4863 153.546 36.7274 153.546 37.0123C153.546 37.4587 153.376 37.8111 153.034 38.0697C152.693 38.3287 152.211 38.4578 151.588 38.4578H149.018V33.4727H151.457C152.053 33.4727 152.514 33.5865 152.842 33.8144C153.169 34.0424 153.333 34.3627 153.333 34.7759C153.333 35.0134 153.279 35.2224 153.171 35.4026C153.064 35.5831 152.911 35.7301 152.714 35.8443C152.985 35.9439 153.191 36.0923 153.333 36.2893ZM150.612 35.3887H151.299C151.565 35.3887 151.698 35.2676 151.698 35.0254C151.698 34.7737 151.565 34.6479 151.299 34.6479H150.612V35.3887ZM151.911 36.8842C151.911 36.6278 151.778 36.4998 151.512 36.4998H150.612V37.2833H151.512C151.778 37.2829 151.911 37.1501 151.911 36.8842Z" fill="#1A1312"/>
<path d="M158.61 38.2371C158.198 38.0139 157.875 37.7042 157.642 37.3077C157.408 36.9113 157.291 36.4637 157.291 35.9654C157.291 35.4668 157.408 35.0196 157.642 34.6231C157.875 34.2266 158.198 33.917 158.61 33.6937C159.023 33.4705 159.488 33.3589 160.006 33.3589C160.523 33.3589 160.988 33.4705 161.4 33.6937C161.813 33.917 162.136 34.2266 162.369 34.6231C162.603 35.0196 162.72 35.4672 162.72 35.9654C162.72 36.4641 162.603 36.9116 162.369 37.3077C162.136 37.7042 161.813 38.0139 161.4 38.2371C160.988 38.4604 160.523 38.572 160.006 38.572C159.488 38.572 159.023 38.4604 158.61 38.2371ZM160.552 37.0586C160.714 36.9565 160.844 36.8117 160.94 36.6242C161.036 36.4367 161.084 36.2171 161.084 35.9654C161.084 35.7138 161.036 35.4945 160.94 35.3067C160.843 35.1192 160.714 34.9744 160.552 34.8723C160.389 34.7701 160.207 34.7191 160.006 34.7191C159.804 34.7191 159.622 34.7701 159.459 34.8723C159.297 34.9744 159.167 35.1192 159.071 35.3067C158.975 35.4942 158.927 35.7138 158.927 35.9654C158.927 36.2171 158.975 36.4367 159.071 36.6242C159.167 36.8117 159.297 36.9565 159.459 37.0586C159.622 37.1607 159.804 37.2118 160.006 37.2118C160.207 37.2118 160.389 37.1607 160.552 37.0586Z" fill="#1A1312"/>
<path d="M171.997 37.1545V39.4335H170.512V38.4578H167.778V39.4335H166.293V37.1545H166.431C166.711 37.1545 166.908 36.9718 167.022 36.6063C167.136 36.2408 167.21 35.7017 167.242 34.9897L167.297 33.4727H171.365V37.1545H171.997ZM168.54 36.3535C168.485 36.6883 168.4 36.9553 168.286 37.1545H169.77V34.7759H168.664L168.65 35.1319C168.632 35.612 168.595 36.0187 168.54 36.3535Z" fill="#1A1312"/>
<path d="M23.6277 14.0859L19.3342 15.6429L23.2843 16.5079L23.6277 14.0859Z" fill="#1A1312"/>
<path d="M25.7225 12.944L21.7727 11.1792L17.4583 13.197L18.1319 13.9126L21.1453 12.5229L22.2448 13.0682L18.5222 14.4912L18.7832 14.8551L22.8073 13.2974L24.6579 14.0511L25.7225 12.944Z" fill="#1A1312"/>
<path d="M35.4654 35.3344L39.2662 6.21349L25.6888 6.19335L26.5418 0L2.54265 4.84517L0 24.1985L5.06557 30.07L7.40096 12.252L15.8459 21.8528L16.1888 19.2996L8.0331 10.0525H18.3315L14.9591 6.20006L24.0038 6.20429L26.1833 13.1739L25.1946 14.5054L28.5056 21.098L28.3857 21.3674H25.3342L25.1386 20.7709H24.1348L24.6769 22.3112H26.579L26.9269 22.6887L19.1648 22.7084L17.8901 21.2309L17.5489 23.774L19.2452 25.7003L18.9089 28.2383L8.7526 16.743L6.74512 31.964L15.2066 41.5596L16.8861 28.8647L18.5825 30.791L17.2242 41.0777L19.4993 40.5922L21.6272 40.1205L19.5963 37.7982L19.9274 35.24L23.8353 39.6688L25.9901 39.2172L20.2487 32.7189L20.5949 30.154L28.1848 38.7656L30.3529 38.3072L20.9312 27.6363L21.2791 25.0747L32.521 37.8419L34.7025 37.397L25.9096 27.4069L28.4858 27.4136L35.4654 35.3344ZM3.69715 25.5939L2.00081 23.6728L4.02827 8.40454L5.71449 10.346L3.69715 25.5939ZM6.3269 8.13137L4.64117 6.20429H12.3794L14.0758 8.13137H6.3269ZM8.76592 31.3573L10.1008 21.175L11.8472 23.1468L10.4519 33.2717L8.76592 31.3573ZM13.8349 37.1005L12.1655 35.2129L13.4811 24.9894L15.195 26.9433L13.8349 37.1005ZM24.2168 25.4791L23.4941 24.6703L26.2232 24.6867L27.0071 25.4825L24.2168 25.4791Z" fill="#1A1312"/>
<path d="M71.9226 28.1997V8.54376L78.8886 8.4707V19.6188L85.8373 8.4707H94.3494V28.1997H87.4051V17.1109L79.7408 28.1997H71.9226Z" fill="#1A1312"/>
<path d="M163.858 28.1845C163.858 25.928 163.858 23.7014 163.858 21.4056C160.733 21.4056 157.695 21.4056 154.576 21.4056C154.576 23.6451 154.576 25.8708 154.576 28.1741C152.207 28.1741 149.917 28.1741 147.556 28.1741C147.556 21.6566 147.556 15.118 147.556 8.52527C149.853 8.52527 152.121 8.52527 154.515 8.52527C154.515 10.8367 154.515 13.1429 154.515 15.4981C157.659 15.4981 160.679 15.4981 163.831 15.4981C163.831 13.1889 163.831 10.8819 163.831 8.5249C166.229 8.5249 168.495 8.5249 170.82 8.5249C170.82 15.0776 170.82 21.5973 170.82 28.1849C168.521 28.1845 166.234 28.1845 163.858 28.1845Z" fill="#1A1312"/>
<path d="M145.28 28.2511H137.822L136.228 24.8665H126.913L125.332 28.2511H117.759L126.877 8.44873H136.088L145.28 28.2511ZM134.281 20.6248L131.664 15.1175H131.439L128.859 20.6248H134.281Z" fill="#1A1312"/>
<path d="M54.5425 14.2619C51.8346 14.2619 49.2886 14.2619 46.6724 14.2619C46.6724 12.351 46.6724 10.4924 46.6724 8.55176C54.2012 8.55176 61.7474 8.55176 69.3778 8.55176C69.3778 10.3948 69.3778 12.2739 69.3778 14.2452C66.8025 14.2452 64.2355 14.2452 61.5604 14.2452C61.5604 18.9419 61.5604 23.5484 61.5604 28.2028C59.1819 28.2028 56.9121 28.2028 54.5428 28.2028C54.5425 23.5963 54.5425 18.9883 54.5425 14.2619Z" fill="#1A1312"/>
<path d="M111.832 28.2283C109.414 28.2283 107.166 28.2283 104.807 28.2283C104.807 23.6007 104.807 18.9941 104.807 14.2952C102.132 14.2952 99.5651 14.2952 96.929 14.2952C96.929 12.345 96.929 10.486 96.929 8.54834C104.458 8.54834 112.006 8.54834 119.625 8.54834C119.625 10.4196 119.625 12.3042 119.625 14.2541C117.03 14.2541 114.485 14.2541 111.832 14.2541C111.832 18.924 111.832 23.5313 111.832 28.2283Z" fill="#1A1312"/>
<path d="M21.7374 4.99209L21.6861 3.56934C20.7233 3.94143 21.2664 4.8263 20.8242 5.37562C20.8862 5.44347 20.9483 5.51158 21.0103 5.57943C21.2587 5.55557 21.5074 5.53171 21.7559 5.50785L21.7438 5.17354L21.1778 4.84768C21.3656 4.89441 21.5536 4.94089 21.7374 4.99209Z" fill="#FFC82F"/>
<path d="M21.7375 4.99219L21.7442 5.17364L23.4423 6.15122C23.1094 5.47166 22.4548 5.19302 21.7375 4.99219Z" fill="#FFC82F"/>
<path d="M36.0513 17.2684L36.0342 17.165C36.0279 17.2011 36.0354 17.2354 36.0513 17.2684Z" fill="#FFC82F"/>
<path d="M37.2245 16.7985C37.1704 16.4321 37.1164 16.0655 37.0749 15.7839C36.7613 15.5888 36.4899 15.4202 36.2185 15.2515L37.2245 16.7985Z" fill="#FFC82F"/>
<path d="M29.9805 27.3526C30.0518 27.161 30.1231 26.9693 30.1744 26.8311C29.9454 26.6492 29.7547 26.4978 29.564 26.3462L29.9805 27.3526Z" fill="#FFC82F"/>
<path d="M36.0513 17.2686L36.1964 18.1467C36.984 17.7418 36.1865 17.5497 36.0513 17.2686Z" fill="#FFC82F"/>
<path d="M29.9089 34.2549L30.054 35.133C30.8416 34.7281 30.0441 34.536 29.9089 34.2549Z" fill="#FFC82F"/>
<path d="M19.5831 5.41631C19.7156 5.40189 19.8484 5.38722 20.0226 5.36833C19.668 5.01811 19.3537 4.70791 19.0396 4.39746L19.5831 5.41631Z" fill="#FFC82F"/>
<path d="M11.2098 5.23958L10.6781 5.42898C10.2581 5.36435 9.83815 5.29998 9.4182 5.23535C9.37996 5.29824 9.34147 5.36112 9.30322 5.42401C9.58895 5.64299 9.87467 5.86197 10.226 6.13141C10.6063 5.78691 10.908 5.51324 11.2098 5.23958Z" fill="#FFC82F"/>
<path d="M5.74438 18.2353C5.849 18.2709 5.95337 18.3067 6.05774 18.3422L7.19053 18.5736C6.75404 18.161 6.31633 17.7474 5.8606 17.3169L5.74438 18.2353Z" fill="#FFC82F"/>
<path d="M36.6344 8.81563C36.1291 8.55092 35.6235 8.2862 35.1182 8.02148L36.2914 9.69702C36.2818 9.43753 36.2946 9.1666 36.269 8.9153C36.3909 8.88225 36.5127 8.84894 36.6344 8.81563Z" fill="#FFC82F"/>
<path d="M20.1516 1.98448C20.1316 1.95465 19.8173 2.09906 19.6399 2.1622L20.4312 2.30835C20.3322 2.21986 20.2385 2.11298 20.1516 1.98448Z" fill="#FFC82F"/>
<path d="M22.4142 2.67497L20.4314 2.30859C20.9769 2.79477 21.6959 2.7299 22.4142 2.67497Z" fill="#FFC82F"/>
<path d="M15.3643 5.24508C15.4568 5.17374 15.5491 5.10216 15.6919 4.9918C15.5925 4.91226 15.5014 4.83943 15.4104 4.7666L15.3643 5.24508Z" fill="#FFC82F"/>
<path d="M20.1492 3.53955L20.3113 4.52111C20.3342 4.282 20.3804 4.04189 20.3685 3.80402C20.3641 3.71379 20.2262 3.62754 20.1492 3.53955Z" fill="#FFC82F"/>
<path d="M34.9814 13.4405L36.3444 14.1342C35.9124 13.8633 35.7572 13.1012 34.9814 13.4405Z" fill="#FFC82F"/>
<path d="M20.1494 26.812L21.5124 27.5055C21.0804 27.2348 20.9252 26.4728 20.1494 26.812Z" fill="#FFC82F"/>
<path d="M23.5778 6.51427C23.8781 6.59033 24.1698 6.66391 24.4612 6.73773L23.4421 6.15088C23.4962 6.26124 23.5421 6.38154 23.5778 6.51427Z" fill="#FFC82F"/>
<path d="M35.4197 26.0725L36.4071 26.6173C36.1448 26.1466 35.8194 26.0471 35.4197 26.0725Z" fill="#FFC82F"/>
<path d="M30.8337 20.5194L29.8867 18.9326C29.8884 19.1354 29.8909 19.3917 29.8936 19.6865C30.1224 19.8891 30.4779 20.2042 30.8337 20.5194Z" fill="#FFC82F"/>
<path d="M8.23043 26.3295L7.28345 24.7427C7.28517 24.9455 7.28764 25.2018 7.29036 25.4966C7.51908 25.6991 7.87488 26.0143 8.23043 26.3295Z" fill="#FFC82F"/>
<path d="M27.5085 32.0029C27.4386 32.3184 27.3691 32.6338 27.2839 33.0193C27.5119 33.1316 27.7648 33.2562 28.0175 33.3807L27.5085 32.0029Z" fill="#FFC82F"/>
<path d="M28.5925 9.07129C28.5226 9.38671 28.453 9.70213 28.3679 10.0876C28.5959 10.2 28.8488 10.3245 29.1015 10.4491L28.5925 9.07129Z" fill="#FFC82F"/>
<path d="M29.887 18.9327C29.8855 18.781 29.8845 18.6595 29.8838 18.5745C29.4707 18.0224 29.1578 17.6044 28.8447 17.186L29.887 18.9327Z" fill="#FFC82F"/>
<path d="M31.8612 16.5156L31.1794 16.9317C31.2875 17.0346 31.3953 17.1375 31.5668 17.3008C31.6833 16.9904 31.7724 16.753 31.8612 16.5156Z" fill="#FFC82F"/>
<path d="M29.561 15.0835L28.4746 15.7017C28.6866 15.7223 28.8983 15.7442 29.1105 15.7636C29.6382 15.812 29.7485 15.6452 29.561 15.0835Z" fill="#FFC82F"/>
<path d="M20.6281 38.4058L19.5417 39.0239C19.7537 39.0446 19.9654 39.0664 20.1776 39.0858C20.7054 39.1343 20.8157 38.9675 20.6281 38.4058Z" fill="#FFC82F"/>
<path d="M34.0325 20.6401L34.559 22.4499C35.0394 21.6848 34.2664 21.229 34.0325 20.6401Z" fill="#FFC82F"/>
<path d="M34.1562 26.1807L34.5806 26.9219C34.9426 26.691 34.9253 26.3927 34.8799 26.1519C34.8429 26.1588 34.8054 26.1658 34.7672 26.173C34.5542 26.2128 34.3443 26.217 34.1562 26.1807Z" fill="#FFC82F"/>
<path d="M34.8801 26.1516C35.0736 26.1153 35.2529 26.0833 35.4197 26.0726L34.7893 25.7246C34.811 25.7452 34.8315 25.7649 34.8535 25.7858C34.8078 25.8591 34.85 25.9931 34.8801 26.1516Z" fill="#FFC82F"/>
<path d="M34.156 26.1808L33.4819 25.0039C33.3378 25.7252 33.6734 26.0874 34.156 26.1808Z" fill="#FFC82F"/>
<path d="M14.0352 35.0817L13.3611 33.9048C13.217 34.6264 13.5528 34.9883 14.0352 35.0817Z" fill="#FFC82F"/>
<path d="M33.482 25.0036L34.789 25.7247C34.0375 25.0091 33.4295 24.4302 32.823 23.8525L33.482 25.0036Z" fill="#FFC82F"/>
<path d="M32.7761 21.6753C32.7871 21.7364 32.8052 21.7956 32.8284 21.8538L32.7761 21.6753Z" fill="#FFC82F"/>
<path d="M21.178 4.84766L21.744 5.17352L21.7373 4.99207C21.5538 4.94087 21.3657 4.89439 21.178 4.84766Z" fill="#FFC82F"/>
<path d="M33.9981 27.287C34.1861 27.3233 34.3963 27.3191 34.609 27.2793C34.6472 27.2721 34.6845 27.2652 34.7217 27.2582C34.6916 27.0994 34.6495 26.9654 34.6951 26.8926C34.6731 26.8717 34.6527 26.8521 34.6309 26.8314L33.324 26.1104L33.9981 27.287Z" fill="#FFC82F"/>
</svg>
